/* XPM */
static char *nouveauinverse0[] = {
/* columns rows colors chars-per-pixel */
"64 80 192 2 ",
"   c #030303",
".  c #0B0B0B",
"X  c #100F0F",
"o  c #141414",
"O  c #181614",
"+  c #1B1916",
"@  c #1B1B1B",
"#  c #261F08",
"$  c #281F0B",
"%  c #2D2411",
"&  c #352716",
"*  c #342B15",
"=  c #372F18",
"-  c #3B2C1C",
";  c #232323",
":  c #2C2C2C",
">  c #352C23",
",  c #322E2B",
"<  c #333333",
"1  c #3B3B3B",
"2  c #483D15",
"3  c #4C341D",
"4  c #433923",
"5  c #4F3B27",
"6  c #563B22",
"7  c #513D29",
"8  c #7F7706",
"9  c #4E4033",
"0  c #664628",
"q  c #6E4C29",
"w  c #644E36",
"e  c #6D553E",
"r  c #6E673E",
"t  c #74683C",
"y  c #444444",
"u  c #494643",
"i  c #4B4B4B",
"p  c #534B43",
"a  c #545454",
"s  c #5B5B5B",
"d  c #6A5440",
"f  c #685847",
"g  c #745D47",
"h  c #795E44",
"j  c #655A50",
"k  c #7A6146",
"l  c #676455",
"z  c #746353",
"x  c #716C52",
"c  c #646464",
"v  c #6B6B6B",
"b  c #767367",
"n  c #737373",
"m  c #7B7B7B",
"M  c #835E3A",
"N  c #826E23",
"B  c #8F6337",
"V  c #8F6338",
"C  c #8E7437",
"Z  c #8C7F38",
"A  c #907635",
"S  c #957B34",
"D  c #9A7E33",
"F  c #93743B",
"G  c #A17E3A",
"H  c #886645",
"J  c #917A47",
"K  c #836D54",
"L  c #887455",
"P  c #A37040",
"I  c #AB7643",
"U  c #AF7A46",
"Y  c #B37B47",
"T  c #B37D4A",
"R  c #B49B1B",
"E  c #9E8331",
"W  c #AB8F2F",
"Q  c #A28532",
"!  c #A48933",
"~  c #AA8D31",
"^  c #AD8739",
"/  c #A68B3D",
"(  c #AB8F39",
")  c #B48E34",
"_  c #B78F3B",
"`  c #B19637",
"'  c #B0963E",
"]  c #BA9238",
"[  c #B79D3E",
"{  c #BC9E3B",
"}  c #C4A72E",
"|  c #CBAE2C",
" . c #D5B921",
".. c #CCAF33",
"X. c #C2A83F",
"o. c #D5A63E",
"O. c #D0AA3A",
"+. c #DEB63A",
"@. c #E2B53A",
"#. c #E4BB3C",
"$. c #E9BE3A",
"%. c #E2C81E",
"&. c #F6E017",
"*. c #FCE11E",
"=. c #E7C625",
"-. c #EECD27",
";. c #FDDC26",
":. c #F3D62D",
">. c #FCD72B",
",. c #FDDA2A",
"<. c #E6C833",
"1. c #E0C73D",
"2. c #E3C93B",
"3. c #EED036",
"4. c #FDDE31",
"5. c #F3D13D",
"6. c #F9DA3B",
"7. c #FDE036",
"8. c #FDE03A",
"9. c #8F854F",
"0. c #9E8643",
"q. c #9E8750",
"w. c #978D53",
"e. c #B38B40",
"r. c #BF8649",
"t. c #AC9440",
"y. c #B49A4A",
"u. c #878472",
"i. c #C2864B",
"p. c #CA8E4C",
"a. c #CB9049",
"s. c #CD8E50",
"d. c #D29252",
"f. c #E09C58",
"g. c #DEAE43",
"h. c #DDAE4A",
"j. c #CAB045",
"k. c #D4BA46",
"l. c #DAB04B",
"z. c #E1B340",
"x. c #E1B841",
"c. c #E8BF42",
"v. c #E4BA48",
"b. c #F0BA45",
"n. c #F9BF47",
"m. c #F6B84B",
"M. c #FBBF49",
"N. c #EBAC50",
"B. c #F5AA5F",
"V. c #FBAF5E",
"C. c #FCB05B",
"Z. c #FBAD61",
"A. c #DBC148",
"S. c #E0C647",
"D. c #ECC544",
"F. c #E6CE42",
"G. c #EDC845",
"H. c #E8C14B",
"J. c #FDC642",
"K. c #FDC049",
"L. c #EAD043",
"P. c #EAD14E",
"I. c #F2D749",
"U. c #F4DC59",
"Y. c #FCE14C",
"T. c #FBE251",
"R. c #FCE35B",
"E. c #F6DE6D",
"W. c #F6E062",
"Q. c #838383",
"!. c #8A8A8A",
"~. c #939393",
"^. c #9D9D9D",
"/. c #A29E83",
"(. c #B2AE97",
"). c #A4A4A4",
"_. c #ABABAB",
"`. c #B4B4B4",
"'. c #BDBDBD",
"]. c #C0AF95",
"[. c #DCD08E",
"{. c #FCEB86",
"}. c #FEED8A",
"|. c #C3C3C3",
" X c #CBCBCB",
".X c #D4D4D4",
"XX c #DCDCDC",
"oX c #E3E3E3",
"OX c #EDEDED",
"+X c #F4F4F4",
"@X c #FEFEFE",
"#X c None",
/* pixels */
"#X#X#X#X#X#X#X#X#X#X#X#X#X#X#X#X#X#X#X#X#X#X#X#X#X#X#X#X#X#X#X#X#X#X#X#X#X#X#X#X#X#X#X#X#X#X#X#X#X#X#X#X#X#X#X#X#X#X#X#X#X#X#X#X",
"#X#X#X#X#X#X#X#X#X#X#X#X#X#X#X#X#X#X#X#X#X#X#X#X#X#X#X#X#X#X#X#X#X#X#X#X#X#X#X#X#X#X#X#X#X#X#X#X#X#X#X#X#X#X#X#X#X#X#X#X#X#X#X#X",
"#X#X#X#X#X#X#X#X#X#X#X#X#X#X#X#X#X#X#X#X#X#X#X#X#X#X#X#X#X#X#X#X#X#X#X#X#X#X#X#X#X#X#X#X#X#X#X#X#X#X#X#X#X#X#X#X#X#X#X#X#X#X#X#X",
"#X#X#X#X#X#X#X#X#X#X#X#X#X#X#X#X#X#X#X#X#X#X#X#X#X#X#X#X#X#X#X#X#X#X#X#X#X#X#X#X#X#X#X#X#X#X#X#X#X#X#X#X#X#X#X#X#X#X#X#X#X#X#X#X",
"#X#X#X#X#X#X#X#X#X#X#X#X#X#X#X#X#X#X#X#X#X#X#X#X#X#X#X#X#X#X#X#X#X#X#X#X#X#X#X#X#X#X#X#X#X#X#X#X#X#X#X#X#X#X#X#X#X#X#X#X#X#X#X#X",
"#X#X#X#X#X#X#X#X#X#X#X#X#X#X#X#X#X#X#X#X#X#X#X#X#X#X#X#X#X#X#X#X#X#X#X#X#X#X#X#X#X#X#X#X#X#X#X#X#X#X#X#X#X#X#X#X#X#X#X#X#X#X#X#X",
"#X#X#X#X#X#X#X#X#X#X#X#X#X#X#X#X#X#X#X#X#X#X#X#X#X#X#X#X#X#X#X#X#X#X#X#X#X#X#X#X#X#X#X#X#X#X#X#X#X#X#X#X#X#X#X#X#X#X#X#X#X#X#X#X",
"#X#X#X#X#X#X#X#X#X#X#X#X#X#X#X#X#X#X#X#X#X#X#X#X#X#X#X#X#X#X#X#X#X#X#X#X#X#X#X#X#X#X#X#X#X#X#X#X#X#X#X#X#X#X#X#X#X#X#X#X#X#X#X#X",
"#X#X#X#X#X#X#X#X#X#X#X#X#X#X#X#X#X#X#X#X#X#X#X#X#X#X#X#X#X#X#X#X#X#X#X#X#X#X#X#X#X#X#X#X#X#X#X#X#X#X#X#X#X#X#X#X#X#X#X#X#X#X#X#X",
"#X#X#X#X#X#X#X#X#X#X#X#X#X#X#X#X#X#X#X#X#X#X#X#X#X#X#X#X#X#X#X#X#X#X#X#X#X#X#X#X#X#X#X#X#X#X#X#X#X#X#X#X#X#X#X#X#X#X#X#X#X#X#X#X",
"#X#X#X#X#X#X#X#X#X#X#X#X#X#X#X#X#X#X#X#X#X#X#X#X#X#X#X#X#X#X#X#X#X#X#X#X#X#X#X#X#X#X#X#X#X#X#X#X#X#X#X#X#X#X#X#X#X#X#X#X#X#X#X#X",
"#X#X#X#X#X#X#X#X#X#X#X#X#X#X#X#X#X#X#X#X#X#X#X#X#X#X#X#X#X#X#X#X#X#X#X#X#X#X#X#X#X#X#X#X#X#X#X#X#X#X#X#X#X#X#X#X#X#X#X#X#X#X#X#X",
"#X#X#X#X#X#X#X#X#X#X#X#X#X#X#X#X#X#X#X#X#X#X#X#X#X#X#X#X#X#X#X#X#X#X#X#X#X#X#X#X#X#X#X#X#X#X#X#X#X#X#X#X#X#X#X#X#X#X#X#X#X#X#X#X",
"#X#X#X#X#X#X#X#X#X#X#X#X#X#X#X#X#X#X#X#X#X#X#X#X#X#X#X#X#X#X#X#X#X#X#X#X#X#X#X#X#X#X#X#X#X#X#X#X#X#X#X#X#X#X#X#X#X#X#X#X#X#X#X#X",
"#X#X#X#X#X#X#X#X#X#X#X#X#X#X#X#X#X#X#X#X#X#X#X#X#X#X#X#X#X#X#X#X#X#X#X#X#X#X#X#X#X#X#X#X#X#X#X#X#X#X#X#X#X#X#X#X#X#X#X#X#X#X#X#X",
"#X#X#X#X#X#X#X#X#X#X#X#X#X#X#X#X#X#X#X#X#X#X#X#X#X#X#X      . . #X#X#X#X#X#X#X#X#X#X#X#X#X#X#X#X#X#X#X#X#X#X#X#X#X#X#X#X#X#X#X#X",
"#X#X#X#X#X#X#X#X#X#X#X#X#X#X#X#X#X#X#X#X#X#X#X#X    o @ ; : ; @ @ + X #X#X#X#X#X#X#X#X#X#X#X#X#X#X#X#X#X#X#X#X#X#X#X#X#X#X#X#X#X",
"#X#X#X#X#X#X#X#X#X#X#X#X#X#X#X#X#X#X#X#X#X#X#X. @ < 1 y i a a y y 1 : +   #X#X#X#X#X#X#X#X#X#X#X#X#X#X#X#X#X#X#X#X#X#X#X#X#X#X#X",
"#X#X#X#X#X#X#X#X#X#X#X#X#X#X#X#X#X#X#X#X#X#Xo : 1 1 1 1 1 y y a a a i < @   #X#X#X#X#X#X#X#X#X#X#X#X#X#X#X#X#X#X#X#X#X#X#X#X#X#X",
"#X#X#X#X#X#X#X#X#X#X#X#X#X#X#X#X#X#X#X#X#XX : 1 < < < < : 1 y a s s a u ; @   #X#X#X#X#X#X#X#X#X#X#X#X#X#X#X#X#X#X#X#X#X#X#X#X#X",
"#X#X#X#X#X#X#X#X#X#X#X#X#X#X#X#X#X#X#X#X. @ < : < < 1 1 < < 1 y a s s a < : O   #X#X#X#X#X#X#X#X#X#X#X#X#X#X#X#X#X#X#X#X#X#X#X#X",
"#X#X#X#X#X#X#X#X#X#X#X#X#X#X#X#X#X#X#X#XX ; < s Q.n y < 1 1 1 y i a s s i ; < . #X#X#X#X#X#X#X#X#X#X#X#X#X#X#X#X#X#X#X#X#X#X#X#X",
"#X#X#X#X#X#X#X#X#X#X#X#X#X#X#X#X#X#X#X#XO : v XXXX X~.1 1 1 y i a s a a a < < @   #X#X#X#X#X#X#X#X#X#X#X#X#X#X#X#X#X#X#X#X#X#X#X",
"#X#X#X#X#X#X#X#X#X#X#X#X#X#X#X#X#X#X#X. + < ~.`..XoX Xs : < 1 u a a a a i y : : . #X#X#X#X#X#X#X#X#X#X#X#X#X#X#X#X#X#X#X#X#X#X#X",
"#X#X#X#X#X#X#X#X#X#X#X#X#X#X#X#X#X#X#X. @ 1 a < c +XOXn ; 1 y i a a a a i y ; < X #X#X#X#X#X#X#X#X#X#X#X#X#X#X#X#X#X#X#X#X#X#X#X",
"#X#X#X#X#X#X#X#X#X#X#X#X#X#X#X#X#X#X#X. @ 1 : + < XX+Xm : < y i a a s s a i ; < O #X#X#X#X#X#X#X#X#X#X#X#X#X#X#X#X#X#X#X#X#X#X#X",
"#X#X#X#X#X#X#X#X#X#X#X#X#X#X#X#X#X#X$ $ & 7 > ; < |.+X^.1 1 y u i a s s a i : < o #X#X#X#X#X#X#X#X#X#X#X#X#X#X#X#X#X#X#X#X#X#X#X",
"#X#X#X#X#X#X#X#X#X#X#X#X#X#X#X#X8 R  .=.-.o.h > a `.'.~.i < 1 y i a s s a i < : o #X#X#X#X#X#X#X#X#X#X#X#X#X#X#X#X#X#X#X#X#X#X#X",
"#X#X#X#X#X#X#X#X#X#X#X& q ) %.&.*.;.,.,.;.>.b.T f a s a 1 1 1 y y a s s a i y : .   #X#X#X#X#X#X#X#X#X#X#X#X#X#X#X#X#X#X#X#X#X#X",
"#X#X#X#X#X#X#X#X#X#X#XI B.M.J.K.C.Z.Z.V.n.m.N.f.H : 1 1 1 1 < 1 y i s s a i i ; .   #X#X#X#X#X#X#X#X#X#X#X#X#X#X#X#X#X#X#X#X#X#X",
"#X#X#X#X#X#X#X#X#X#X#X6 B I i.s.d.d.s.p.a.r.Y T k : 1 1 1 1 < 1 y y a a i i y ;     #X#X#X#X#X#X#X#X#X#X#X#X#X#X#X#X#X#X#X#X#X#X",
"#X#X#X#X#X#X#X#X#X#X#X#X#X#X#X3 0 V P Y U I T e ; ; 1 1 1 < < 1 1 i i a y y y @ . #X#X#X#X#X#X#X#X#X#X#X#X#X#X#X#X#X#X#X#X#X#X#X",
"#X#X#X#X#X#X#X#X#X#X#X#X#X#X#X#X#X#X#X- - , : @ : < 1 1 1 1 < 1 1 y y 1 1 y < o X #X#X#X#X#X#X#X#X#X#X#X#X#X#X#X#X#X#X#X#X#X#X#X",
"#X#X#X#X#X#X#X#X#X#X#X#X#X#X#X#X#X#X#X#X; @ O ; : : < : < < < < 1 < < < 1 < : @ X #X#X#X#X#X#X#X#X#X#X#X#X#X#X#X#X#X#X#X#X#X#X#X",
"#X#X#X#X#X#X#X#X#X#X#X#X#X#X#X#X#X#X#X#X#X< : ; ; ; ; ; ; : < < < : : < < : < ; O   #X#X#X#X#X#X#X#X#X#X#X#X#X#X#X#X#X#X#X#X#X#X",
"#X#X#X#X#X#X#X#X#X#X#X#X#X#X#X#X#X#X#X#X#X: : @ @ ; ; ; ; : ; : : : : : : : : ; ;   #X#X#X#X#X#X#X#X#X#X#X#X#X#X#X#X#X#X#X#X#X#X",
"#X#X#X#X#X#X#X#X#X#X#X#X#X#X#X#X#X#X#X#X#X#X< : @ ; : ; ; ; ; : : < 1 1 1 i 1 : ; o #X#X#X#X#X#X#X#X#X#X#X#X#X#X#X#X#X#X#X#X#X#X",
"#X#X#X#X#X#X#X#X#X#X#X#X#X#X#X#X#X#X#X#X#X#X: 1 ; : : : : < 1 y y y y y a s a 1 ; ; X #X#X#X#X#X#X#X#X#X#X#X#X#X#X#X#X#X#X#X#X#X",
"#X#X#X#X#X#X#X#X#X#X#X#X#X#X#X#X#X#X#X#X#X  : < ; : ; ; : < 1 y a i a s c v c s 1 ; @ #X#X#X#X#X#X#X#X#X#X#X#X#X#X#X#X#X#X#X#X#X",
"#X#X#X#X#X#X#X#X#X#X#X#X#X#X#X#X#X#X#X#X#X  : : ; ; ; ; : < y i a s c v v n m n s < O @ #X#X#X#X#X#X#X#X#X#X#X#X#X#X#X#X#X#X#X#X",
"#X#X#X#X#X#X#X#X#X#X#X#X#X#X#X#X#X#X#X#X#X  1 < ; ; @ ; : < i a a s s c n n m m c i ; o #X#X#X#X#X#X#X#X#X#X#X#X#X#X#X#X#X#X#X#X",
"#X#X#X#X#X#X#X#X#X#X#X#X#X#X#X#X#X#X#X#X#X; 1 ; @ ; ; @ : < y y i i a s c v m n v a < o @ #X#X#X#X#X#X#X#X#X#X#X#X#X#X#X#X#X#X#X",
"#X#X#X#X#X#X#X#X#X#X#X#X#X#X#X#X#X#X#X#X, m s < @ ; @ ; ; < < y y y i i a c n n v s 1 ; @ . #X#X#X#X#X#X#X#X#X#X#X#X#X#X#X#X#X#X",
"#X#X#X#X#X#X#X#X#X#X#X#X#X#X#X#X#X#X#X#Xa `.`.1 ; ; ; ; ; : : < 1 y y y a s v n s i < : ; @ #X#X#X#X#X#X#X#X#X#X#X#X#X#X#X#X#X#X",
"#X#X#X#X#X#X#X#X#X#X#X#X#X#X#X#X#X#X#X: !.oX+X!.y ; ; ; ; ; : : < 1 1 y i a c v s 1 : ; : ; . #X#X#X#X#X#X#X#X#X#X#X#X#X#X#X#X#X",
"#X#X#X#X#X#X#X#X#X#X#X#X#X#X#X#X#X#X@ v  X@X+X+X`.; ; ; ; : ; : < 1 1 1 y a s c s a < @ 1 : @ #X#X#X#X#X#X#X#X#X#X#X#X#X#X#X#X#X",
"#X#X#X#X#X#X#X#X#X#X#X#X#X#X#X#X#X#Xs  X+X@X@X@X@Xm @ ; ; @ ; : < < 1 1 y i a c s y 1 < < 1 ; . #X#X#X#X#X#X#X#X#X#X#X#X#X#X#X#X",
"#X#X#X#X#X#X#X#X#X#X#X#X#X#X#X#X#X  '.OX@X@X@X@X@XOXX o @ ; ; ; : < < s i i a a s 1 < 1 @ y : o #X#X#X#X#X#X#X#X#X#X#X#X#X#X#X#X",
"#X#X#X#X#X#X#X#X#X#X#X#X#X#X#X#X#Xi XX+X@X@X@X@X@X@Xi   . ; ; : : : < c a 1 i s a y : < @ y : o #X#X#X#X#X#X#X#X#X#X#X#X#X#X#X#X",
"#X#X#X#X#X#X#X#X#X#X#X#X#X#X#X#X  |.OX+X@X@X@X@X@X@X).@   + : : : < < c c s y a s i < : @ 1 < o O #X#X#X#X#X#X#X#X#X#X#X#X#X#X#X",
"#X#X#X#X#X#X#X#X#X#X#X#X#X#X#X#X#XXX+X@X@X@X@X@X@X@XXX@ . . : < : : < < 1 v a v c i y < ; ; : o O #X#X#X#X#X#X#X#X#X#X#X#X#X#X#X",
"#X#X#X#X#X#X#X#X#X#X#X#X#X#X#X#X).+X+X@X@X@X@X@X@X@X@X: . o ; : : : < < < i ~.m n s i ; @ ; ; o o #X#X#X#X#X#X#X#X#X#X#X#X#X#X#X",
"#X#X#X#X#X#X#X#X#X#X#X#X#X#X#X#X X@X+X@X@X@X@X@X@X@X@X1 . : @ < : : < < < < n ~.n c i ; o @ ; @ . #X#X#X#X#X#X#X#X#X#X#X#X#X#X#X",
"#X#X#X#X#X#X#X#X#X#X#X#X#X#X#Xs XX@X+X@X@X@X@X@X@X@X@X< X O @ : : : < : < < < !.Q.m c < @ o ; o . #X#X#X#X#X#X#X#X#X#X#X#X#X#X#X",
"#X#X#X#X#X#X#X#X#X#X#X#X#X#X  ).oX@X+X@X@X@X@X@X@X@X@X< o X 1 X : : < : : < < < ).Q.c i ; @ ; O   #X#X#X#X#X#X#X#X#X#X#X#X#X#X#X",
"#X#X#X#X#X#X#X#X#X#X#X#X#X#X@ '.OX+X+X@X@X@X@X@X@X@X+X< X @ ;   : : < < < < < : v ^.c a : o @ O   #X#X#X#X#X#X#X#X#X#X#X#X#X#X#X",
"#X#X#X#X#X#X#X#X#X#X#X#X#X#Xu '.oX+X+X@X@X@X@X@X@X@X+X@ X @ . . : : < < < < : : i _.Q.a < . @ o   #X#X#X#X#X#X#X#X#X#X#X#X#X#X#X",
"#X#X#X#X#X#X#X#X#X#X#X#X#X#Xc |.oXOX+X+X@X@X@X@X@X@X|.; . X @   < : < < < < : : y Q.~.a y @ < o     #X#X#X#X#X#X#X#X#X#X#X#X#X#X",
"#X#X#X#X#X#X#X#X#X#X#X#X#X#Xa |.oXOX+X+X@X@X@X@X@X@XQ.@ . . @ . ; : < < < < < : 1 v ~.c a < 1 .     #X#X#X#X#X#X#X#X#X#X#X#X#X#X",
"#X#X#X#X#X#X#X#X#X#X#X#X#X#Xi '.XXoX+X+X@X+X@X+X@X@Xa @ .     X < < < < < < : < y c !.v c i y .   #X#X#X#X#X#X#X#X#X#X#X#X#X#X#X",
"#X#X#X#X#X#X#X#X#X#X#X#X#X#X1 '.XXoXOX+X+X+X+X+XOX~..         o < < < < : < : < y c m ~.v s < .   #X#X#X#X#X#X#X#X#X#X#X#X#X#X#X",
"#X#X#X#X#X#X#X#X#X#X#X#X#X#X@ '.XXXXoXOXOXOXOX!.            <   < < < < < < : 1 y a m ~.Q.y :     #X#X#X#X#X#X#X#X#X#X#X#X#X#X#X",
"#X#X#X#X#X#X#X#X#X#X#X#X#X#Xy ^..XXXoXoXoX_.o .   .   o   o i . < < < < < < < 1 u a c v a 1 ;     #X#X#X#X#X#X#X#X#X#X#X#X#X#X#X",
"#X#X#X#X#X#X#X#X#X:.| Y.}.#Xn v .X.X.XXX|.  @ : @ @     . ; ; . : < < < < < < 1 i a c s i < :     #X#X#X#X#X#X#X#X#X#X#X#X#X#X#X",
"#X#X#X#X#X#X#Xk.| | } 4.R.#X`.i `..X X|.    o X o       . @ . . < : < < < < 1 y i s s a 1 : ;     #X#X#X#X#X#X#X#X#X#X#X#X#X#X#X",
"#X#X#X#X#X#X#X#X#XG ] 3.H.R.{.u.c  X^.    @ o   . . o     . . ; < : < < < < 1 y i a a a y : ;     #X#X#X#X#X#X#X#X#X#X#X#X#X#X#X",
"#X#X#X#X#X#X#X#X#Xy.F ] x.I.7.L.w.u X   s ).!.< : O . .     o : < < < < < 1 1 y i a i i 1 @ @     #X#X#X#X#X#X#X#X#X#X#X#X#X#X#X",
"#X#X#X#X#X#X#X#X#X#X' F ^ z.5.T.Z b o @ oXoX!.i : ; + O   @ < : : : < < 1 1 y u i i i i @ o o   #X#X#X#X#X#X#X#X#X#X#X#X#X#X#X#X",
"#X#X#X#X#X#X#X#X#X#X#X/ F _ h.D.U.[.!.|.oX'.).y a 1 : . . 1 ; : : < : < < 1 y y y y a 1 o o .   #X#X#X#X#X#X#X#X#X#X#X#X#X#X#X#X",
"#X#X#X#X#X#X#X#X#X#X#X#X( F ) g.c.I./.'.|.m c s y ; @ @ y 1 ; ; : : < < 1 1 < < 1 i y ; @ @ X #X#X#X#X#X#X#X#X#X#X#X#X#X#X#X#X#X",
"#X#X#X#X#X#X#X#X#X#X#X#X#XX.E ~ @.$.P.(.!.v n s v y @ ; @ @ ; : : < < < < : : 1 y y < + ; : o o #X#X#X#X#X#X#X#X#X#X#X#X#X#X#X#X",
"#X#X#X#X#X#X#X#X#X#X#X#X#X#X#X! E +.#.2.x c i i v y < o . @ ; : : < : : : < 1 y y < : 1 y y : @ #X#X#X#X#X#X#X#X#X#X#X#X#X#X#X#X",
"#X#X#X#X#X#X#X#X#X#X#X#X#X#X#X#X~ E @.@.E.r o ; 1 < @ @ o @ ; : ; ; : < 1 1 1 < : < 1 a a s i : @ #X#X#X#X#X#X#X#X#X#X#X#X#X#X#X",
"#X#X#X#X#X#X#X#X#X#X#X#X#X#X#X#X#XS E l.x.W.l : : @ o o + @ ; : : < < 1 1 < : : : 1 y i s s a i : ; #X#X#X#X#X#X#X#X#X#X#X#X#X#X",
"#X#X#X#X#X#X#X#X#X#X#X#X#X#X#X#X#X#XS ! G.v.1.9.< # X @ ; : : < < < : : ; ; ; @ : < 1 y i a a i i ; < #X#X#X#X#X#X#X#X#X#X#X#X#X",
"#X#X#X#X#X#X#X#X#X#X#X#X#X#X#X#X#X#X#X~ W c.O.L.k t = . X X o + + + O o o X X O @ : : < < 1 y y i y : #X#X#X#X#X#X#X#X#X#X#X#X#X",
"#X#X#X#X#X#X#X#X#X#X#X#X#X#X#X#X#X#X#X#X/ Q @.O.{ t.(.L 7 7 w k k w - % 2 * 4 u 1 < : ; @ ; : : : < ; ; #X#X#X#X#X#X#X#X#X#X#X#X",
"#X#X#X#X#X#X#X#X#X#X#X#X#X#X#X#X#X#X#X#X#X! F e.F q.#X#X#X#X#XY.R.R.R.Y.:.4.<...` 0.L z z p , @ @ @ @ 1 #X#X#X#X#X#X#X#X#X#X#X#X",
"#X#X#X#X#X#X#X#X#X#X#X#X#X#X#X#X#X#X#X#X#X#X#X#X#X#X#X#X#X#Xj.k.S.A.[ C A S A S S A S J K g d d j : ; #X#X#X#X#X#X#X#X#X#X#X#X#X",
"#X#X#X#X#X#X#X#X#X#X#X#X#X#X#X#X#X#X#X#X#X#X#X#X#X#X#X#X#X#X#X#X#X#X#X#X#X#X#X#X#X#X#X#X#X#X#X#X#X#X#X#X#X#X#X#X#X#X#X#X#X#X#X#X"
};
