/* XPM */
static char *nouveau2[] = {
/* columns rows colors chars-per-pixel */
"64 80 173 2 ",
"   c #030303",
".  c #0C0C0C",
"X  c #110F0E",
"o  c #1F180F",
"O  c #141313",
"+  c #1C1C1B",
"@  c #261F08",
"#  c #281F0B",
"$  c #221C12",
"%  c #25221A",
"&  c #352716",
"*  c #32281D",
"=  c #3D2D1D",
"-  c #242424",
";  c #2B2B2B",
":  c #332A21",
">  c #322D28",
",  c #3E342A",
"<  c #333333",
"1  c #3B3B3B",
"2  c #4C341D",
"3  c #563B22",
"4  c #4D3F31",
"5  c #7F7706",
"6  c #4E4033",
"7  c #4A4339",
"8  c #5D543A",
"9  c #664628",
"0  c #6E4C29",
"q  c #6D553E",
"w  c #7C6C39",
"e  c #434343",
"r  c #4B4B4B",
"t  c #545454",
"y  c #5B5B5B",
"u  c #685847",
"i  c #795E44",
"p  c #69624F",
"a  c #646464",
"s  c #6B6B6B",
"d  c #7C786A",
"f  c #737373",
"g  c #7C7C7C",
"h  c #835E3A",
"j  c #8F6337",
"k  c #8F6338",
"l  c #886645",
"z  c #897E52",
"x  c #A37040",
"c  c #AB7643",
"v  c #AF7A46",
"b  c #B37B47",
"n  c #B37D4A",
"m  c #B49B1B",
"M  c #9E822D",
"N  c #9D8235",
"B  c #A68A2D",
"V  c #AB8E2C",
"C  c #AF912D",
"Z  c #B3942E",
"A  c #BB9C2F",
"S  c #A78C33",
"D  c #A98D33",
"F  c #A68C3D",
"G  c #A88E38",
"H  c #B38C30",
"J  c #AE9132",
"K  c #B19534",
"L  c #BA9C33",
"P  c #B0963A",
"I  c #B79E3F",
"U  c #B89B3E",
"Y  c #BEA22B",
"T  c #C6A92D",
"R  c #CCAF2B",
"E  c #D5B921",
"W  c #DABD2A",
"Q  c #C7A431",
"!  c #C8A533",
"~  c #CEAC3C",
"^  c #D4AE34",
"/  c #D5A63E",
"(  c #D9B336",
")  c #D9BD33",
"_  c #DABF3B",
"`  c #E8BE32",
"'  c #E4BE38",
"]  c #E2C81E",
"[  c #F6E017",
"{  c #FCE11E",
"}  c #DEC02B",
"|  c #DDC23B",
" . c #E7C625",
".. c #EBCB27",
"X. c #E1C329",
"o. c #EDCE28",
"O. c #FDDC26",
"+. c #F3D52F",
"@. c #FCD72B",
"#. c #FBD92A",
"$. c #EEC536",
"%. c #E6CA39",
"&. c #F8CC36",
"*. c #F8CE3C",
"=. c #BF8649",
"-. c #AA934B",
";. c #B09B41",
":. c #AE9752",
">. c #A59B5E",
",. c #AF9A5B",
"<. c #B09B5C",
"1. c #BEA44D",
"2. c #BFA654",
"3. c #BCAA51",
"4. c #8F806F",
"5. c #958C61",
"6. c #988E6C",
"7. c #A1997E",
"8. c #C2864B",
"9. c #CA8E4C",
"0. c #CB9049",
"q. c #CD8E50",
"w. c #D29252",
"e. c #E09C58",
"r. c #D8B64A",
"t. c #C2A851",
"y. c #C7B554",
"u. c #C9B056",
"i. c #F0BA45",
"p. c #F9BF47",
"a. c #F6B84B",
"s. c #FBBF49",
"d. c #EBAC50",
"f. c #F5AA5F",
"g. c #FBAF5E",
"h. c #FCB05B",
"j. c #FBAD61",
"k. c #D6C048",
"l. c #DFC15B",
"z. c #E4CB47",
"x. c #FDC642",
"c. c #F8CF40",
"v. c #FDC049",
"b. c #EFCB51",
"n. c #F9D351",
"m. c #DDC87F",
"M. c #F2D77B",
"N. c #838383",
"B. c #8B8B8B",
"V. c #939393",
"C. c #9D9D9D",
"Z. c #A79684",
"A. c #B1AC99",
"S. c #A3A3A3",
"D. c #A8A7A7",
"F. c #ABABAB",
"G. c #B6B0A3",
"H. c #B4B4B4",
"J. c #BCBCBC",
"K. c #C0B6A5",
"L. c #C7BCAA",
"P. c #E8D698",
"I. c #EEDB9B",
"U. c #FBE084",
"Y. c #C4C4C4",
"T. c #CBCBCB",
"R. c #D4D4D4",
"E. c #DCDCDC",
"W. c #E4E4E4",
"Q. c #ECECEC",
"!. c #F4F4F4",
"~. c #FDFDFD",
"^. c None",
/* pixels */
"^.^.^.^.^.^.^.^.^.^.^.^.^.^.^.^.^.^.^.^.^.^.^.^.^.^.^.^.^.^.^.^.^.^.^.^.^.^.^.^.^.^.^.^.^.^.^.^.^.^.^.^.^.^.^.^.^.^.^.^.^.^.^.^.",
"^.^.^.^.^.^.^.^.^.^.^.^.^.^.^.^.^.^.^.^.^.^.^.^.^.^.^.^.^.^.^.^.^.^.^.^.^.^.^.^.^.^.^.^.^.^.^.^.^.^.^.^.^.^.^.^.^.^.^.^.^.^.^.^.",
"^.^.^.^.^.^.^.^.^.^.^.^.^.^.^.^.^.^.^.^.^.^.^.^.^.^.^.^.^.^.^.^.^.^.^.^.^.^.^.^.^.^.^.^.^.^.^.^.^.^.^.^.^.^.^.^.^.^.^.^.^.^.^.^.",
"^.^.^.^.^.^.^.^.^.^.^.^.^.^.^.^.^.^.^.^.^.^.^.^.^.^.^.^.^.^.^.^.^.^.^.^.^.^.^.^.^.^.^.^.^.^.^.^.^.^.^.^.^.^.^.^.^.^.^.^.^.^.^.^.",
"^.^.^.^.^.^.^.^.^.^.^.^.^.^.^.^.^.^.^.^.^.^.^.^.^.^.^.^.^.^.^.^.^.^.^.^.^.^.^.^.^.^.^.^.^.^.^.^.^.^.^.^.^.^.^.^.^.^.^.^.^.^.^.^.",
"^.^.^.^.^.^.^.^.^.^.^.^.^.^.^.^.^.^.^.^.^.^.^.^.^.^.^.^.^.^.^.^.^.^.^.^.^.^.^.^.^.^.^.^.^.^.^.^.^.^.^.^.^.^.^.^.^.^.^.^.^.^.^.^.",
"^.^.^.^.^.^.^.^.^.^.^.^.^.^.^.^.^.^.^.^.^.^.^.^.^.^.^.^.^.^.^.^.^.^.^.^.^.^.^.^.^.^.^.^.^.^.^.^.^.^.^.^.^.^.^.^.^.^.^.^.^.^.^.^.",
"^.^.^.^.^.^.^.^.^.^.^.^.^.^.^.^.^.^.^.^.^.^.^.^.^.^.^.^.^.^.^.^.^.^.^.^.^.^.^.^.^.^.^.^.^.^.^.^.^.^.^.^.^.^.^.^.^.^.^.^.^.^.^.^.",
"^.^.^.^.^.^.^.^.^.^.^.^.^.^.^.^.^.^.^.^.^.^.^.^.^.^.^.^.^.^.^.^.^.^.^.^.^.^.^.^.^.^.^.^.^.^.^.^.^.^.^.^.^.^.^.^.^.^.^.^.^.^.^.^.",
"^.^.^.^.^.^.^.^.^.^.^.^.^.^.^.^.^.^.^.^.^.^.^.^.^.^.^.^.^.^.^.^.^.^.^.^.^.^.^.^.^.^.^.^.^.^.^.^.^.^.^.^.^.^.^.^.^.^.^.^.^.^.^.^.",
"^.^.^.^.^.^.^.^.^.^.^.^.^.^.^.^.^.^.^.^.^.^.^.^.^.^.^.^.^.^.^.^.^.^.^.^.^.^.^.^.^.^.^.^.^.^.^.^.^.^.^.^.^.^.^.^.^.^.^.^.^.^.^.^.",
"^.^.^.^.^.^.^.^.^.^.^.^.^.^.^.^.^.^.^.^.^.^.^.^.^.^.^.^.^.^.^.^.^.^.^.^.^.^.^.^.^.^.^.^.^.^.^.^.^.^.^.^.^.^.^.^.^.^.^.^.^.^.^.^.",
"^.^.^.^.^.^.^.^.^.^.^.^.^.^.^.^.^.^.^.^.^.^.^.^.^.^.^.^.^.^.^.^.^.^.^.^.^.^.^.^.^.^.^.^.^.^.^.^.^.^.^.^.^.^.^.^.^.^.^.^.^.^.^.^.",
"^.^.^.^.^.^.^.^.^.^.^.^.^.^.^.^.^.^.^.^.^.^.^.^.^.^.^.^.^.^.^.^.. . .     ^.^.^.^.^.^.^.^.^.^.^.^.^.^.^.^.^.^.^.^.^.^.^.^.^.^.^.",
"^.^.^.^.^.^.^.^.^.^.^.^.^.^.^.^.^.^.^.^.^.^.^.^.^.^.^.^.^.. + + + - - - + X .   ^.^.^.^.^.^.^.^.^.^.^.^.^.^.^.^.^.^.^.^.^.^.^.^.",
"^.^.^.^.^.^.^.^.^.^.^.^.^.^.^.^.^.^.^.^.^.^.^.^.^.^.^.  + ; 1 e r t t r e 1 < + . ^.^.^.^.^.^.^.^.^.^.^.^.^.^.^.^.^.^.^.^.^.^.^.",
"^.^.^.^.^.^.^.^.^.^.^.^.^.^.^.^.^.^.^.^.^.^.^.^.^.^.. + < e t t r r e 1 1 1 1 1 ; O ^.^.^.^.^.^.^.^.^.^.^.^.^.^.^.^.^.^.^.^.^.^.",
"^.^.^.^.^.^.^.^.^.^.^.^.^.^.^.^.^.^.^.^.^.^.^.^.^.  O ; e t y t t e < < < < < < 1 ; . ^.^.^.^.^.^.^.^.^.^.^.^.^.^.^.^.^.^.^.^.^.",
"^.^.^.^.^.^.^.^.^.^.^.^.^.^.^.^.^.^.^.^.^.^.^.^.  O - 1 y y y t e 1 < < 1 < 1 < < < + . ^.^.^.^.^.^.^.^.^.^.^.^.^.^.^.^.^.^.^.^.",
"^.^.^.^.^.^.^.^.^.^.^.^.^.^.^.^.^.^.^.^.^.^.^.^.  < ; r y t t t r 1 < 1 1 e s N.t < - . ^.^.^.^.^.^.^.^.^.^.^.^.^.^.^.^.^.^.^.^.",
"^.^.^.^.^.^.^.^.^.^.^.^.^.^.^.^.^.^.^.^.^.^.^.  O < < t t t t t r 1 1 1 < C.T.E.E.s ; O ^.^.^.^.^.^.^.^.^.^.^.^.^.^.^.^.^.^.^.^.",
"^.^.^.^.^.^.^.^.^.^.^.^.^.^.^.^.^.^.^.^.^.^.^.. ; ; e r r y t t r 1 1 ; y T.W.R.J.V.< O . ^.^.^.^.^.^.^.^.^.^.^.^.^.^.^.^.^.^.^.",
"^.^.^.^.^.^.^.^.^.^.^.^.^.^.^.^.^.^.^.^.^.^.^.. < - e r t y y t r e < - f Q.!.a < r 1 + . ^.^.^.^.^.^.^.^.^.^.^.^.^.^.^.^.^.^.^.",
"^.^.^.^.^.^.^.^.^.^.^.^.^.^.^.^.^.^.^.^.^.^.^.O < - r t t y t t r e < ; g !.E.< + ; 1 - . ^.^.^.^.^.^.^.^.^.^.^.^.^.^.^.^.^.^.^.",
"^.^.^.^.^.^.^.^.^.^.^.^.^.^.^.^.^.^.^.^.^.^.^.O < < r t y y t r r e 1 1 C.!.Y.< - > 4 & @ @ ^.^.^.^.^.^.^.^.^.^.^.^.^.^.^.^.^.^.",
"^.^.^.^.^.^.^.^.^.^.^.^.^.^.^.^.^.^.^.^.^.^.^.X ; < e t a y t r e 1 < r C.H.J.t : h / o. .E m 5 ^.^.^.^.^.^.^.^.^.^.^.^.^.^.^.^.",
"^.^.^.^.^.^.^.^.^.^.^.^.^.^.^.^.^.^.^.^.^.^.  . ; e r t y y t r e 1 1 1 t y t u v i.@.#.#.#.O.{ [ ] H 0 & ^.^.^.^.^.^.^.^.^.^.^.",
"^.^.^.^.^.^.^.^.^.^.^.^.^.^.^.^.^.^.^.^.^.^.  . - r r t y t r e 1 < < 1 1 1 ; l e.d.a.p.g.j.j.h.v.x.s.f.c ^.^.^.^.^.^.^.^.^.^.^.",
"^.^.^.^.^.^.^.^.^.^.^.^.^.^.^.^.^.^.^.^.^.^.    - e r r y t r 1 1 < < 1 1 1 - i =.v =.9.9.q.w.w.q.8.c j 3 ^.^.^.^.^.^.^.^.^.^.^.",
"^.^.^.^.^.^.^.^.^.^.^.^.^.^.^.^.^.^.^.^.^.^.^.. + e r e r r e 1 < < 1 1 1 1 - - q n c v b x k 9 2 ^.^.^.^.^.^.^.^.^.^.^.^.^.^.^.",
"^.^.^.^.^.^.^.^.^.^.^.^.^.^.^.^.^.^.^.^.^.^.^.. O < e 1 e e e 1 1 < 1 1 1 1 1 ; + - : = = ^.^.^.^.^.^.^.^.^.^.^.^.^.^.^.^.^.^.^.",
"^.^.^.^.^.^.^.^.^.^.^.^.^.^.^.^.^.^.^.^.^.^.^.X + ; < 1 < ; 1 1 < 1 < < > < > ; - X + - ^.^.^.^.^.^.^.^.^.^.^.^.^.^.^.^.^.^.^.^.",
"^.^.^.^.^.^.^.^.^.^.^.^.^.^.^.^.^.^.^.^.^.^.  O - ; ; ; < ; ; < < < ; - - - - - - ; < ^.^.^.^.^.^.^.^.^.^.^.^.^.^.^.^.^.^.^.^.^.",
"^.^.^.^.^.^.^.^.^.^.^.^.^.^.^.^.^.^.^.^.^.^.  + - < ; ; ; ; ; ; ; - ; - - - + + + ; ; ^.^.^.^.^.^.^.^.^.^.^.^.^.^.^.^.^.^.^.^.^.",
"^.^.^.^.^.^.^.^.^.^.^.^.^.^.^.^.^.^.^.^.^.^.O - ; 1 e e 1 1 < ; ; - - - - - - - ; < ^.^.^.^.^.^.^.^.^.^.^.^.^.^.^.^.^.^.^.^.^.^.",
"^.^.^.^.^.^.^.^.^.^.^.^.^.^.^.^.^.^.^.^.^.X - - 1 t y t e e r e e < < < ; ; ; - 1 ; ^.^.^.^.^.^.^.^.^.^.^.^.^.^.^.^.^.^.^.^.^.^.",
"^.^.^.^.^.^.^.^.^.^.^.^.^.^.^.^.^.^.^.^.^.+ - 1 y a s a y t r r e 1 < ; - - ; - < ;   ^.^.^.^.^.^.^.^.^.^.^.^.^.^.^.^.^.^.^.^.^.",
"^.^.^.^.^.^.^.^.^.^.^.^.^.^.^.^.^.^.^.^.O + < y f g f f a a y t r e < ; - + ; - ; ;   ^.^.^.^.^.^.^.^.^.^.^.^.^.^.^.^.^.^.^.^.^.",
"^.^.^.^.^.^.^.^.^.^.^.^.^.^.^.^.^.^.^.^.O - r a g g f f a y y y t r 1 - - + + + < <   ^.^.^.^.^.^.^.^.^.^.^.^.^.^.^.^.^.^.^.^.^.",
"^.^.^.^.^.^.^.^.^.^.^.^.^.^.^.^.^.^.^.+ + < t s f f s a y t r r e e 1 - - - - + - e - ^.^.^.^.^.^.^.^.^.^.^.^.^.^.^.^.^.^.^.^.^.",
"^.^.^.^.^.^.^.^.^.^.^.^.^.^.^.^.^.^.X + - 1 t s f s a y r r e e 1 1 < - - + - + ; y g ; ^.^.^.^.^.^.^.^.^.^.^.^.^.^.^.^.^.^.^.^.",
"^.^.^.^.^.^.^.^.^.^.^.^.^.^.^.^.^.^.+ - ; e a f f s y t e e 1 1 < ; ; - - - - + 1 H.H.t ^.^.^.^.^.^.^.^.^.^.^.^.^.^.^.^.^.^.^.^.",
"^.^.^.^.^.^.^.^.^.^.^.^.^.^.^.^.^.X + ; 1 t a f f a y r e 1 1 1 ; ; - - + - + + g !.W.B.; ^.^.^.^.^.^.^.^.^.^.^.^.^.^.^.^.^.^.^.",
"^.^.^.^.^.^.^.^.^.^.^.^.^.^.^.^.^.+ ; e e y s f s a r e 1 1 < < ; ; - - - ; + ^.^.~.~.T.s - ^.^.^.^.^.^.^.^.^.^.^.^.^.^.^.^.^.^.",
"^.^.^.^.^.^.^.^.^.^.^.^.^.^.^.^.. - 1 e e a s f a y r e 1 ; ; ; ; - + - - - X ^.~.~.~.!.T.y ^.^.^.^.^.^.^.^.^.^.^.^.^.^.^.^.^.^.",
"^.^.^.^.^.^.^.^.^.^.^.^.^.^.^.^.O - e 1 r y s s a t r 1 1 ; - ; - - - + + O ^.~.~.~.~.~.Q.J.; ^.^.^.^.^.^.^.^.^.^.^.^.^.^.^.^.^.",
"^.^.^.^.^.^.^.^.^.^.^.^.^.^.^.^.X ; < 1 r y y a y r 1 < < < - ; ; - - - - F.~.~.~.~.~.~.!.E.r ^.^.^.^.^.^.^.^.^.^.^.^.^.^.^.^.^.",
"^.^.^.^.^.^.^.^.^.^.^.^.^.^.^.O . < < 1 t y t t r e 1 ; < 1 - ; ; - + + B.~.~.~.~.~.~.~.~.Q.Y.  ^.^.^.^.^.^.^.^.^.^.^.^.^.^.^.^.",
"^.^.^.^.^.^.^.^.^.^.^.^.^.^.^.O O < < < t t r r 1 1 1 < < < + - ; ; + r Q.~.~.~.~.~.~.~.~.!.W.^.^.^.^.^.^.^.^.^.^.^.^.^.^.^.^.^.",
"^.^.^.^.^.^.^.^.^.^.^.^.^.^.^.O O < ; < r t r r 1 + r s y ; - - < - + Y.!.~.~.~.~.~.~.~.~.!.!.C.^.^.^.^.^.^.^.^.^.^.^.^.^.^.^.^.",
"^.^.^.^.^.^.^.^.^.^.^.^.^.^.^.X O e ; ; 1 r r e ; ; 1 N.g < - ; ; + t W.~.~.~.~.~.~.~.~.~.!.~.R.^.^.^.^.^.^.^.^.^.^.^.^.^.^.^.^.",
"^.^.^.^.^.^.^.^.^.^.^.^.^.^.^.. O e e + < 1 e < ; ; t D.J.; ; ; ; - H.!.~.~.~.~.~.~.~.~.~.!.!.E.y ^.^.^.^.^.^.^.^.^.^.^.^.^.^.^.",
"^.^.^.^.^.^.^.^.^.^.^.^.^.^.^.. O r 1 - - < 1 < ; < a V.J.< ; ; ; - E.!.!.~.~.~.~.~.~.~.~.!.~.Q.S.  ^.^.^.^.^.^.^.^.^.^.^.^.^.^.",
"^.^.^.^.^.^.^.^.^.^.^.^.^.^.^.  O r < + O - < ; ; < y N.S.1 ; < - t Q.!.!.~.~.~.~.~.~.~.~.!.!.W.J.- ^.^.^.^.^.^.^.^.^.^.^.^.^.^.",
"^.^.^.^.^.^.^.^.^.^.^.^.^.^.^.  O r r ; O + ; - - < t f C.y ; ; - g Q.!.!.!.~.~.~.~.~.~.~.!.!.W.J.e ^.^.^.^.^.^.^.^.^.^.^.^.^.^.",
"^.^.^.^.^.^.^.^.^.^.^.^.^.^.    O r t t - . O - + e y f B.B.; ; - N.E.Q.!.!.~.~.~.~.~.~.~.!.Q.E.Y.y ^.^.^.^.^.^.^.^.^.^.^.^.^.^.",
"^.^.^.^.^.^.^.^.^.^.^.^.^.^.    . e t t e O . O < r s f V.H.e ; - N.E.Q.!.!.~.~.~.~.~.~.!.!.Q.W.Y.y ^.^.^.^.^.^.^.^.^.^.^.^.^.^.",
"^.^.^.^.^.^.^.^.^.^.^.^.^.^.^.  . 1 t t a + O   - 1 t a g S.N.< - B.R.W.Q.!.~.~.~.!.~.~.!.!.W.E.J.r ^.^.^.^.^.^.^.^.^.^.^.^.^.^.",
"^.^.^.^.^.^.^.^.^.^.^.^.^.^.^.  . < t t a < O X + ; r t s N.V.r ; V.R.Q.Q.!.!.!.!.!.!.!.!.Q.W.E.J.1 ^.^.^.^.^.^.^.^.^.^.^.^.^.^.",
"^.^.^.^.^.^.^.^.^.^.^.^.^.^.^.  . ; e t s t - X . + < r y a f f ; V.Y.W.Q.!.!.!.!.Q.Q.!.Q.W.E.E.J.+ ^.^.^.^.^.^.^.^.^.^.^.^.^.^.",
"^.^.^.^.^.^.^.^.^.^.^.^.^.^.^.  . + 1 r a a t < + . - 1 r y a y ; N.Y.W.W.W.Q.Q.Q.W.W.W.W.E.E.R.C.+ ^.^.^.^.^.^.^.^.^.^.^.^.^.^.",
"^.^.^.^.^.^.^.^.^.^.^.^.^.^.^.  . ; < r y a t r ; O + ; 1 r y s < ^.J.R.R.E.W.W.W.W.W.E.E.R.R.R.a ^.^.^.^.^.^.^.^.^.^.^.^.^.^.^.",
"^.^.^.^.^.^.^.^.^.^.^.^.^.^.^.  X - ; e t y t r e 1 < ; < t y r < ^.Y.Y.R.T.R.R.E.E.E.E.R.R.R.H.; ^.^.^.^.^.^.^.^.^.^.^.^.^.^.^.",
"^.^.^.^.^.^.^.^.^.^.^.^.^.^.^.  X - - e t t t r e 1 < < < ; < < ; t H.H.Y.Y.T.T.T.R.R.T.T.T.Y.s X ^.^.^.^.^.^.^.^.^.^.^.^.^.^.^.",
"^.^.^.^.^.^.^.^.^.^.^.^.^.^.^.  . + + 1 r e t r e e 1 < < < < ; ; a D.F.J.J.Y.Y.T.T.T.Y.Y.T.C.< ^.^.^.^.^.^.^.^.^.^.^.^.^.^.^.^.",
"^.^.^.^.^.^.^.^.^.^.^.^.^.^.^.^.. X O + e e r r e e 1 < < < ; ; ; 1 S.H.J.J.J.Y.Y.T.T.Y.T.D.r + ^.^.^.^.^.^.^.^.^.^.^.^.^.^.^.^.",
"^.^.^.^.^.^.^.^.^.^.^.^.^.^.^.^.e O X O < e e e e e 1 1 < < < ; ; - B.H.Y.J.Y.Y.Y.T.T.Y.J.^.^.^.^.^.^.^.^.^.^.^.^.^.^.^.^.^.^.^.",
"^.^.^.^.^.^.^.^.^.^.^.^.^.^.^.^.^.+ + + + ; < 1 < < 1 < < < ; ; - - y J.J.T.Y.Y.J.Y.Y.F.y e ^.^.U.n.c.^.^.^.^.^.^.^.^.^.^.^.^.^.",
"^.^.^.^.^.^.^.^.^.^.^.^.^.^.^.^.e + ; - X . - ; 1 ; ; < < < < ; ; - - g J.Y.J.H.H.J.J.a y ^.U.&.&.&.&.r.^.^.^.^.^.^.^.^.^.^.^.^.",
"^.^.^.^.^.^.^.^.^.^.^.^.^.^.^.^.+ ; e e +   . ; 1 1 < ; ; ; < r y - + < f C.F.C.g f 1 ; 6.M.&.&.&.` ! ~ ^.^.^.^.^.^.^.^.^.^.^.^.",
"^.^.^.^.^.^.^.^.^.^.^.^.^.^.^.- ; r y t + . O . ; 1 1 1 < < s s a - + + ; 1 t t < + < ^.U.*.$.( Z D V ^.^.^.^.^.^.^.^.^.^.^.^.^.",
"^.^.^.^.^.^.^.^.^.^.^.^.^.^.- - r t y t + X O + O - < 1 1 1 B.C.F.t ; - + + ; 1 ; a I.b.| ^ A M B Z ^.^.^.^.^.^.^.^.^.^.^.^.^.^.",
"^.^.^.^.^.^.^.^.^.^.^.^.^.t - r r t t 1 O X - + O + - - ; a V.N.B.r ; - + + ; r d P.l.Q Z C D L ^.^.^.^.^.^.^.^.^.^.^.^.^.^.^.^.",
"^.^.^.^.^.^.^.^.^.^.^.^.^.; e r e e 1 - . . + O O . X X + D.T.T.C.s % X O O % p t.L V C Z t.^.^.^.^.^.^.^.^.^.^.^.^.^.^.^.^.^.^.",
"^.^.^.^.^.^.^.^.^.^.^.^.r - < ; ; ; + O X . X O + + $ $ 7 G.K.L.Z.4.4 * , 8 w G Z C K u.m.^.^.^.^.^.^.^.^.^.^.^.^.^.^.^.^.^.^.^.",
"^.^.^.^.^.^.^.^.^.^.^.^.1 + + + + ; r y >.A.7.5.z 3._ W ) _ | } } %.z.r.y.;.I 3.U ^.^.^.^.^.^.^.^.^.^.^.^.^.^.^.^.^.^.^.^.^.^.^.",
"^.^.^.^.^.^.^.^.^.^.^.^.^.e 1 t ^.^.^.^.^.1.G K K L R W X.X.X.X.X.} W X.X. .o.+.^.^.^.^.^.^.^.^.^.^.^.^.^.^.^.^.^.^.^.^.^.^.^.^.",
"^.^.^.^.^.^.^.^.^.^.^.^.^.^.^.^.^.^.^.^.P C B M N D K S J J D K L A A Y Y T } #.^.^.^.^.^.^.^.^.^.^.^.^.^.^.^.^.^.^.^.^.^.^.^.^.",
"^.^.^.^.^.^.^.^.^.^.^.^.^.^.^.^.^.^.^.^.J V V G :.,.,.,.<.<.,.,.,.-.F B S Z T %.^.^.^.^.^.^.^.^.^.^.^.^.^.^.^.^.^.^.^.^.^.^.^.^.",
"^.^.^.^.^.^.^.^.^.^.^.^.^.^.^.^.^.^.^.^.^.^.^.^.^.^.^.^.^.^.^.^.^.^.^.^.^.^.^.^.^.^.^.^.^.^.^.^.^.^.^.^.^.^.^.^.^.^.^.^.^.^.^.^."
};
