/* XPM */
static char *nouveau3[] = {
/* columns rows colors chars-per-pixel */
"64 80 228 2 ",
"   c #030303",
".  c #080701",
"X  c #0C0B04",
"o  c #0C0C0C",
"O  c #191406",
"+  c #17150F",
"@  c #141414",
"#  c #1A1715",
"$  c #1A1816",
"%  c #1C1C1C",
"&  c #261F08",
"*  c #281F0B",
"=  c #352716",
"-  c #352F1D",
";  c #3D3210",
":  c #242423",
">  c #2B2B2B",
",  c #342B22",
"<  c #322D28",
"1  c #3E3021",
"2  c #333333",
"3  c #3B3B3B",
"4  c #4E3A26",
"5  c #533A22",
"6  c #503C28",
"7  c #504C0A",
"8  c #6B5B1C",
"9  c #7A7306",
"0  c #4E4033",
"q  c #534334",
"w  c #5D4833",
"e  c #704F2C",
"r  c #695B2D",
"t  c #624A32",
"y  c #6C4D30",
"u  c #695E34",
"i  c #6D553E",
"p  c #755A3E",
"a  c #6B622F",
"s  c #7A6726",
"d  c #7F6635",
"f  c #434343",
"g  c #4A4A46",
"h  c #4B4B4B",
"j  c #535044",
"k  c #585648",
"l  c #5D5949",
"z  c #545454",
"x  c #5B5B5B",
"c  c #685847",
"v  c #615E4D",
"b  c #765D43",
"n  c #795E44",
"m  c #65604B",
"M  c #6D6648",
"N  c #636363",
"B  c #6B6B6B",
"V  c #737373",
"C  c #7B7B7B",
"Z  c #817A08",
"A  c #835E3A",
"S  c #836E28",
"D  c #947627",
"F  c #917A27",
"G  c #94792D",
"H  c #8F6337",
"J  c #866C36",
"K  c #886E36",
"L  c #826839",
"P  c #91653B",
"I  c #8D7234",
"U  c #8D7937",
"Y  c #8E723C",
"T  c #917633",
"R  c #9A7B34",
"E  c #9B7D39",
"W  c #A07F34",
"Q  c #886645",
"!  c #826B54",
"~  c #A37040",
"^  c #AB7644",
"/  c #AE7946",
"(  c #B37B47",
")  c #B37D4A",
"_  c #9C9109",
"`  c #B49B1B",
"'  c #A9A003",
"]  c #9D822D",
"[  c #9D8332",
"{  c #9E843C",
"}  c #A38829",
"|  c #AC912D",
" . c #B19A2E",
".. c #A28334",
"X. c #A48A33",
"o. c #AC8D34",
"O. c #A5863C",
"+. c #AA8539",
"@. c #AE8C38",
"#. c #B38F36",
"$. c #B38B3A",
"%. c #A0913D",
"&. c #AA923F",
"*. c #B59236",
"=. c #BB9730",
"-. c #B49931",
";. c #B49A3D",
":. c #BEAA26",
">. c #C39D34",
",. c #C7AF21",
"<. c #D5B921",
"1. c #D7BA28",
"2. c #CBA23B",
"3. c #D5A63E",
"4. c #D3A83B",
"5. c #E0BF31",
"6. c #E2B539",
"7. c #E7BA3E",
"8. c #E8BB3A",
"9. c #D8CF01",
"0. c #DBCD17",
"q. c #EED61D",
"w. c #EEDA19",
"e. c #F1DD15",
"r. c #F1D51F",
"t. c #FADD1F",
"y. c #F4E30D",
"u. c #FBEB0B",
"i. c #F2E014",
"p. c #FBE217",
"a. c #FDE913",
"s. c #F6E018",
"d. c #FCE11E",
"f. c #FEF11D",
"g. c #E7C625",
"h. c #E2C820",
"j. c #EECD27",
"k. c #F0CF28",
"l. c #E2D22C",
"z. c #F7D526",
"x. c #FCDC24",
"c. c #FCD62C",
"v. c #FCD92B",
"b. c #EBC036",
"n. c #F1C535",
"m. c #FACF34",
"M. c #FBCB38",
"N. c #F3D035",
"B. c #F8D333",
"V. c #F9E63D",
"C. c #B58D44",
"Z. c #BF8649",
"A. c #AC9741",
"S. c #AE964A",
"D. c #B9944B",
"F. c #B49C4A",
"G. c #BAA350",
"H. c #888770",
"J. c #8B8A74",
"K. c #A9926C",
"L. c #BFAD79",
"P. c #C2864B",
"I. c #CA8E4C",
"U. c #C09143",
"Y. c #CB9049",
"T. c #CD8E50",
"R. c #D29252",
"E. c #E09C58",
"W. c #CEA243",
"Q. c #CEA940",
"!. c #C4A048",
"~. c #CFA348",
"^. c #D3A646",
"/. c #DBAB45",
"(. c #DEBE40",
"). c #D8BE49",
"_. c #C3A655",
"`. c #D4B156",
"'. c #E2AF46",
"]. c #E5B341",
"[. c #E9B346",
"{. c #E9B847",
"}. c #F1BC43",
"|. c #F9BF47",
" X c #F6B84B",
".X c #FBBF4A",
"XX c #EBAC50",
"oX c #F5AA5F",
"OX c #FBAF5E",
"+X c #FCB05B",
"@X c #FBAD61",
"#X c #DCC54E",
"$X c #FDC642",
"%X c #FDC049",
"&X c #E3C352",
"*X c #E2C76C",
"=X c #EDD06F",
"-X c #F2D066",
";X c #F4DF6B",
":X c #F8E36A",
">X c #F5E074",
",X c #858585",
"<X c #8E8D84",
"1X c gray55",
"2X c #949494",
"3X c #9D9D9D",
"4X c #ACA384",
"5X c #B1AD99",
"6X c #A3A3A3",
"7X c #ADADAD",
"8X c #B4B4B4",
"9X c #BCBCBC",
"0X c #C7C098",
"qX c #D2C89F",
"wX c #FEF29D",
"eX c #D1C2B5",
"rX c #E2D9AD",
"tX c #FEF2AC",
"yX c #C4C4C4",
"uX c #CBCBCB",
"iX c #D3D3D3",
"pX c #DCDCDC",
"aX c #E4E4E4",
"sX c #ECECEC",
"dX c #F4F1E2",
"fX c #F4F4F4",
"gX c #FDFDFD",
"hX c None",
/* pixels */
"hXhXhXhXhXhXhXhXhXhXhXhXhXhXhXhXhXhXhXhXhXhXhXhXhXhXhXhXhXhXhXhXhXhXhXhXhXhXhXhXhXhXhXhXhXhXhXhXhXhXhXhXhXhXhXhXhXhXhXhXhXhXhXhX",
"hXhXhXhXhXhXhXhXhXhXhXhXhXhXhXhXhXhXhXhXhXhXhXhXhXhXhXhXhXhXhXhXhXhXhXhXhXhXhXhXhXhXhXhXhXhXhXhXhXhXhXhXhXhXhXhXhXhXhXhXhXhXhXhX",
"hXhXhXhXhXhXhXhXhXhXhXhXhXhXhXhXhXhXhXhXhXhXhXhXhXhXhXhXhXhXhXhXhXhXhXhXhXhXhXhXhXhXhXhXhXhXhXhXhXhXhXhXhXhXhXhXhXhXhXhXhXhXhXhX",
"hXhXhXhXhXhXhXhXhXhXhXhXhXhXhXhXhXhXhXhXhXhXhXhXhXhXhXhXhXhXhXhXhXhXhXhXhXhXhXhXhXhXhXhXhXhXhXhXhXhXhXhXhXhXhXhXhXhXhXhXhXhXhXhX",
"hXhXhXhXhXhXhXhXhXhXhXhXhXhXhXhXhXhXhXhXhXhXhXhXhXhXhXhXhXhXhXhXhXhXhXhXhXhXhXhXhXhXhXhXhXhXhXhXhXhXhXhXhXhXhXhXhXhXhXhXhXhXhXhX",
"hXhXhXhXhXhXhXhXhXhXhXhXhXhXhXhXhXhXhXhXhXhXhXhXhXhXhXhXhXhXhXhXhXhXhXhXhXhXhXhXhXhXhXhXhXhXhXhXhXhXhXhXhXhXhXhXhXhXhXhXhXhXhXhX",
"hXhXhXhXhXhXhXhXhXhXhXhXhXhXhXhXhXhXhXhXhXhXhXhXhXhXhXhXhXhXhXhXhXhXhXhXhXhXhXhXhXhXhXhXhXhXhXhXhXhXhXhXhXhXhXhXhXhXhXhXhXhXhXhX",
"hXhXhXhXhXhXhXhXhXhXhXhXhXhXhXhXhXhXhXhXhXhXhXhXhXhXhXhXhXhXhXhXhXhXhXhXhXhXhXhXhXhXhXhXhXhXhXhXhXhXhXhXhXhXhXhXhXhXhXhXhXhXhXhX",
"hXhXhXhXhXhXhXhXhXhXhXhXhXhXhXhXhXhXhXhXhXhXhXhXhXhXhXhXhXhXhXhXhXhXhXhXhXhXhXhXhXhXhXhXhXhXhXhXhXhXhXhXhXhXhXhXhXhXhXhXhXhXhXhX",
"hXhXhXhXhXhXhXhXhXhXhXhXhXhXhXhXhXhXhXhXhXhXhXhXhXhXhXhXhXhXhXhXhXhXhXhXhXhXhXhXhXhXhXhXhXhXhXhXhXhXhXhXhXhXhXhXhXhXhXhXhXhXhXhX",
"hXhXhXhXhXhXhXhXhXhXhXhXhXhXhXhXhXhXhXhXhXhXhXhXhXhXhXhXhXhXhXhXhXhXhXhXhXhXhXhXhXhXhXhXhXhXhXhXhXhXhXhXhXhXhXhXhXhXhXhXhXhXhXhX",
"hXhXhXhXhXhXhXhXhXhXhXhXhXhXhXhXhXhXhXhXhXhXhXhXhXhXhXhXhXhXhXhXhXhXhXhXhXhXhXhXhXhXhXhXhXhXhXhXhXhXhXhXhXhXhXhXhXhXhXhXhXhXhXhX",
"hXhXhXhXhXhXhXhXhXhXhXhXhXhXhXhXhXhXhXhXhXhXhXhXhXhXhXhXhXhXhXhXhXhXhXhXhXhXhXhXhXhXhXhXhXhXhXhXhXhXhXhXhXhXhXhXhXhXhXhXhXhXhXhX",
"hXhXhXhXhXhXhXhXhXhXhXhXhXhXhXhXhXhXhXhXhXhXhXhXhXhXhXhXhXhXhXhXhXhXhXhXhXhXhXhXhXhXhXhXhXhXhXhXhXhXhXhXhXhXhXhXhXhXhXhXhXhXhXhX",
"hXhXhXhXhXhXhXhXhXhXhXhXhXhXhXhXhXhXhXhXhXhXhXhXhXhXhXhXhXhXhXhXhXhXhXhXhXhXhXhXhXhXhXhXhXhXhXhXhXhXhXhXhXhXhXhXhXhXhXhXhXhXhXhX",
"hXhXhXhXhXhXhXhXhXhXhXhXhXhXhXhXhXhXhXhXhXhXhXhXhXhXhXhXhXhXhXhXo o       hXhXhXhXhXhXhXhXhXhXhXhXhXhXhXhXhXhXhXhXhXhXhXhXhXhXhX",
"hXhXhXhXhXhXhXhXhXhXhXhXhXhXhXhXhXhXhXhXhXhXhXhXhXhXhXhXhXo @ % % : : : % @     hXhXhXhXhXhXhXhXhXhXhXhXhXhXhXhXhXhXhXhXhXhXhXhX",
"hXhXhXhXhXhXhXhXhXhXhXhXhXhXhXhXhXhXhXhXhXhXhXhXhXhXhXo % > 3 g h z z h f 3 2 $ o hXhXhXhXhXhXhXhXhXhXhXhXhXhXhXhXhXhXhXhXhXhXhX",
"hXhXhXhXhXhXhXhXhXhXhXhXhXhXhXhXhXhXhXhXhXhXhXhXhXhXo @ 2 h z z h h f 3 3 3 3 3 > @ hXhXhXhXhXhXhXhXhXhXhXhXhXhXhXhXhXhXhXhXhXhX",
"hXhXhXhXhXhXhXhXhXhXhXhXhXhXhXhXhXhXhXhXhXhXhXhXhX  @ > f z x z z f 3 > 2 2 2 2 2 > @ hXhXhXhXhXhXhXhXhXhXhXhXhXhXhXhXhXhXhXhXhX",
"hXhXhXhXhXhXhXhXhXhXhXhXhXhXhXhXhXhXhXhXhXhXhXhX  @ > 2 x x x z f 3 2 2 3 2 3 2 2 2 $ o hXhXhXhXhXhXhXhXhXhXhXhXhXhXhXhXhXhXhXhX",
"hXhXhXhXhXhXhXhXhXhXhXhXhXhXhXhXhXhXhXhXhXhXhXhXo 2 : h x z z h g 3 3 3 3 f V ,Xx 2 : o hXhXhXhXhXhXhXhXhXhXhXhXhXhXhXhXhXhXhXhX",
"hXhXhXhXhXhXhXhXhXhXhXhXhXhXhXhXhXhXhXhXhXhXhX  @ 2 2 z z z z z h 3 3 2 2 2XuXpXpXB > @ hXhXhXhXhXhXhXhXhXhXhXhXhXhXhXhXhXhXhXhX",
"hXhXhXhXhXhXhXhXhXhXhXhXhXhXhXhXhXhXhXhXhXhXhXX > 2 3 z h x x z h f 2 2 x uXaXiX9X2X2 $ o hXhXhXhXhXhXhXhXhXhXhXhXhXhXhXhXhXhXhX",
"hXhXhXhXhXhXhXhXhXhXhXhXhXhXhXhXhXhXhXhXhXhXhXo 2 : h h z z x h h f 2 > V sXfXN 2 z 2 : o hXhXhXhXhXhXhXhXhXhXhXhXhXhXhXhXhXhXhX",
"hXhXhXhXhXhXhXhXhXhXhXhXhXhXhXhXhXhXhXhXhXhXhX@ 2 : h h x z z z h f 3 : C fXpX2 % > 3 % X hXhXhXhXhXhXhXhXhXhXhXhXhXhXhXhXhXhXhX",
"hXhXhXhXhXhXhXhXhXhXhXhXhXhXhXhXhXhXhXhXhXhXhX@ 2 > h z x x z h f f 3 3 6XfXyX2 % < 0 = & * hXhXhXhXhXhXhXhXhXhXhXhXhXhXhXhXhXhX",
"hXhXhXhXhXhXhXhXhXhXhXhXhXhXhXhXhXhXhXhXhXhXhX@ > 2 h z N x z h f 3 2 h 2X8X8Xz , A 3.j.g.<.` 9 hXhXhXhXhXhXhXhXhXhXhXhXhXhXhXhX",
"hXhXhXhXhXhXhXhXhXhXhXhXhXhXhXhXhXhXhXhXhXhX  o > f g z x x h h f 3 3 3 z x z c ) }.c.x.v.v.v.s.s.g.*.e = hXhXhXhXhXhXhXhXhXhXhX",
"hXhXhXhXhXhXhXhXhXhXhXhXhXhXhXhXhXhXhXhXhXhX  o : h h z x z h f 3 2 3 3 3 f > Q E.XX X|.+X@X@X+X%X$X.XoX/ hXhXhXhXhXhXhXhXhXhXhX",
"hXhXhXhXhXhXhXhXhXhXhXhXhXhXhXhXhXhXhXhXhXhX    : f h h x z g f 2 3 2 3 3 2 : n ) ( Z.Y.I.T.R.R.T.P.^ H 5 hXhXhXhXhXhXhXhXhXhXhX",
"hXhXhXhXhXhXhXhXhXhXhXhXhXhXhXhXhXhXhXhXhXhXhXX $ f h f z h f 3 3 2 3 3 3 3 > : i ) ^ ( ) ~ P y 5 hXhXhXhXhXhXhXhXhXhXhXhXhXhXhX",
"hXhXhXhXhXhXhXhXhXhXhXhXhXhXhXhXhXhXhXhXhXhXhXo % 2 f 3 f f f 3 2 2 2 3 3 3 2 > : : , 1 q hXhXhXhXhXhXhXhXhXhXhXhXhXhXhXhXhXhXhX",
"hXhXhXhXhXhXhXhXhXhXhXhXhXhXhXhXhXhXhXhXhXhXhXo % > 2 2 2 2 3 2 3 3 2 2 2 2 > > % @ $ : hXhXhXhXhXhXhXhXhXhXhXhXhXhXhXhXhXhXhXhX",
"hXhXhXhXhXhXhXhXhXhXhXhXhXhXhXhXhXhXhXhXhXhX  @ : > > 2 2 > > 2 2 2 > : : : : : : > 2 hXhXhXhXhXhXhXhXhXhXhXhXhXhXhXhXhXhXhXhXhX",
"hXhXhXhXhXhXhXhXhXhXhXhXhXhXhXhXhXhXhXhXhXhXo % : > > > > > > > > : > : : : % % $ > > hXhXhXhXhXhXhXhXhXhXhXhXhXhXhXhXhXhXhXhXhX",
"hXhXhXhXhXhXhXhXhXhXhXhXhXhXhXhXhXhXhXhXhXhX@ : > 3 h 3 3 2 2 > > : : > : : : % 2 2 hXhXhXhXhXhXhXhXhXhXhXhXhXhXhXhXhXhXhXhXhXhX",
"hXhXhXhXhXhXhXhXhXhXhXhXhXhXhXhXhXhXhXhXhXo : : 3 z x z f f h f f 2 2 > > > > : 2 2 hXhXhXhXhXhXhXhXhXhXhXhXhXhXhXhXhXhXhXhXhXhX",
"hXhXhXhXhXhXhXhXhXhXhXhXhXhXhXhXhXhXhXhXhX% : 3 x B B N x z h h g 3 2 > : : > : 2 >   hXhXhXhXhXhXhXhXhXhXhXhXhXhXhXhXhXhXhXhXhX",
"hXhXhXhXhXhXhXhXhXhXhXhXhXhXhXhXhXhXhXhX@ % 2 z V C V V B N x z h f 2 > : % > : > >   hXhXhXhXhXhXhXhXhXhXhXhXhXhXhXhXhXhXhXhXhX",
"hXhXhXhXhXhXhXhXhXhXhXhXhXhXhXhXhXhXhXhX@ : 2 h B C C B N x x z z h 2 > : % : % 2 2 o hXhXhXhXhXhXhXhXhXhXhXhXhXhXhXhXhXhXhXhXhX",
"hXhXhXhXhXhXhXhXhXhXhXhXhXhXhXhXhXhXhX@ 2 2 2 B C V B N x z h h f f 2 : : % : % : 3 : hXhXhXhXhXhXhXhXhXhXhXhXhXhXhXhXhXhXhXhXhX",
"hXhXhXhXhXhXhXhXhXhXhXhXhXhXhXhXhXhXo % > 2 x B V V B z h f f f 3 2 2 > : % : @ > x C 2 hXhXhXhXhXhXhXhXhXhXhXhXhXhXhXhXhXhXhXhX",
"hXhXhXhXhXhXhXhXhXhXhXhXhXhXhXhXhXhX: : 2 f N B V B x h h f f 3 3 > > : : : > $ 3 8X7Xz hXhXhXhXhXhXhXhXhXhXhXhXhXhXhXhXhXhXhXhX",
"hXhXhXhXhXhXhXhXhXhXhXhXhXhXhXhXhX@ % 2 f x B V V B z h f 3 3 3 2 > : : : : % : C fXaX1X: hXhXhXhXhXhXhXhXhXhXhXhXhXhXhXhXhXhXhX",
"hXhXhXhXhXhXhXhXhXhXhXhXhXhXhXhXhX@ > > z x N B B x z f f 3 2 2 > : : : : : % C sXgXgXiXB : hXhXhXhXhXhXhXhXhXhXhXhXhXhXhXhXhXhX",
"hXhXhXhXhXhXhXhXhXhXhXhXhXhXhXhXo : 3 f h 2 > z B x h f 3 3 > > > : : : : : 3 fXgXgXgXfXuXx hXhXhXhXhXhXhXhXhXhXhXhXhXhXhXhXhXhX",
"hXhXhXhXhXhXhXhXhXhXhXhXhXhXhXhX@ : f 2 2 2 : 2 z z h 3 h 2 > > : : % : % @ gXgXgXgXgXgXsX9XX hXhXhXhXhXhXhXhXhXhXhXhXhXhXhXhXhX",
"hXhXhXhXhXhXhXhXhXhXhXhXhXhXhXhX@ > f 2 > f > 2 z h 3 3 x z > > > : : % : 8XgXgXgXgXgXgXgXpXh hXhXhXhXhXhXhXhXhXhXhXhXhXhXhXhXhX",
"hXhXhXhXhXhXhXhXhXhXhXhXhXhXhX$ @ 2 h 3 > 3 f 2 f 3 2 2 C x 2 > > > % $ 1XgXgXgXgXgXgXgXgXaXyX  hXhXhXhXhXhXhXhXhXhXhXhXhXhXhXhX",
"hXhXhXhXhXhXhXhXhXhXhXhXhXhXhX@ @ 2 h 3 2 > 2 2 2 2 2 3 1XB > > > > $ z aXgXgXgXgXgXgXgXgXfXaXhXhXhXhXhXhXhXhXhXhXhXhXhXhXhXhXhX",
"hXhXhXhXhXhXhXhXhXhXhXhXhXhXhX@ @ 3 x f 2 2 f 2 2 : 2 h V ,X3 > 2 : : yXgXgXgXgXgXgXgXgXgXfXfX3XhXhXhXhXhXhXhXhXhXhXhXhXhXhXhXhX",
"hXhXhXhXhXhXhXhXhXhXhXhXhXhXhXo @ f x z 3 2 2 h : : > 3 x 3XB > > 2 3XaXgXgXgXgXgXgXgXgXgXfXgXuXhXhXhXhXhXhXhXhXhXhXhXhXhXhXhXhX",
"hXhXhXhXhXhXhXhXhXhXhXhXhXhXhXo @ h x z z 3 > f f % : : 2 B 2XC C C iXfXgXgXgXgXgXgXgXgXgXgXgXpXx hXhXhXhXhXhXhXhXhXhXhXhXhXhXhX",
"hXhXhXhXhXhXhXhXhXhXhXhXhXhXhX  @ h x z N h 2 % f 2 : % % 2 h z B ,XsXfXgXgXgXgXgXgXgXgXgXfXgXaX6X  hXhXhXhXhXhXhXhXhXhXhXhXhXhX",
"hXhXhXhXhXhXhXhXhXhXhXhXhXhXhX  @ h x z N x h : @ : 3 > @ % 2 z h g B aXfXgXgXgXgXgXgXgXgXfXfXaX9X% hXhXhXhXhXhXhXhXhXhXhXhXhXhX",
"hXhXhXhXhXhXhXhXhXhXhXhXhXhXhX  @ h z x N z z 3 % % : 2 : : $ % 3 3 3 V fXfXgXgXgXgXgXgXgXfXfXaXyXg hXhXhXhXhXhXhXhXhXhXhXhXhXhX",
"hXhXhXhXhXhXhXhXhXhXhXhXhXhXo   o h z z x z h 3 > > : % : o   % f > f h pXgXgXgXgXgXgXgXgXfXsXaXyXx hXhXhXhXhXhXhXhXhXhXhXhXhXhX",
"hXhXhXhXhXhXhXhXhXhXhXhXhXhX@   o f z z N z h f > > 2 > > $ @ 3 x N x ,XpXgXgXgXgXgXgXgXgXfXsXpXyXz hXhXhXhXhXhXhXhXhXhXhXhXhXhX",
"hXhXhXhXhXhXhXhXhXhXhXhXhXhX>   X 3 z x N z f 3 2 > 2 2 2 2 > 9XaXaXpXiXsXfXgXgXgXgXgXgXfXsXsXpX9Xh hXhXhXhXhXhXhXhXhXhXhXhXhXhX",
"hXhXhXhXhXhXhXhXhXhXhXhXhXhX>     2 z z B z h 3 3 > > 2 2 2 2 yXiXaXpXsXsXfXgXfXfXfXfXfXsXsXsXpX9X3 hXhXhXhXhXhXhXhXhXhXhXhXhXhX",
"hXhXhXhXhXhXhXhXhXhXhXhXhXhXhX    > f z N x h f 3 > 2 > 2 2 2 1XuXyXuXaXsXsXfXfXsXsXsXsXsXsXpXiX9X% hXhXhXhXhXhXhXhXhXhXhXhXhXhX",
"hXhXhXhXhXhXhXhXhXhXhXhXhXhXhX    % 2 z N N z f f > > % 2 2 2 V 9XyXyXpXaXaXsXsXsXaXaXsXsXpXpXiX3X$ hXhXhXhXhXhXhXhXhXhXhXhXhXhX",
"hXhXhXhXhXhXhXhXhXhXhXhXhXhX1X    @ 2 f z x z h 3 2 > % 2 2 > 2 7XiXaXiXiXpXpXaXaXaXaXpXpXiXiXiXB hXhXhXwXV.(.hXhXhXhXhXhXhXhXhX",
"hXhXhXhXhXhXhXhXhXhXhXhXhXhXm     X > 2 f f 3 h f 3 > : > 2 2 2 3XyXuXyXuXuXiXpXpXpXpXpXiXiXiX7X> hXhXtXa.x.z.hXhXhXhXhXhXhXhXhX",
"hXhXhXhXhXhXhXhXhXhXhXhXhX>X#XX     % 2 f f 2 f f 3 > : : 2 2 > B 2X9X9XyXyXyXuXuXiXiXuXuXuXyXB 3 dX;Xv.M.m.,.:.hXhXhXhXhXhXhXhX",
"hXhXhXhXhXhXhXhXhXhXhXhXhXF.N.8 X   $ 2 g 3 3 f f 3 2 : > 2 2 > > 7X8X8X9XyXyXyXuXuXuXyXyXuX3Xg <X:XB.n.6.O.K hXhXhXhXhXhXhXhXhX",
"hXhXhXhXhXhXhXhXhXhXhXhXhXE [ >.O X @ % x h f h x f 2 > > 2 > > > 3 6X8X8X9X9XyXyXuXuXyXyX7XB j #XN.[.W.E I hXhXhXhXhXhXhXhXhXhX",
"hXhXhXhXhXhXhXhXhXhXhXhXhXL.Y @.D ; @ o f B z z x h f 2 2 2 > > > : 2X8XyXyXyXyXyXuXuXyXyX1Xl A.N.%X'.R I hXhXhXhXhXhXhXhXhXhXhX",
"hXhXhXhXhXhXhXhXhXhXhXhXhXhXS.L =.*.s 8 f N x x N h f f 2 2 > > > % x 9X9XuXyXyX9XyXyX7Xz h %.c.}.W.R R hXhXhXhXhXhXhXhXhXhXhXhX",
"hXhXhXhXhXhXhXhXhXhXhXhXhXhXhX{ L 8.b.1.u z N V V z 2 2 2 2 2 > > : % 1X8XyX9X8X8X9X8Xz > M m.}.!.E K hXhXhXhXhXhXhXhXhXhXhXhXhX",
"hXhXhXhXhXhXhXhXhXhXhXhXhXhXhX4XI Y }.g.e.k C V V ,X1XB > > 2 > > : % 2 V 3X7X3XC V 2 o j &X7.D.I T hXhXhXhXhXhXhXhXhXhXhXhXhXhX",
"hXhXhXhXhXhXhXhXhXhXhXhXhXhXhX% r I E {.q.i.V ,X8X8X3XV 2 > : : : : : % > 2 f g : o @ rX-X^.C.T T hXhXhXhXhXhXhXhXhXhXhXhXhXhXhX",
"hXhXhXhXhXhXhXhXhXhXhXhXhXhX: : h U I @./.p.e.H.7X3Xx f 3 2 2 > > > : : : % $ @ o > 0X=X~.C.I [ hXhXhXhXhXhXhXhXhXhXhXhXhXhXhXhX",
"hXhXhXhXhXhXhXhXhXhXhXhXhX2 > h h l ] T 2.].u.l.J.> : : : 2 2 2 2 > > > % $ @ % 3 5X*XC.O.K | hXhXhXhXhXhXhXhXhXhXhXhXhXhXhXhXhX",
"hXhXhXhXhXhXhXhXhXhXhXhXhX: f h f f u ] ] #.6.r.0.9 7 + + @ $ $ $ @ o o o o @ N qX`.C.E d } hXhXhXhXhXhXhXhXhXhXhXhXhXhXhXhXhXhX",
"hXhXhXhXhXhXhXhXhXhXhXhX% > 2 > > > : - F | #./.t.y.9.9 ' _ w b b t 4 6 ! eXhXhX_.2.X.K -.hXhXhXhXhXhXhXhXhXhXhXhXhXhXhXhXhXhXhX",
"hXhXhXhXhXhXhXhXhXhXhXhX$ $ % % $ @ @ 3 S | R ..4.6.%Xk.a.f.hXhXhXhXhXhXhXhXhXhXK.Y [ A.hXhXhXhXhXhXhXhXhXhXhXhXhXhXhXhXhXhXhXhX",
"hXhXhXhXhXhXhXhXhXhXhXhXhX% % % hXhXhXhXhX .X.G R +.$.U.$.*.hXhXhXhXhXhXhXhXhXhXhX;.G.hXhXhXhXhXhXhXhXhXhXhXhXhXhXhXhXhXhXhXhXhX",
"hXhXhXhXhXhXhXhXhXhXhXhXhXhXhXhXhXhXhXhXhXhXhXhXhXhXhXhXhXhXhXhXhXhXhXhXhXhXhXhXhXhXhXhXhXhXhXhXhXhXhXhXhXhXhXhXhXhXhXhXhXhXhXhX"
};
