/* XPM */
static char *nouveauinverse3[] = {
/* columns rows colors chars-per-pixel */
"64 80 228 2 ",
"   c #030303",
".  c #080701",
"X  c #0C0B04",
"o  c #0C0C0C",
"O  c #191406",
"+  c #17150F",
"@  c #141414",
"#  c #1A1715",
"$  c #1A1816",
"%  c #1C1C1C",
"&  c #261F08",
"*  c #281F0B",
"=  c #352716",
"-  c #352F1D",
";  c #3D3210",
":  c #242423",
">  c #2B2B2B",
",  c #342B22",
"<  c #322D28",
"1  c #3E3021",
"2  c #333333",
"3  c #3B3B3B",
"4  c #4E3A26",
"5  c #533A22",
"6  c #503C28",
"7  c #504C0A",
"8  c #6B5B1C",
"9  c #7A7306",
"0  c #4E4033",
"q  c #534334",
"w  c #5D4833",
"e  c #704F2C",
"r  c #695B2D",
"t  c #624A32",
"y  c #6C4D30",
"u  c #695E34",
"i  c #6D553E",
"p  c #755A3E",
"a  c #6B622F",
"s  c #7A6726",
"d  c #7F6635",
"f  c #434343",
"g  c #4A4A46",
"h  c #4B4B4B",
"j  c #535044",
"k  c #585648",
"l  c #5D5949",
"z  c #545454",
"x  c #5B5B5B",
"c  c #685847",
"v  c #615E4D",
"b  c #765D43",
"n  c #795E44",
"m  c #65604B",
"M  c #6D6648",
"N  c #636363",
"B  c #6B6B6B",
"V  c #737373",
"C  c #7B7B7B",
"Z  c #817A08",
"A  c #835E3A",
"S  c #836E28",
"D  c #947627",
"F  c #917A27",
"G  c #94792D",
"H  c #8F6337",
"J  c #866C36",
"K  c #886E36",
"L  c #826839",
"P  c #91653B",
"I  c #8D7234",
"U  c #8D7937",
"Y  c #8E723C",
"T  c #917633",
"R  c #9A7B34",
"E  c #9B7D39",
"W  c #A07F34",
"Q  c #886645",
"!  c #826B54",
"~  c #A37040",
"^  c #AB7644",
"/  c #AE7946",
"(  c #B37B47",
")  c #B37D4A",
"_  c #9C9109",
"`  c #B49B1B",
"'  c #A9A003",
"]  c #9D822D",
"[  c #9D8332",
"{  c #9E843C",
"}  c #A38829",
"|  c #AC912D",
" . c #B19A2E",
".. c #A28334",
"X. c #A48A33",
"o. c #AC8D34",
"O. c #A5863C",
"+. c #AA8539",
"@. c #AE8C38",
"#. c #B38F36",
"$. c #B38B3A",
"%. c #A0913D",
"&. c #AA923F",
"*. c #B59236",
"=. c #BB9730",
"-. c #B49931",
";. c #B49A3D",
":. c #BEAA26",
">. c #C39D34",
",. c #C7AF21",
"<. c #D5B921",
"1. c #D7BA28",
"2. c #CBA23B",
"3. c #D5A63E",
"4. c #D3A83B",
"5. c #E0BF31",
"6. c #E2B539",
"7. c #E7BA3E",
"8. c #E8BB3A",
"9. c #D8CF01",
"0. c #DBCD17",
"q. c #EED61D",
"w. c #EEDA19",
"e. c #F1DD15",
"r. c #F1D51F",
"t. c #FADD1F",
"y. c #F4E30D",
"u. c #FBEB0B",
"i. c #F2E014",
"p. c #FBE217",
"a. c #FDE913",
"s. c #F6E018",
"d. c #FCE11E",
"f. c #FEF11D",
"g. c #E7C625",
"h. c #E2C820",
"j. c #EECD27",
"k. c #F0CF28",
"l. c #E2D22C",
"z. c #F7D526",
"x. c #FCDC24",
"c. c #FCD62C",
"v. c #FCD92B",
"b. c #EBC036",
"n. c #F1C535",
"m. c #FACF34",
"M. c #FBCB38",
"N. c #F3D035",
"B. c #F8D333",
"V. c #F9E63D",
"C. c #B58D44",
"Z. c #BF8649",
"A. c #AC9741",
"S. c #AE964A",
"D. c #B9944B",
"F. c #B49C4A",
"G. c #BAA350",
"H. c #888770",
"J. c #8B8A74",
"K. c #A9926C",
"L. c #BFAD79",
"P. c #C2864B",
"I. c #CA8E4C",
"U. c #C09143",
"Y. c #CB9049",
"T. c #CD8E50",
"R. c #D29252",
"E. c #E09C58",
"W. c #CEA243",
"Q. c #CEA940",
"!. c #C4A048",
"~. c #CFA348",
"^. c #D3A646",
"/. c #DBAB45",
"(. c #DEBE40",
"). c #D8BE49",
"_. c #C3A655",
"`. c #D4B156",
"'. c #E2AF46",
"]. c #E5B341",
"[. c #E9B346",
"{. c #E9B847",
"}. c #F1BC43",
"|. c #F9BF47",
" X c #F6B84B",
".X c #FBBF4A",
"XX c #EBAC50",
"oX c #F5AA5F",
"OX c #FBAF5E",
"+X c #FCB05B",
"@X c #FBAD61",
"#X c #DCC54E",
"$X c #FDC642",
"%X c #FDC049",
"&X c #E3C352",
"*X c #E2C76C",
"=X c #EDD06F",
"-X c #F2D066",
";X c #F4DF6B",
":X c #F8E36A",
">X c #F5E074",
",X c #858585",
"<X c #8E8D84",
"1X c gray55",
"2X c #949494",
"3X c #9D9D9D",
"4X c #ACA384",
"5X c #B1AD99",
"6X c #A3A3A3",
"7X c #ADADAD",
"8X c #B4B4B4",
"9X c #BCBCBC",
"0X c #C7C098",
"qX c #D2C89F",
"wX c #FEF29D",
"eX c #D1C2B5",
"rX c #E2D9AD",
"tX c #FEF2AC",
"yX c #C4C4C4",
"uX c #CBCBCB",
"iX c #D3D3D3",
"pX c #DCDCDC",
"aX c #E4E4E4",
"sX c #ECECEC",
"dX c #F4F1E2",
"fX c #F4F4F4",
"gX c #FDFDFD",
"hX c None",
/* pixels */
"hXhXhXhXhXhXhXhXhXhXhXhXhXhXhXhXhXhXhXhXhXhXhXhXhXhXhXhXhXhXhXhXhXhXhXhXhXhXhXhXhXhXhXhXhXhXhXhXhXhXhXhXhXhXhXhXhXhXhXhXhXhXhXhX",
"hXhXhXhXhXhXhXhXhXhXhXhXhXhXhXhXhXhXhXhXhXhXhXhXhXhXhXhXhXhXhXhXhXhXhXhXhXhXhXhXhXhXhXhXhXhXhXhXhXhXhXhXhXhXhXhXhXhXhXhXhXhXhXhX",
"hXhXhXhXhXhXhXhXhXhXhXhXhXhXhXhXhXhXhXhXhXhXhXhXhXhXhXhXhXhXhXhXhXhXhXhXhXhXhXhXhXhXhXhXhXhXhXhXhXhXhXhXhXhXhXhXhXhXhXhXhXhXhXhX",
"hXhXhXhXhXhXhXhXhXhXhXhXhXhXhXhXhXhXhXhXhXhXhXhXhXhXhXhXhXhXhXhXhXhXhXhXhXhXhXhXhXhXhXhXhXhXhXhXhXhXhXhXhXhXhXhXhXhXhXhXhXhXhXhX",
"hXhXhXhXhXhXhXhXhXhXhXhXhXhXhXhXhXhXhXhXhXhXhXhXhXhXhXhXhXhXhXhXhXhXhXhXhXhXhXhXhXhXhXhXhXhXhXhXhXhXhXhXhXhXhXhXhXhXhXhXhXhXhXhX",
"hXhXhXhXhXhXhXhXhXhXhXhXhXhXhXhXhXhXhXhXhXhXhXhXhXhXhXhXhXhXhXhXhXhXhXhXhXhXhXhXhXhXhXhXhXhXhXhXhXhXhXhXhXhXhXhXhXhXhXhXhXhXhXhX",
"hXhXhXhXhXhXhXhXhXhXhXhXhXhXhXhXhXhXhXhXhXhXhXhXhXhXhXhXhXhXhXhXhXhXhXhXhXhXhXhXhXhXhXhXhXhXhXhXhXhXhXhXhXhXhXhXhXhXhXhXhXhXhXhX",
"hXhXhXhXhXhXhXhXhXhXhXhXhXhXhXhXhXhXhXhXhXhXhXhXhXhXhXhXhXhXhXhXhXhXhXhXhXhXhXhXhXhXhXhXhXhXhXhXhXhXhXhXhXhXhXhXhXhXhXhXhXhXhXhX",
"hXhXhXhXhXhXhXhXhXhXhXhXhXhXhXhXhXhXhXhXhXhXhXhXhXhXhXhXhXhXhXhXhXhXhXhXhXhXhXhXhXhXhXhXhXhXhXhXhXhXhXhXhXhXhXhXhXhXhXhXhXhXhXhX",
"hXhXhXhXhXhXhXhXhXhXhXhXhXhXhXhXhXhXhXhXhXhXhXhXhXhXhXhXhXhXhXhXhXhXhXhXhXhXhXhXhXhXhXhXhXhXhXhXhXhXhXhXhXhXhXhXhXhXhXhXhXhXhXhX",
"hXhXhXhXhXhXhXhXhXhXhXhXhXhXhXhXhXhXhXhXhXhXhXhXhXhXhXhXhXhXhXhXhXhXhXhXhXhXhXhXhXhXhXhXhXhXhXhXhXhXhXhXhXhXhXhXhXhXhXhXhXhXhXhX",
"hXhXhXhXhXhXhXhXhXhXhXhXhXhXhXhXhXhXhXhXhXhXhXhXhXhXhXhXhXhXhXhXhXhXhXhXhXhXhXhXhXhXhXhXhXhXhXhXhXhXhXhXhXhXhXhXhXhXhXhXhXhXhXhX",
"hXhXhXhXhXhXhXhXhXhXhXhXhXhXhXhXhXhXhXhXhXhXhXhXhXhXhXhXhXhXhXhXhXhXhXhXhXhXhXhXhXhXhXhXhXhXhXhXhXhXhXhXhXhXhXhXhXhXhXhXhXhXhXhX",
"hXhXhXhXhXhXhXhXhXhXhXhXhXhXhXhXhXhXhXhXhXhXhXhXhXhXhXhXhXhXhXhXhXhXhXhXhXhXhXhXhXhXhXhXhXhXhXhXhXhXhXhXhXhXhXhXhXhXhXhXhXhXhXhX",
"hXhXhXhXhXhXhXhXhXhXhXhXhXhXhXhXhXhXhXhXhXhXhXhXhXhXhXhXhXhXhXhXhXhXhXhXhXhXhXhXhXhXhXhXhXhXhXhXhXhXhXhXhXhXhXhXhXhXhXhXhXhXhXhX",
"hXhXhXhXhXhXhXhXhXhXhXhXhXhXhXhXhXhXhXhXhXhXhXhXhXhXhX      o o hXhXhXhXhXhXhXhXhXhXhXhXhXhXhXhXhXhXhXhXhXhXhXhXhXhXhXhXhXhXhXhX",
"hXhXhXhXhXhXhXhXhXhXhXhXhXhXhXhXhXhXhXhXhXhXhXhX    @ % : > : % % $ @ hXhXhXhXhXhXhXhXhXhXhXhXhXhXhXhXhXhXhXhXhXhXhXhXhXhXhXhXhX",
"hXhXhXhXhXhXhXhXhXhXhXhXhXhXhXhXhXhXhXhXhXhXhXo $ 2 3 f h z z f f 3 > $   hXhXhXhXhXhXhXhXhXhXhXhXhXhXhXhXhXhXhXhXhXhXhXhXhXhXhX",
"hXhXhXhXhXhXhXhXhXhXhXhXhXhXhXhXhXhXhXhXhXhX@ > 3 3 3 3 3 f f z z z h 2 $ o hXhXhXhXhXhXhXhXhXhXhXhXhXhXhXhXhXhXhXhXhXhXhXhXhXhX",
"hXhXhXhXhXhXhXhXhXhXhXhXhXhXhXhXhXhXhXhXhXo > 3 2 2 2 2 > 3 f z x x z f : $   hXhXhXhXhXhXhXhXhXhXhXhXhXhXhXhXhXhXhXhXhXhXhXhXhX",
"hXhXhXhXhXhXhXhXhXhXhXhXhXhXhXhXhXhXhXhXo % 2 2 2 2 3 3 3 2 3 f h x x x 2 > @   hXhXhXhXhXhXhXhXhXhXhXhXhXhXhXhXhXhXhXhXhXhXhXhX",
"hXhXhXhXhXhXhXhXhXhXhXhXhXhXhXhXhXhXhXhXo : 2 z ,XV 3 3 3 2 f f h z x x h : 2 o hXhXhXhXhXhXhXhXhXhXhXhXhXhXhXhXhXhXhXhXhXhXhXhX",
"hXhXhXhXhXhXhXhXhXhXhXhXhXhXhXhXhXhXhXhX@ > B pXpXuX2X3 2 3 3 h z x z z x 2 2 @   hXhXhXhXhXhXhXhXhXhXhXhXhXhXhXhXhXhXhXhXhXhXhX",
"hXhXhXhXhXhXhXhXhXhXhXhXhXhXhXhXhXhXhXo $ 2 2X9XiXaXuXx > 3 3 g z z x h h 3 2 > o hXhXhXhXhXhXhXhXhXhXhXhXhXhXhXhXhXhXhXhXhXhXhX",
"hXhXhXhXhXhXhXhXhXhXhXhXhXhXhXhXhXhXhXo % 3 z 2 N fXsXV : 3 f h z z x z h f > 2 o hXhXhXhXhXhXhXhXhXhXhXhXhXhXhXhXhXhXhXhXhXhXhX",
"hXhXhXhXhXhXhXhXhXhXhXhXhXhXhXhXhXhXhXo % 3 > $ 2 pXfXC > 2 f h z z z x h h : 2 @ hXhXhXhXhXhXhXhXhXhXhXhXhXhXhXhXhXhXhXhXhXhXhX",
"hXhXhXhXhXhXhXhXhXhXhXhXhXhXhXhXhXhX* & = 0 < % 2 yXfX3X3 3 f g h z x x z h > 2 @ hXhXhXhXhXhXhXhXhXhXhXhXhXhXhXhXhXhXhXhXhXhXhX",
"hXhXhXhXhXhXhXhXhXhXhXhXhXhXhXhXZ ` <.g.k.3.A , z 8X8X3Xg 2 3 f h z x x z h 2 > @ hXhXhXhXhXhXhXhXhXhXhXhXhXhXhXhXhXhXhXhXhXhXhX",
"hXhXhXhXhXhXhXhXhXhXhX= e *.h.s.t.x.v.v.x.v.}.) c z x z 3 3 3 f f z x x z f f > o   hXhXhXhXhXhXhXhXhXhXhXhXhXhXhXhXhXhXhXhXhXhX",
"hXhXhXhXhXhXhXhXhXhXhX/ oX.X$X.X+X@X@XOX|. XXXE.Q < 3 3 3 2 3 3 f h z x z h h : o   hXhXhXhXhXhXhXhXhXhXhXhXhXhXhXhXhXhXhXhXhXhX",
"hXhXhXhXhXhXhXhXhXhXhX5 H ^ P.T.R.R.T.I.Y.P./ ) n > 3 3 3 2 3 2 f h z x h h f : o   hXhXhXhXhXhXhXhXhXhXhXhXhXhXhXhXhXhXhXhXhXhX",
"hXhXhXhXhXhXhXhXhXhXhXhXhXhXhX5 y P ~ ( / / ) i : : 3 3 3 3 2 3 3 f h h f h f %   hXhXhXhXhXhXhXhXhXhXhXhXhXhXhXhXhXhXhXhXhXhXhX",
"hXhXhXhXhXhXhXhXhXhXhXhXhXhXhXhXhXhXhXq 1 < : % > 2 3 3 3 3 2 3 3 f f f 3 f 2 $ o hXhXhXhXhXhXhXhXhXhXhXhXhXhXhXhXhXhXhXhXhXhXhX",
"hXhXhXhXhXhXhXhXhXhXhXhXhXhXhXhXhXhXhXhX: % @ % > > 2 2 2 2 2 2 2 3 2 2 2 2 > % @ hXhXhXhXhXhXhXhXhXhXhXhXhXhXhXhXhXhXhXhXhXhXhX",
"hXhXhXhXhXhXhXhXhXhXhXhXhXhXhXhXhXhXhXhXhX2 > : : : : : : > 2 2 2 > > 2 2 : 2 % @   hXhXhXhXhXhXhXhXhXhXhXhXhXhXhXhXhXhXhXhXhXhX",
"hXhXhXhXhXhXhXhXhXhXhXhXhXhXhXhXhXhXhXhXhX> > $ % % % : : > : > > > > > > 2 2 : % o hXhXhXhXhXhXhXhXhXhXhXhXhXhXhXhXhXhXhXhXhXhX",
"hXhXhXhXhXhXhXhXhXhXhXhXhXhXhXhXhXhXhXhXhXhX2 2 : : : : : : : > > 2 3 3 3 h 3 : : @ hXhXhXhXhXhXhXhXhXhXhXhXhXhXhXhXhXhXhXhXhXhX",
"hXhXhXhXhXhXhXhXhXhXhXhXhXhXhXhXhXhXhXhXhXhX2 2 : > > > 2 2 3 f f h 3 h z x z 3 : : o hXhXhXhXhXhXhXhXhXhXhXhXhXhXhXhXhXhXhXhXhX",
"hXhXhXhXhXhXhXhXhXhXhXhXhXhXhXhXhXhXhXhXhX  > 2 % > : : > 2 3 f h h z x N B B x 3 : % hXhXhXhXhXhXhXhXhXhXhXhXhXhXhXhXhXhXhXhXhX",
"hXhXhXhXhXhXhXhXhXhXhXhXhXhXhXhXhXhXhXhXhX  > 2 : > : : > 2 f h z x N N V V C V x 2 $ $ hXhXhXhXhXhXhXhXhXhXhXhXhXhXhXhXhXhXhXhX",
"hXhXhXhXhXhXhXhXhXhXhXhXhXhXhXhXhXhXhXhXhX  3 2 % : % : > 3 h z z x x N V V C V h 2 : @ hXhXhXhXhXhXhXhXhXhXhXhXhXhXhXhXhXhXhXhX",
"hXhXhXhXhXhXhXhXhXhXhXhXhXhXhXhXhXhXhXhXhX: 3 : % : % : > 2 f f h h z x N V V C N 2 2 2 % hXhXhXhXhXhXhXhXhXhXhXhXhXhXhXhXhXhXhX",
"hXhXhXhXhXhXhXhXhXhXhXhXhXhXhXhXhXhXhXhX2 C x 2 $ : : : : > 3 3 3 h h h z N V V V z > 2 % o hXhXhXhXhXhXhXhXhXhXhXhXhXhXhXhXhXhX",
"hXhXhXhXhXhXhXhXhXhXhXhXhXhXhXhXhXhXhXhXh 7X8X3 % : : % : > > 2 3 f 3 h z x N V V N 3 2 : % hXhXhXhXhXhXhXhXhXhXhXhXhXhXhXhXhXhX",
"hXhXhXhXhXhXhXhXhXhXhXhXhXhXhXhXhXhXhX> 1XaXfXC % : : : : : : 2 3 3 3 f h z N V V N x h 2 % o hXhXhXhXhXhXhXhXhXhXhXhXhXhXhXhXhX",
"hXhXhXhXhXhXhXhXhXhXhXhXhXhXhXhXhXhX% B iXgXfXsXC $ : : : > : > 2 2 3 3 h z x V V x z z 2 2 % hXhXhXhXhXhXhXhXhXhXhXhXhXhXhXhXhX",
"hXhXhXhXhXhXhXhXhXhXhXhXhXhXhXhXhXhXx uXfXgXgXgXfXf : : : % : > > 2 3 3 3 h x B z : 2 z 3 3 % o hXhXhXhXhXhXhXhXhXhXhXhXhXhXhXhX",
"hXhXhXhXhXhXhXhXhXhXhXhXhXhXhXhXhX  9XsXgXgXgXgXgXgX@ % % : : : > > 2 h 3 h z z 3 : 2 > 2 f > @ hXhXhXhXhXhXhXhXhXhXhXhXhXhXhXhX",
"hXhXhXhXhXhXhXhXhXhXhXhXhXhXhXhXhXg pXgXgXgXgXgXgXgX8X: % : : > > 2 z x 3 3 h z 2 > f > 2 f > @ hXhXhXhXhXhXhXhXhXhXhXhXhXhXhXhX",
"hXhXhXhXhXhXhXhXhXhXhXhXhXhXhXhX  yXsXfXgXgXgXgXgXgXfX1X% % > > > 2 x C 2 2 3 f 3 f 3 > 3 h 2 @ @ hXhXhXhXhXhXhXhXhXhXhXhXhXhXhX",
"hXhXhXhXhXhXhXhXhXhXhXhXhXhXhXhXhXaXfXgXgXgXgXgXgXgXgXsXh % > > > 2 B 1X2 2 2 3 2 2 > 2 3 z 2 @ @ hXhXhXhXhXhXhXhXhXhXhXhXhXhXhX",
"hXhXhXhXhXhXhXhXhXhXhXhXhXhXhXhX6XfXfXgXgXgXgXgXgXgXgXfXyX: : 2 > 3 C V h 2 : > 3 3 2 2 f z 3 @ @ hXhXhXhXhXhXhXhXhXhXhXhXhXhXhX",
"hXhXhXhXhXhXhXhXhXhXhXhXhXhXhXhXiXfXfXgXgXgXgXgXgXgXgXgXaX3X2 > > N 3Xz 3 > : : h 2 2 3 z x 3 @ @ hXhXhXhXhXhXhXhXhXhXhXhXhXhXhX",
"hXhXhXhXhXhXhXhXhXhXhXhXhXhXhXx pXgXfXgXgXgXgXgXgXgXgXgXfXiXC C C 2XB 2 : : % f f > 3 z x x h @ o hXhXhXhXhXhXhXhXhXhXhXhXhXhXhX",
"hXhXhXhXhXhXhXhXhXhXhXhXhXhX  6XaXgXfXgXgXgXgXgXgXgXgXgXfXsX,XV z h 2 : % : 2 f % 2 z N z x h @   hXhXhXhXhXhXhXhXhXhXhXhXhXhXhX",
"hXhXhXhXhXhXhXhXhXhXhXhXhXhX: 9XsXfXfXgXgXgXgXgXgXgXfXfXaXB g h z 3 @ @ > f : @ : h x x z x h @   hXhXhXhXhXhXhXhXhXhXhXhXhXhXhX",
"hXhXhXhXhXhXhXhXhXhXhXhXhXhXf 9XaXfXfXgXgXgXgXgXgXgXgXfXV 3 3 3 % % % : 2 : @ % 3 z z N z z h @   hXhXhXhXhXhXhXhXhXhXhXhXhXhXhX",
"hXhXhXhXhXhXhXhXhXhXhXhXhXhXx yXaXsXfXfXgXgXgXgXgXgXfXpXh f > 3 %   @ % % > > > f h z x z x f @   o hXhXhXhXhXhXhXhXhXhXhXhXhXhX",
"hXhXhXhXhXhXhXhXhXhXhXhXhXhXx yXpXsXfXfXgXgXgXgXgXgXfXpX,Xx x N 3 @ @ > > 2 2 > f h z N z z f o   @ hXhXhXhXhXhXhXhXhXhXhXhXhXhX",
"hXhXhXhXhXhXhXhXhXhXhXhXhXhXg 9XpXsXfXfXgXgXfXgXgXgXfXfXiXpXaXsX9X2 2 2 2 2 > 2 3 f z N x z 3     > hXhXhXhXhXhXhXhXhXhXhXhXhXhX",
"hXhXhXhXhXhXhXhXhXhXhXhXhXhX3 9XpXaXsXfXfXfXfXfXfXfXfXsXsXpXaXuXyX2 2 2 2 > : 3 3 g z N z h 2     : hXhXhXhXhXhXhXhXhXhXhXhXhXhX",
"hXhXhXhXhXhXhXhXhXhXhXhXhXhX% 9XpXpXaXsXfXsXsXsXfXfXsXsXaXuXyXuX1X2 2 2 > 2 2 3 f h x N z g :     hXhXhXhXhXhXhXhXhXhXhXhXhXhXhX",
"hXhXhXhXhXhXhXhXhXhXhXhXhXhX$ 3XiXpXpXaXaXsXaXaXsXsXsXaXpXuXyX9XV 2 2 2 % > > 3 g z N N z 3 %     hXhXhXhXhXhXhXhXhXhXhXhXhXhXhX",
"hXhXhXhXhXhXhXhXhX(.V.wXhXhXhXB iXiXpXpXpXaXaXaXaXaXpXiXiXpXuX7X2 2 2 2 % > 2 f g z x z f 2 @     2XhXhXhXhXhXhXhXhXhXhXhXhXhXhX",
"hXhXhXhXhXhXhXhXhXz.x.a.tXhXhX> 8XiXiXiXiXpXpXpXiXiXuXuXyXiXyX3X2 2 2 > > > 3 f h 3 f f 3 > X     v hXhXhXhXhXhXhXhXhXhXhXhXhXhX",
"hXhXhXhXhXhXhXhX,.,.m.M.c.;XdX3 N uXuXuXuXiXpXiXuXuXyXyX9X9X2XN > 2 > : % > 3 f f 2 3 f 2 %     . ).>XhXhXhXhXhXhXhXhXhXhXhXhXhX",
"hXhXhXhXhXhXhXhXhXK O.6.n.B.:X<Xg 3XyXuXyXuXuXuXyXyX9X9X8X8X7X> > 2 2 > : 2 3 h f 3 f f 2 @   . 8 B.F.hXhXhXhXhXhXhXhXhXhXhXhXhX",
"hXhXhXhXhXhXhXhXhXhXI E W.[.B.#Xj N 7XyXyXuXuXyXyX9X9X8X8X6X3 > > 2 > > > 2 f x z f h x % @ X O >.] E hXhXhXhXhXhXhXhXhXhXhXhXhX",
"hXhXhXhXhXhXhXhXhXhXhXI R '..Xm.A.l 1X9XyXuXuXyXyXyX9XyX8X2X: > > 2 2 2 3 f h x z h B f o @ ; G o.K L.hXhXhXhXhXhXhXhXhXhXhXhXhX",
"hXhXhXhXhXhXhXhXhXhXhXhXT E Q.}.B.%.g x 7XyXyX9XyXyXuXyX9Xx % > > > 2 2 f 3 h N x x N f 8 s =.=.L S.hXhXhXhXhXhXhXhXhXhXhXhXhXhX",
"hXhXhXhXhXhXhXhXhXhXhXhXhXK E !.%XB.M > z 8X9X8X8X9XyX9X1X: : > > 2 2 2 2 2 z V V N z a 1.8.8.d { hXhXhXhXhXhXhXhXhXhXhXhXhXhXhX",
"hXhXhXhXhXhXhXhXhXhXhXhXhXhXT I S.7.&Xj o 2 V C 3X7X3XV > % : > > 2 > > B ,X,XC V C z w.5.$XK I 4XhXhXhXhXhXhXhXhXhXhXhXhXhXhXhX",
"hXhXhXhXhXhXhXhXhXhXhXhXhXhXhXT T C.^.-XrX@ @ : f f 2 > % % : > > : > 2 V 3X8X8X,XV i.r.[.E I r % hXhXhXhXhXhXhXhXhXhXhXhXhXhXhX",
"hXhXhXhXhXhXhXhXhXhXhXhXhXhXhXhX[ I C.W.=X0X> o @ $ % % : > : > > > 2 3 f z 2X7XH.w.p./.o.I U z > : hXhXhXhXhXhXhXhXhXhXhXhXhXhX",
"hXhXhXhXhXhXhXhXhXhXhXhXhXhXhXhXhX| J O.C.*X5X3 $ @ $ : : > 2 2 2 2 > > : : : H.l.u.7.>.I [ k h g : 2 hXhXhXhXhXhXhXhXhXhXhXhXhX",
"hXhXhXhXhXhXhXhXhXhXhXhXhXhXhXhXhXhX] d E C.`.qXN @ o o o @ @ @ $ $ $ + + 7 _ 0.z.6.*.] ] u f f g f > hXhXhXhXhXhXhXhXhXhXhXhXhX",
"hXhXhXhXhXhXhXhXhXhXhXhXhXhXhXhXhXhXhX-.J X.2._.hXhXeX! 6 4 t p n w _ ' 9 9.y.x./.o.| F - : : > 2 2 > % hXhXhXhXhXhXhXhXhXhXhXhX",
"hXhXhXhXhXhXhXhXhXhXhXhXhXhXhXhXhXhXhXhXA.[ Y K.hXhXhXhXhXhXhXhXhXhXf.a.j.}.6.4...] | S 3 $ @ $ % % % $ hXhXhXhXhXhXhXhXhXhXhXhX",
"hXhXhXhXhXhXhXhXhXhXhXhXhXhXhXhXhXhXhXhXhXG.;.hXhXhXhXhXhXhXhXhXhXhX*.$.U.@.+.W G X. .hXhXhXhXhX% % % hXhXhXhXhXhXhXhXhXhXhXhXhX",
"hXhXhXhXhXhXhXhXhXhXhXhXhXhXhXhXhXhXhXhXhXhXhXhXhXhXhXhXhXhXhXhXhXhXhXhXhXhXhXhXhXhXhXhXhXhXhXhXhXhXhXhXhXhXhXhXhXhXhXhXhXhXhXhX"
};
