/* XPM */
static char *nouveau5[] = {
/* columns rows colors chars-per-pixel */
"64 80 190 2 ",
"   c #030303",
".  c #0B0B0B",
"X  c #131313",
"o  c #1B1B1B",
"O  c #261F08",
"+  c #281F0B",
"@  c #352716",
"#  c #3C2C1C",
"$  c #232323",
"%  c #2C2C2C",
"&  c #332A21",
"*  c #322D28",
"=  c #33312C",
"-  c #3C3929",
";  c #333333",
":  c #393734",
">  c #3B3935",
",  c #3B3B3B",
"<  c #4C341D",
"1  c #453F2C",
"2  c #563B22",
"3  c #413F39",
"4  c #63591E",
"5  c #7F7706",
"6  c #4F4820",
"7  c #4E4033",
"8  c #43413F",
"9  c #664628",
"0  c #6E4C29",
"q  c #635922",
"w  c #6D553E",
"e  c #75692C",
"r  c #6C6135",
"t  c #7C6A3B",
"y  c #434343",
"u  c #4C4B4B",
"i  c #545454",
"p  c #5A5751",
"a  c #5E5954",
"s  c #5B5B5B",
"d  c #685847",
"f  c #795E44",
"g  c #676050",
"h  c #746752",
"j  c #636363",
"k  c #6E6C65",
"l  c #6B6B6B",
"z  c #747474",
"x  c #7B7B7B",
"c  c #87741D",
"v  c #8C7A1D",
"b  c #835E3A",
"n  c #887523",
"m  c #857128",
"M  c #8C7729",
"N  c #937E2C",
"B  c #8F6337",
"V  c #8F6338",
"C  c #836B38",
"Z  c #8E7732",
"A  c #937B31",
"S  c #987F33",
"D  c #886645",
"F  c #80704D",
"G  c #89774C",
"H  c #8B7A53",
"J  c #A37040",
"K  c #AB7643",
"L  c #AF7A46",
"P  c #B37B47",
"I  c #B37D4A",
"U  c #96821D",
"Y  c #99861A",
"T  c #B49B1B",
"R  c #9A8427",
"E  c #9F8A25",
"W  c #9C852C",
"Q  c #9A8230",
"!  c #A48D25",
"~  c #A48A2C",
"^  c #A79223",
"/  c #AB9523",
"(  c #AF9822",
")  c #AB912A",
"_  c #B09923",
"`  c #A28A30",
"'  c #B38C30",
"]  c #AB9031",
"[  c #B49931",
"{  c #BC9E33",
"}  c #C8AE24",
"|  c #C8A92F",
" . c #D5B921",
".. c #DCBF26",
"X. c #D8B72E",
"o. c #C3A333",
"O. c #C9AC31",
"+. c #C3A23E",
"@. c #D5A63E",
"#. c #D5B233",
"$. c #E1BC34",
"%. c #F0BE3F",
"&. c #E2C81E",
"*. c #F6E017",
"=. c #FCE11E",
"-. c #DCC03A",
";. c #E4C625",
":. c #EECD27",
">. c #E1C12D",
",. c #EECA2D",
"<. c #FDDC26",
"1. c #FCD72B",
"2. c #FDDA2A",
"3. c #EBC13A",
"4. c #F4CF32",
"5. c #F4CC3C",
"6. c #F5D237",
"7. c #FADB36",
"8. c #F6D43C",
"9. c #948252",
"0. c #9A8A51",
"q. c #93825B",
"w. c #BF8649",
"e. c #B9A958",
"r. c #978D6D",
"t. c #B39862",
"y. c #C2864B",
"u. c #CA8E4C",
"i. c #CB9049",
"p. c #CD8E50",
"a. c #D29252",
"s. c #E09C58",
"d. c #CFA643",
"f. c #C4AF44",
"g. c #D6A847",
"h. c #DCB047",
"j. c #D4BE42",
"k. c #D8B24B",
"l. c #D4BF4C",
"z. c #E1B142",
"x. c #E9BC45",
"c. c #E3B24A",
"v. c #E9B94C",
"b. c #F4BD46",
"n. c #F9BF47",
"m. c #F7BB4A",
"M. c #FABF4A",
"N. c #EBAC50",
"B. c #F5AA5F",
"V. c #FBAF5E",
"C. c #E1B45E",
"Z. c #FCB05B",
"A. c #C5A560",
"S. c #D9B667",
"D. c #DDB668",
"F. c #DCBA68",
"G. c #C8B274",
"H. c #C3B47F",
"J. c #FBAD61",
"K. c #EEC448",
"L. c #F6C342",
"P. c #FDC642",
"I. c #FDC049",
"U. c #F5C15D",
"Y. c #F3CD5A",
"T. c #D2C062",
"R. c #E6C260",
"E. c #F1CA6D",
"W. c #E8CF7D",
"Q. c #FCE367",
"!. c #848484",
"~. c #8D8D8D",
"^. c #949494",
"/. c #9D9D9D",
"(. c #B3B09F",
"). c #A4A4A4",
"_. c #ACACAC",
"`. c #B4B4B4",
"'. c #BCBCBC",
"]. c #FEEF9A",
"[. c #C4C4C4",
"{. c #CBCBCB",
"}. c #D4D4D4",
"|. c #DCDCDC",
" X c #E4E4E4",
".X c #EDEDED",
"XX c #FFFAE0",
"oX c #F4F4F4",
"OX c #FDFDFD",
"+X c None",
/* pixels */
"+X+X+X+X+X+X+X+X+X+X+X+X+X+X+X+X+X+X+X+X+X+X+X+X+X+X+X+X+X+X+X+X+X+X+X+X+X+X+X+X+X+X+X+X+X+X+X+X+X+X+X+X+X+X+X+X+X+X+X+X+X+X+X+X",
"+X+X+X+X+X+X+X+X+X+X+X+X+X+X+X+X+X+X+X+X+X+X+X+X+X+X+X+X+X+X+X+X+X+X+X+X+X+X+X+X+X+X+X+X+X+X+X+X+X+X+X+X+X+X+X+X+X+X+X+X+X+X+X+X",
"+X+X+X+X+X+X+X+X+X+X+X+X+X+X+X+X+X+X+X+X+X+X+X+X+X+X+X+X+X+X+X+X+X+X+X+X+X+X+X+X+X+X+X+X+X+X+X+X+X+X+X+X+X+X+X+X+X+X+X+X+X+X+X+X",
"+X+X+X+X+X+X+X+X+X+X+X+X+X+X+X+X+X+X+X+X+X+X+X+X+X+X+X+X+X+X+X+X+X+X+X+X+X+X+X+X+X+X+X+X+X+X+X+X+X+X+X+X+X+X+X+X+X+X+X+X+X+X+X+X",
"+X+X+X+X+X+X+X+X+X+X+X+X+X+X+X+X+X+X+X+X+X+X+X+X+X+X+X+X+X+X+X+X+X+X+X+X+X+X+X+X+X+X+X+X+X+X+X+X+X+X+X+X+X+X+X+X+X+X+X+X+X+X+X+X",
"+X+X+X+X+X+X+X+X+X+X+X+X+X+X+X+X+X+X+X+X+X+X+X+X+X+X+X+X+X+X+X+X+X+X+X+X+X+X+X+X+X+X+X+X+X+X+X+X+X+X+X+X+X+X+X+X+X+X+X+X+X+X+X+X",
"+X+X+X+X+X+X+X+X+X+X+X+X+X+X+X+X+X+X+X+X+X+X+X+X+X+X+X+X+X+X+X+X+X+X+X+X+X+X+X+X+X+X+X+X+X+X+X+X+X+X+X+X+X+X+X+X+X+X+X+X+X+X+X+X",
"+X+X+X+X+X+X+X+X+X+X+X+X+X+X+X+X+X+X+X+X+X+X+X+X+X+X+X+X+X+X+X+X+X+X+X+X+X+X+X+X+X+X+X+X+X+X+X+X+X+X+X+X+X+X+X+X+X+X+X+X+X+X+X+X",
"+X+X+X+X+X+X+X+X+X+X+X+X+X+X+X+X+X+X+X+X+X+X+X+X+X+X+X+X+X+X+X+X+X+X+X+X+X+X+X+X+X+X+X+X+X+X+X+X+X+X+X+X+X+X+X+X+X+X+X+X+X+X+X+X",
"+X+X+X+X+X+X+X+X+X+X+X+X+X+X+X+X+X+X+X+X+X+X+X+X+X+X+X+X+X+X+X+X+X+X+X+X+X+X+X+X+X+X+X+X+X+X+X+X+X+X+X+X+X+X+X+X+X+X+X+X+X+X+X+X",
"+X+X+X+X+X+X+X+X+X+X+X+X+X+X+X+X+X+X+X+X+X+X+X+X+X+X+X+X+X+X+X+X+X+X+X+X+X+X+X+X+X+X+X+X+X+X+X+X+X+X+X+X+X+X+X+X+X+X+X+X+X+X+X+X",
"+X+X+X+X+X+X+X+X+X+X+X+X+X+X+X+X+X+X+X+X+X+X+X+X+X+X+X+X+X+X+X+X+X+X+X+X+X+X+X+X+X+X+X+X+X+X+X+X+X+X+X+X+X+X+X+X+X+X+X+X+X+X+X+X",
"+X+X+X+X+X+X+X+X+X+X+X+X+X+X+X+X+X+X+X+X+X+X+X+X+X+X+X+X+X+X+X+X+X+X+X+X+X+X+X+X+X+X+X+X+X+X+X+X+X+X+X+X+X+X+X+X+X+X+X+X+X+X+X+X",
"+X+X+X+X+X+X+X+X+X+X+X+X+X+X+X+X+X+X+X+X+X+X+X+X+X+X+X+X+X+X+X+X. .       +X+X+X+X+X+X+X+X+X+X+X+X+X+X+X+X+X+X+X+X+X+X+X+X+X+X+X",
"+X+X+X+X+X+X+X+X+X+X+X+X+X+X+X+X+X+X+X+X+X+X+X+X+X+X+X+X+XX X o o $ % $ o X .   +X+X+X+X+X+X+X+X+X+X+X+X+X+X+X+X+X+X+X+X+X+X+X+X",
"+X+X+X+X+X+X+X+X+X+X+X+X+X+X+X+X+X+X+X+X+X+X+X+X+X+X+X. o % , y u u i u y , % o . +X+X+X+X+X+X+X+X+X+X+X+X+X+X+X+X+X+X+X+X+X+X+X",
"+X+X+X+X+X+X+X+X+X+X+X+X+X+X+X+X+X+X+X+X+X+X+X+X+X+X. o = y i i u u y , , , , , % X +X+X+X+X+X+X+X+X+X+X+X+X+X+X+X+X+X+X+X+X+X+X",
"+X+X+X+X+X+X+X+X+X+X+X+X+X+X+X+X+X+X+X+X+X+X+X+X+X  o $ y s s s i y , % ; ; ; ; , % . +X+X+X+X+X+X+X+X+X+X+X+X+X+X+X+X+X+X+X+X+X",
"+X+X+X+X+X+X+X+X+X+X+X+X+X+X+X+X+X+X+X+X+X+X+X+X  X % ; i s s i y ; ; , , , , ; ; ; o . +X+X+X+X+X+X+X+X+X+X+X+X+X+X+X+X+X+X+X+X",
"+X+X+X+X+X+X+X+X+X+X+X+X+X+X+X+X+X+X+X+X+X+X+X+X. ; $ u s s i u u , ; , , , l !.i ; $ . +X+X+X+X+X+X+X+X+X+X+X+X+X+X+X+X+X+X+X+X",
"+X+X+X+X+X+X+X+X+X+X+X+X+X+X+X+X+X+X+X+X+X+X+X  X ; ; i i i i i u , , , ; /.{.|.|.l % X +X+X+X+X+X+X+X+X+X+X+X+X+X+X+X+X+X+X+X+X",
"+X+X+X+X+X+X+X+X+X+X+X+X+X+X+X+X+X+X+X+X+X+X+X  % = y u u s i i u , , % s {. X}.'.^.; X . +X+X+X+X+X+X+X+X+X+X+X+X+X+X+X+X+X+X+X",
"+X+X+X+X+X+X+X+X+X+X+X+X+X+X+X+X+X+X+X+X+X+X+XX ; $ y u s i i i u y ; % z .XoXj ; u , o . +X+X+X+X+X+X+X+X+X+X+X+X+X+X+X+X+X+X+X",
"+X+X+X+X+X+X+X+X+X+X+X+X+X+X+X+X+X+X+X+X+X+X+XX ; $ u u s s s i u y ; $ x oX|.; o % , $ . +X+X+X+X+X+X+X+X+X+X+X+X+X+X+X+X+X+X+X",
"+X+X+X+X+X+X+X+X+X+X+X+X+X+X+X+X+X+X+X+X+X+X+XX ; % u i s s s u u y , , ).oX{.; $ * 1 @ O + +X+X+X+X+X+X+X+X+X+X+X+X+X+X+X+X+X+X",
"+X+X+X+X+X+X+X+X+X+X+X+X+X+X+X+X+X+X+X+X+X+X+XX % ; u i s s i u y , ; u ^.`.`.i & b g.:.;. .T c +X+X+X+X+X+X+X+X+X+X+X+X+X+X+X+X",
"+X+X+X+X+X+X+X+X+X+X+X+X+X+X+X+X+X+X+X+X+X+X  . % y y i s s u u y , , , i s i d L x.1.<.2.2.2.=.*.&.' 0 @ +X+X+X+X+X+X+X+X+X+X+X",
"+X+X+X+X+X+X+X+X+X+X+X+X+X+X+X+X+X+X+X+X+X+X  . $ u u i s s u y , ; ; , , , * D s.N.m.I.V.V.V.Z.I.P.M.B.K +X+X+X+X+X+X+X+X+X+X+X",
"+X+X+X+X+X+X+X+X+X+X+X+X+X+X+X+X+X+X+X+X+X+X    $ y u u s i u , , > ; , , , % f I P y.i.u.p.a.a.a.y.K B 2 +X+X+X+X+X+X+X+X+X+X+X",
"+X+X+X+X+X+X+X+X+X+X+X+X+X+X+X+X+X+X+X+X+X+X+X. o y u y u u u , ; ; , , , , $ $ w I K L P J V 9 < +X+X+X+X+X+X+X+X+X+X+X+X+X+X+X",
"+X+X+X+X+X+X+X+X+X+X+X+X+X+X+X+X+X+X+X+X+X+X+X. o ; y , y y y , , ; ; , , ; ; % o $ & # # +X+X+X+X+X+X+X+X+X+X+X+X+X+X+X+X+X+X+X",
"+X+X+X+X+X+X+X+X+X+X+X+X+X+X+X+X+X+X+X+X+X+X+X. o % ; ; ; = ; , , ; ; ; ; ; ; % $ X o $ +X+X+X+X+X+X+X+X+X+X+X+X+X+X+X+X+X+X+X+X",
"+X+X+X+X+X+X+X+X+X+X+X+X+X+X+X+X+X+X+X+X+X+X  X $ ; % ; ; % % % ; ; % $ $ $ $ $ $ % % +X+X+X+X+X+X+X+X+X+X+X+X+X+X+X+X+X+X+X+X+X",
"+X+X+X+X+X+X+X+X+X+X+X+X+X+X+X+X+X+X+X+X+X+X  o $ % % % % % % % % % % $ $ $ o o o % % +X+X+X+X+X+X+X+X+X+X+X+X+X+X+X+X+X+X+X+X+X",
"+X+X+X+X+X+X+X+X+X+X+X+X+X+X+X+X+X+X+X+X+X+XX $ $ y u , , , ; % % % $ $ $ $ $ $ % ; +X+X+X+X+X+X+X+X+X+X+X+X+X+X+X+X+X+X+X+X+X+X",
"+X+X+X+X+X+X+X+X+X+X+X+X+X+X+X+X+X+X+X+X+XX $ $ , i s i y y u y , ; ; = % % % $ , % +X+X+X+X+X+X+X+X+X+X+X+X+X+X+X+X+X+X+X+X+X+X",
"+X+X+X+X+X+X+X+X+X+X+X+X+X+X+X+X+X+X+X+X+Xo $ , s l l j s i u u y , ; % $ $ % $ ; %   +X+X+X+X+X+X+X+X+X+X+X+X+X+X+X+X+X+X+X+X+X",
"+X+X+X+X+X+X+X+X+X+X+X+X+X+X+X+X+X+X+X+XX o , s z z z l l s s i u y ; % $ $ $ $ ; %   +X+X+X+X+X+X+X+X+X+X+X+X+X+X+X+X+X+X+X+X+X",
"+X+X+X+X+X+X+X+X+X+X+X+X+X+X+X+X+X+X+X+XX $ u j z x x l j j s i i y ; % $ o $ o ; ;   +X+X+X+X+X+X+X+X+X+X+X+X+X+X+X+X+X+X+X+X+X",
"+X+X+X+X+X+X+X+X+X+X+X+X+X+X+X+X+X+X+Xo X ; i l x x l j s i u u y y , $ $ $ $ o $ , % +X+X+X+X+X+X+X+X+X+X+X+X+X+X+X+X+X+X+X+X+X",
"+X+X+X+X+X+X+X+X+X+X+X+X+X+X+X+X+X+X. o $ , i j z z j i u u y y y , ; $ o $ $ X ; s x % +X+X+X+X+X+X+X+X+X+X+X+X+X+X+X+X+X+X+X+X",
"+X+X+X+X+X+X+X+X+X+X+X+X+X+X+X+X+X+Xo $ ; , y y u i s i y y y , ; % % $ $ $ % $ , `._.i +X+X+X+X+X+X+X+X+X+X+X+X+X+X+X+X+X+X+X+X",
"+X+X+X+X+X+X+X+X+X+X+X+X+X+X+X+X+X. $ = , u y y y s u u y , , ; % % $ $ o $ $ y !.oX X~.$ +X+X+X+X+X+X+X+X+X+X+X+X+X+X+X+X+X+X+X",
"+X+X+X+X+X+X+X+X+X+X+X+X+X+X+X+X+Xo % , y y , , y , y y y , , ; % % $ $ $ % % _..XoXOX}.z o +X+X+X+X+X+X+X+X+X+X+X+X+X+X+X+X+X+X",
"+X+X+X+X+X+X+X+X+X+X+X+X+X+X+X+X. $ y y u , ; y % , y y y ; ; ; % $ $ $ $ o x OXOXOXOXoX{.s +X+X+X+X+X+X+X+X+X+X+X+X+X+X+X+X+X+X",
"+X+X+X+X+X+X+X+X+X+X+X+X+X+X+X+XX $ y u u ; % % , ; , , ; ; ; % $ $ $ X o X OXOXOXOXOXOX.X'.  +X+X+X+X+X+X+X+X+X+X+X+X+X+X+X+X+X",
"+X+X+X+X+X+X+X+X+X+X+X+X+X+X+X+XX % i i u ; $ % ; , , ; ; , % % % $ o X . ~.OXOXOXOXOXOXoX|.u +X+X+X+X+X+X+X+X+X+X+X+X+X+X+X+X+X",
"+X+X+X+X+X+X+X+X+X+X+X+X+X+X+XX X ; i s u $ $ % % ; , ; ; y u % % $ X . y  XOXOXOXOXOXOXOX.X[.  +X+X+X+X+X+X+X+X+X+X+X+X+X+X+X+X",
"+X+X+X+X+X+X+X+X+X+X+X+X+X+X+Xo X , i j u o o % % , y , , u % % % $ X o ~.OXOXOXOXOXOXOXOXoX X+X+X+X+X+X+X+X+X+X+X+X+X+X+X+X+X+X",
"+X+X+X+X+X+X+X+X+X+X+X+X+X+X+XX X , s s , X X $ , ; u ; i % % % ; $ . , '.OXOXOXOXOXOXOXOXoXoX/.+X+X+X+X+X+X+X+X+X+X+X+X+X+X+X+X",
"+X+X+X+X+X+X+X+X+X+X+X+X+X+X+X. o y s s % . X $ , u y i , ; % % % X X ; OXOXOXOXOXOXOXOXOXoXoX}.+X+X+X+X+X+X+X+X+X+X+X+X+X+X+X+X",
"+X+X+X+X+X+X+X+X+X+X+X+X+X+X+X. X y s i $ . X , u l s i % ; % % % X o s OXOXOXOXOXOXOXOXOXoXOX|.s +X+X+X+X+X+X+X+X+X+X+X+X+X+X+X",
"+X+X+X+X+X+X+X+X+X+X+X+X+X+X+X. X u s i X . . y i j l y ; ; ; % % o X z oXOXOXOXOXOXOXOXOXoXOX X).  +X+X+X+X+X+X+X+X+X+X+X+X+X+X",
"+X+X+X+X+X+X+X+X+X+X+X+X+X+X+X. X u s i $ . X y u j !.; ; ; % % $ X X x oXOXOXOXOXOXOXOXOXoXoX.X'.o +X+X+X+X+X+X+X+X+X+X+X+X+X+X",
"+X+X+X+X+X+X+X+X+X+X+X+X+X+X+X. X u s i $   X y i ^.s ; ; ; % % $ X . z oXoXOXOXOXOXOXOXOXoXoX X[.y +X+X+X+X+X+X+X+X+X+X+X+X+X+X",
"+X+X+X+X+X+X+X+X+X+X+X+X+X+X  . X y i i %   X u u !.i ; % ; % ; $ X   x oXoXOXOXOXOXOXOXoXoX.X X[.s +X+X+X+X+X+X+X+X+X+X+X+X+X+X",
"+X+X+X+X+X+X+X+X+X+X+X+X+X+X  . . y i i , . . u z !., ; ; ; % ; $ $   , oXoXOXOXOXOXOXOXoXoX.X|.[.i +X+X+X+X+X+X+X+X+X+X+X+X+X+X",
"+X+X+X+X+X+X+X+X+X+X+X+X+X+X+XX . , i i u . . y x ~.; ; ; ; ; % $ o   X .XoXOXOXOXoXOXOXoXoX.X|.'.u +X+X+X+X+X+X+X+X+X+X+X+X+X+X",
"+X+X+X+X+X+X+X+X+X+X+X+X+X+X+X. . ; u i u o . u j j ; ; ; ; ; % % ;   o .XoXoXOXoXoXoXoX.X.X X|.'., +X+X+X+X+X+X+X+X+X+X+X+X+X+X",
"+X+X+X+X+X+X+X+X+X+X+X+X+X+X+X  . % y i l % $ s z s ; ; ; ; ; ; % , X . ^..XoXoXoX.X.X.X.X.X|.}.'.o +X+X+X+X+X+X+X+X+X+X+X+X+X+X",
"+X+X+X+X+X+X+X+X+X+X+X+X+X+X+X  . $ , i j u , z ^.u ; ; ; ; ; ; ; ; X X ;  X.X.X.X X X X X|.|.|./.X +X+X+X+X+X+X+X+X+X+X+X+X+X+X",
"+X+X+X+X+X+X+X+X+X+X+X+X+X+X+X  . $ ; y s j y l j , ; ; ; ; = = o o X y ; |. X X X X X X|.}.}.}.l +X+X+X+X+X+X+X+X+X+X+X+X+X+X+X",
"+X+X+X+X+X+X+X+X+X+X+X+X+X+X+X  X $ % y i j i y y , ; ; ; ; ; ; o X . ; $ {.}.}.|.|.|.}.}.}.}._.% +X+X+X+X+X+X+X+X+X+X+X+X+X+X+X",
"+X+X+X+X+X+X+X+X+X+X+X+X+X+X+X  X $ % y u i i u y , ; ; ; % ; % $ . .   X [.{.{.}.}.}.{.{.{.{.j X +X+X+X+X+X+X+X+X+X+X+X+X+X+X+X",
"+X+X+X+X+X+X+X+X+X+X+X+X+X+X+X    o o ; u u i i y y , ; ; ; ; % $ . .   , /.'.[.{.{.{.[.{.[./., +X+X+X+X+X+X+X+X+X+X+X+X+X+X+X+X",
"+X+X+X+X+X+X+X+X+X+X+X+X+X+X+X+X  X X $ u y y u y y , ; ; ; % % o . X   $ ^.'.[.[.{.{.[.[._.u +X+X+X+X+X+X+X+X+X+X+X+X+X+X+X+X+X",
"+X+X+X+X+X+X+X+X+X+X+X+X+X+X+X+X  X X X , i y y y y , , ; ; ; % X X X o . ~.[.[.[.[.{.[.[.^.+X+X+X+X+X+X+X+X+X+X+X+X+X+X+X+X+X+X",
"+X+X+X+X+X+X+X+X+X+X+X+X+X+X+X+X+XX o o $ u u y ; ; , ; ; ; , ; o $ u ; . x [.[.'.[.[.`.x s +X+X+X+X+X+X+X+X+X+X+X+X+X+X+X+X+X+X",
"+X+X+X+X+X+X+X+X+X+X+X+X+X+X+X+Xo o % % o % y y ; ; % ; ; u j , j !.).!.. u '.`.`.'.`.l % +X+X+X+X+X+X+X+X+X+X+X+X+X+X+X+X+X+X+X",
"+X+X+X+X+X+X+X+X+X+X+X+X+X+X+X+XX % , u ; % ; , y , ; % , i z x !.'. X{., ; _./.x z y % +X+X+X+X+X+X+X+X+X+X+X+X+X+X+X+X+X+X+X+X",
"+X+X+X+X+X+X+X+X+X+X+X+X+X+X+Xo = u s i u , ; = ; , y ; y u s !.!._.|. X~.a h g e 4 6 +X+X+X+X+X+X+X+X+X+X+X+X+X+X+X+X+X+X+X+X+X",
"+X+X+X+X+X+X+X+X+X+X+X+X+X+X$ $ u i s s i y , % % 3 r t t r r.H.G.F.R.E.F.C.U.b.3.4.7.+X+X+X+X+X+X+X+X+X+X+X+X+X+X+X+X+X+X+X+X+X",
"+X+X+X+X+X+X+X+X+X+X+X+X+X% % u u i i u y , = - ^ #.o.X.{ { d.d.g.$.b.L.M.m.b.I.L.L.5.7.+X+X+X+X+X+X+X+X+X+X+X+X+X+X+X+X+X+X+X+X",
"+X+X+X+X+X+X+X+X+X+X+X+X+X% y u y y , ; ; ; % q ,.~ Z S S S Z Z Q Q ` ~ ` ` ] [ o.| O.-.+X+X+X+X+X+X+X+X+X+X+X+X+X+X+X+X+X+X+X+X",
"+X+X+X+X+X+X+X+X+X+X+X+Xo % ; % % % $ o X X o % e Y U v c c n m M N R W Z N A A N C +X+X+X+X+X+X+X+X+X+X+X+X+X+X+X+X+X+X+X+X+X+X",
"+X+X+X+X+X+X+X+X+X+X+X+XX o o o o % y z u 3 y 8 : : > : : ; = = 3 p k (.XX+X+X+X+X+X+X+X+X+X+X+X+X+X+X+X+X+X+X+X+X+X+X+X+X+X+X+X",
"+X+X+X+X+X+X+X+X+X+X+X+X+Xo o +X+X+X+X+XT.j.l.0.9.G h H 9.q.H H 9.t.A.S.Y.8.8.].+X+X+X+X+X+X+X+X+X+X+X+X+X+X+X+X+X+X+X+X+X+X+X+X",
"+X+X+X+X+X+X+X+X+X+X+X+X+X+X+X+X+X+X+X+Xe.E } ;...>.3.3.$.x.x.h.c.v.c.c.v.K.5.6.Q.+X+X+X+X+X+X+X+X+X+X+X+X+X+X+X+X+X+X+X+X+X+X+X",
"+X+X+X+X+X+X+X+X+X+X+X+X+X+X+X+X+X+X+X+Xf.E ^ ! ^ / / _ _ _ _ ! ) ) ~ ! ~ ^ +.k.W.+X+X+X+X+X+X+X+X+X+X+X+X+X+X+X+X+X+X+X+X+X+X+X",
"+X+X+X+X+X+X+X+X+X+X+X+X+X+X+X+X+X+X+X+X+X+X+X+X+X+X+X+X+X+X+X+X+X+X+X+X+X+X+X+X+X+X+X+X+X+X+X+X+X+X+X+X+X+X+X+X+X+X+X+X+X+X+X+X"
};
