/* XPM */
static char *nouveauinverse1[] = {
/* columns rows colors chars-per-pixel */
"64 80 136 2 ",
"   c #030303",
".  c #0E0A07",
"X  c #0C0C0C",
"o  c #100F0F",
"O  c #1A120A",
"+  c #141414",
"@  c #1E1C12",
"#  c #1C1C1C",
"$  c #261F08",
"%  c #281F0B",
"&  c #352716",
"*  c #362E19",
"=  c #3C2C1C",
"-  c #373114",
";  c #3C331C",
":  c #242424",
">  c #2C2C2C",
",  c #332A21",
"<  c #322D28",
"1  c #333333",
"2  c #3B3B3B",
"3  c #4C341D",
"4  c #443A1C",
"5  c #563B22",
"6  c #4A4019",
"7  c #574B14",
"8  c #7F7706",
"9  c #514620",
"0  c #4E4033",
"q  c #664628",
"w  c #6E4C29",
"e  c #6D553E",
"r  c #434343",
"t  c #4B4B4B",
"y  c #545454",
"u  c #5B5B5B",
"i  c #685847",
"p  c #795E44",
"a  c #636363",
"s  c #6C6C6C",
"d  c #747474",
"f  c #7A7A7A",
"g  c #835E3A",
"h  c #8F6337",
"j  c #8F6338",
"k  c #886645",
"l  c #A37040",
"z  c #AB7643",
"x  c #AF7A46",
"c  c #B37B47",
"v  c #B37D4A",
"b  c #97841D",
"n  c #98851E",
"m  c #B49B1B",
"M  c #9D8724",
"N  c #9E852A",
"B  c #A38B25",
"V  c #A68C2B",
"C  c #AA8E2C",
"Z  c #AB9225",
"A  c #AF9B25",
"S  c #AD922E",
"D  c #B19B20",
"F  c #B4992B",
"G  c #BA9E2C",
"H  c #A08D35",
"J  c #B38C30",
"K  c #AD9130",
"L  c #B59C3C",
"P  c #BDA12A",
"I  c #BBA030",
"U  c #C4A82C",
"Y  c #CEB12A",
"T  c #D5B921",
"R  c #D6B92A",
"E  c #C6AA31",
"W  c #C4AC3A",
"Q  c #D5A63E",
"!  c #E2C81E",
"~  c #F6E017",
"^  c #FCE11E",
"/  c #DEC12C",
"(  c #E7C625",
")  c #EECD27",
"_  c #E1C42E",
"`  c #EDCE28",
"'  c #FDDC26",
"]  c #F2D329",
"[  c #FCD72B",
"{  c #FDDA2A",
"}  c #E4C731",
"|  c #E0C63D",
" . c #FADD34",
".. c #FBDF3F",
"X. c #BF8649",
"o. c #BAB074",
"O. c #C2864B",
"+. c #CA8E4C",
"@. c #CB9049",
"#. c #CD8E50",
"$. c #D29252",
"%. c #E09C58",
"&. c #F0BA45",
"*. c #F9BF47",
"=. c #F6B84B",
"-. c #FBBF49",
";. c #EBAC50",
":. c #F5AA5F",
">. c #FBAF5E",
",. c #FCB05B",
"<. c #FBAD61",
"1. c #FDC642",
"2. c #FDC049",
"3. c #FCE147",
"4. c #FCE148",
"5. c #FDE352",
"6. c #FBE465",
"7. c #858585",
"8. c #8E8E8E",
"9. c #939393",
"0. c #9B9B9B",
"q. c #A4A4A4",
"w. c #ABABAB",
"e. c #B1B0A4",
"r. c #B4B4B4",
"t. c #BBBBBB",
"y. c #C4C4C4",
"u. c #CDCCC7",
"i. c #CBCBCB",
"p. c #D4D4D4",
"a. c #DCDCDC",
"s. c #E4E4E4",
"d. c #ECECEC",
"f. c #F4F4F4",
"g. c #FDFDFD",
"h. c None",
/* pixels */
"h.h.h.h.h.h.h.h.h.h.h.h.h.h.h.h.h.h.h.h.h.h.h.h.h.h.h.h.h.h.h.h.h.h.h.h.h.h.h.h.h.h.h.h.h.h.h.h.h.h.h.h.h.h.h.h.h.h.h.h.h.h.h.h.",
"h.h.h.h.h.h.h.h.h.h.h.h.h.h.h.h.h.h.h.h.h.h.h.h.h.h.h.h.h.h.h.h.h.h.h.h.h.h.h.h.h.h.h.h.h.h.h.h.h.h.h.h.h.h.h.h.h.h.h.h.h.h.h.h.",
"h.h.h.h.h.h.h.h.h.h.h.h.h.h.h.h.h.h.h.h.h.h.h.h.h.h.h.h.h.h.h.h.h.h.h.h.h.h.h.h.h.h.h.h.h.h.h.h.h.h.h.h.h.h.h.h.h.h.h.h.h.h.h.h.",
"h.h.h.h.h.h.h.h.h.h.h.h.h.h.h.h.h.h.h.h.h.h.h.h.h.h.h.h.h.h.h.h.h.h.h.h.h.h.h.h.h.h.h.h.h.h.h.h.h.h.h.h.h.h.h.h.h.h.h.h.h.h.h.h.",
"h.h.h.h.h.h.h.h.h.h.h.h.h.h.h.h.h.h.h.h.h.h.h.h.h.h.h.h.h.h.h.h.h.h.h.h.h.h.h.h.h.h.h.h.h.h.h.h.h.h.h.h.h.h.h.h.h.h.h.h.h.h.h.h.",
"h.h.h.h.h.h.h.h.h.h.h.h.h.h.h.h.h.h.h.h.h.h.h.h.h.h.h.h.h.h.h.h.h.h.h.h.h.h.h.h.h.h.h.h.h.h.h.h.h.h.h.h.h.h.h.h.h.h.h.h.h.h.h.h.",
"h.h.h.h.h.h.h.h.h.h.h.h.h.h.h.h.h.h.h.h.h.h.h.h.h.h.h.h.h.h.h.h.h.h.h.h.h.h.h.h.h.h.h.h.h.h.h.h.h.h.h.h.h.h.h.h.h.h.h.h.h.h.h.h.",
"h.h.h.h.h.h.h.h.h.h.h.h.h.h.h.h.h.h.h.h.h.h.h.h.h.h.h.h.h.h.h.h.h.h.h.h.h.h.h.h.h.h.h.h.h.h.h.h.h.h.h.h.h.h.h.h.h.h.h.h.h.h.h.h.",
"h.h.h.h.h.h.h.h.h.h.h.h.h.h.h.h.h.h.h.h.h.h.h.h.h.h.h.h.h.h.h.h.h.h.h.h.h.h.h.h.h.h.h.h.h.h.h.h.h.h.h.h.h.h.h.h.h.h.h.h.h.h.h.h.",
"h.h.h.h.h.h.h.h.h.h.h.h.h.h.h.h.h.h.h.h.h.h.h.h.h.h.h.h.h.h.h.h.h.h.h.h.h.h.h.h.h.h.h.h.h.h.h.h.h.h.h.h.h.h.h.h.h.h.h.h.h.h.h.h.",
"h.h.h.h.h.h.h.h.h.h.h.h.h.h.h.h.h.h.h.h.h.h.h.h.h.h.h.h.h.h.h.h.h.h.h.h.h.h.h.h.h.h.h.h.h.h.h.h.h.h.h.h.h.h.h.h.h.h.h.h.h.h.h.h.",
"h.h.h.h.h.h.h.h.h.h.h.h.h.h.h.h.h.h.h.h.h.h.h.h.h.h.h.h.h.h.h.h.h.h.h.h.h.h.h.h.h.h.h.h.h.h.h.h.h.h.h.h.h.h.h.h.h.h.h.h.h.h.h.h.",
"h.h.h.h.h.h.h.h.h.h.h.h.h.h.h.h.h.h.h.h.h.h.h.h.h.h.h.h.h.h.h.h.h.h.h.h.h.h.h.h.h.h.h.h.h.h.h.h.h.h.h.h.h.h.h.h.h.h.h.h.h.h.h.h.",
"h.h.h.h.h.h.h.h.h.h.h.h.h.h.h.h.h.h.h.h.h.h.h.h.h.h.h.h.h.h.h.h.h.h.h.h.h.h.h.h.h.h.h.h.h.h.h.h.h.h.h.h.h.h.h.h.h.h.h.h.h.h.h.h.",
"h.h.h.h.h.h.h.h.h.h.h.h.h.h.h.h.h.h.h.h.h.h.h.h.h.h.h.h.h.h.h.h.h.h.h.h.h.h.h.h.h.h.h.h.h.h.h.h.h.h.h.h.h.h.h.h.h.h.h.h.h.h.h.h.",
"h.h.h.h.h.h.h.h.h.h.h.h.h.h.h.h.h.h.h.h.h.h.h.h.h.h.h.h.h.h.h.h.h.h.h.h.h.h.h.h.h.h.h.h.h.h.h.h.h.h.h.h.h.h.h.h.h.h.h.h.h.h.h.h.",
"h.h.h.h.h.h.h.h.h.h.h.h.h.h.h.h.h.h.h.h.h.h.h.h.h.h.h.      X X h.h.h.h.h.h.h.h.h.h.h.h.h.h.h.h.h.h.h.h.h.h.h.h.h.h.h.h.h.h.h.h.",
"h.h.h.h.h.h.h.h.h.h.h.h.h.h.h.h.h.h.h.h.h.h.h.h.    + # : : : # # # X h.h.h.h.h.h.h.h.h.h.h.h.h.h.h.h.h.h.h.h.h.h.h.h.h.h.h.h.h.",
"h.h.h.h.h.h.h.h.h.h.h.h.h.h.h.h.h.h.h.h.h.h.h.X # 1 2 r t y y t r 2 > #   h.h.h.h.h.h.h.h.h.h.h.h.h.h.h.h.h.h.h.h.h.h.h.h.h.h.h.",
"h.h.h.h.h.h.h.h.h.h.h.h.h.h.h.h.h.h.h.h.h.h.+ > 2 2 2 2 2 r r t y y r 1 # X h.h.h.h.h.h.h.h.h.h.h.h.h.h.h.h.h.h.h.h.h.h.h.h.h.h.",
"h.h.h.h.h.h.h.h.h.h.h.h.h.h.h.h.h.h.h.h.h.X > 2 1 1 1 1 1 1 r y u u y r > +   h.h.h.h.h.h.h.h.h.h.h.h.h.h.h.h.h.h.h.h.h.h.h.h.h.",
"h.h.h.h.h.h.h.h.h.h.h.h.h.h.h.h.h.h.h.h.X # 1 1 1 2 2 2 1 1 2 r y y u u 1 > +   h.h.h.h.h.h.h.h.h.h.h.h.h.h.h.h.h.h.h.h.h.h.h.h.",
"h.h.h.h.h.h.h.h.h.h.h.h.h.h.h.h.h.h.h.h.X : 1 y 7.s r 2 2 2 2 t t y u u t : 1 X h.h.h.h.h.h.h.h.h.h.h.h.h.h.h.h.h.h.h.h.h.h.h.h.",
"h.h.h.h.h.h.h.h.h.h.h.h.h.h.h.h.h.h.h.h.+ > s a.a.i.9.1 1 2 2 t y y y y y 1 1 +   h.h.h.h.h.h.h.h.h.h.h.h.h.h.h.h.h.h.h.h.h.h.h.",
"h.h.h.h.h.h.h.h.h.h.h.h.h.h.h.h.h.h.h.X # 1 9.t.p.s.i.u > 2 2 t y y u t t 2 1 > X h.h.h.h.h.h.h.h.h.h.h.h.h.h.h.h.h.h.h.h.h.h.h.",
"h.h.h.h.h.h.h.h.h.h.h.h.h.h.h.h.h.h.h.X # 1 t 1 a f.d.d > 1 r t y u u y t t : 1 X h.h.h.h.h.h.h.h.h.h.h.h.h.h.h.h.h.h.h.h.h.h.h.",
"h.h.h.h.h.h.h.h.h.h.h.h.h.h.h.h.h.h.h.X : 2 : # 1 a.f.f > 2 r t y y u y t t : 1 + h.h.h.h.h.h.h.h.h.h.h.h.h.h.h.h.h.h.h.h.h.h.h.",
"h.h.h.h.h.h.h.h.h.h.h.h.h.h.h.h.h.h.% $ & 0 < : 1 y.f.0.2 1 r t t y u u y t > 1 + h.h.h.h.h.h.h.h.h.h.h.h.h.h.h.h.h.h.h.h.h.h.h.",
"h.h.h.h.h.h.h.h.h.h.h.h.h.h.h.h.8 m T ( ) Q g , y t.t.9.t 1 2 r t y u a y r 1 1 + h.h.h.h.h.h.h.h.h.h.h.h.h.h.h.h.h.h.h.h.h.h.h.",
"h.h.h.h.h.h.h.h.h.h.h.& w J ! ~ ^ ' { { ' [ &.v i y u y 2 2 2 2 t t u u y t r > X   h.h.h.h.h.h.h.h.h.h.h.h.h.h.h.h.h.h.h.h.h.h.",
"h.h.h.h.h.h.h.h.h.h.h.z :.-.1.2.,.<.<.>.*.=.;.%.k < 2 2 2 2 1 2 r t y u y t t : X   h.h.h.h.h.h.h.h.h.h.h.h.h.h.h.h.h.h.h.h.h.h.",
"h.h.h.h.h.h.h.h.h.h.h.5 h z O.#.$.$.#.+.@.X.x v p : 2 2 2 1 2 2 r r y u t t r :     h.h.h.h.h.h.h.h.h.h.h.h.h.h.h.h.h.h.h.h.h.h.",
"h.h.h.h.h.h.h.h.h.h.h.h.h.h.h.3 q j l c x z v e > : 2 2 2 2 1 2 2 r t t r t r #   h.h.h.h.h.h.h.h.h.h.h.h.h.h.h.h.h.h.h.h.h.h.h.",
"h.h.h.h.h.h.h.h.h.h.h.h.h.h.h.h.h.h.h.= = , : # > 1 1 2 2 2 1 1 2 r r r 2 r 1 + X h.h.h.h.h.h.h.h.h.h.h.h.h.h.h.h.h.h.h.h.h.h.h.",
"h.h.h.h.h.h.h.h.h.h.h.h.h.h.h.h.h.h.h.h.: # X : > > 1 1 > 1 1 2 2 2 1 1 1 1 > # + h.h.h.h.h.h.h.h.h.h.h.h.h.h.h.h.h.h.h.h.h.h.h.",
"h.h.h.h.h.h.h.h.h.h.h.h.h.h.h.h.h.h.h.h.h.1 > : : : : : : > 1 1 > > > 1 1 > > : +   h.h.h.h.h.h.h.h.h.h.h.h.h.h.h.h.h.h.h.h.h.h.",
"h.h.h.h.h.h.h.h.h.h.h.h.h.h.h.h.h.h.h.h.h.> 1 # # : : : > : > > > : > > > 1 > : #   h.h.h.h.h.h.h.h.h.h.h.h.h.h.h.h.h.h.h.h.h.h.",
"h.h.h.h.h.h.h.h.h.h.h.h.h.h.h.h.h.h.h.h.h.h.1 > # : : : : : : > > 1 2 2 2 t r : : + h.h.h.h.h.h.h.h.h.h.h.h.h.h.h.h.h.h.h.h.h.h.",
"h.h.h.h.h.h.h.h.h.h.h.h.h.h.h.h.h.h.h.h.h.h.> 1 : > > > > 1 2 2 t t r r y u y 2 : : X h.h.h.h.h.h.h.h.h.h.h.h.h.h.h.h.h.h.h.h.h.",
"h.h.h.h.h.h.h.h.h.h.h.h.h.h.h.h.h.h.h.h.h.  > 1 : > : : > 1 2 t t t y a a a s u 2 : # h.h.h.h.h.h.h.h.h.h.h.h.h.h.h.h.h.h.h.h.h.",
"h.h.h.h.h.h.h.h.h.h.h.h.h.h.h.h.h.h.h.h.h.  > 1 : > # : : 1 r t y u u s s f f d u 1 # + h.h.h.h.h.h.h.h.h.h.h.h.h.h.h.h.h.h.h.h.",
"h.h.h.h.h.h.h.h.h.h.h.h.h.h.h.h.h.h.h.h.h.  1 1 # : : : > 2 t t y y u a s d f d a t : + h.h.h.h.h.h.h.h.h.h.h.h.h.h.h.h.h.h.h.h.",
"h.h.h.h.h.h.h.h.h.h.h.h.h.h.h.h.h.h.h.h.h.: r : # : # : : 1 r t t t y u a s d f s y 1 + # h.h.h.h.h.h.h.h.h.h.h.h.h.h.h.h.h.h.h.",
"h.h.h.h.h.h.h.h.h.h.h.h.h.h.h.h.h.h.h.h.1 f y 1 + : : : > 1 1 2 r t t t u a d d s y t 1 # X h.h.h.h.h.h.h.h.h.h.h.h.h.h.h.h.h.h.",
"h.h.h.h.h.h.h.h.h.h.h.h.h.h.h.h.h.h.h.h.y r.r.2 : > : # : : > 1 2 r r r y u s d s t t y # : h.h.h.h.h.h.h.h.h.h.h.h.h.h.h.h.h.h.",
"h.h.h.h.h.h.h.h.h.h.h.h.h.h.h.h.h.h.h.> 8.s.f.7.r # : : : > > 1 1 2 2 r t y a s u 2 r : : : : h.h.h.h.h.h.h.h.h.h.h.h.h.h.h.h.h.",
"h.h.h.h.h.h.h.h.h.h.h.h.h.h.h.h.h.h.: s i.g.g.d.r.: : : : : : > 1 2 2 r r y a a r 1 # > 1 > # h.h.h.h.h.h.h.h.h.h.h.h.h.h.h.h.h.",
"h.h.h.h.h.h.h.h.h.h.h.h.h.h.h.h.h.h.u i.f.g.g.g.g.f : : : : : > 1 1 1 2 r t y y t + r > > 2 : X h.h.h.h.h.h.h.h.h.h.h.h.h.h.h.h.",
"h.h.h.h.h.h.h.h.h.h.h.h.h.h.h.h.h.  t.d.g.g.g.g.g.g.> # # : : : > 1 1 2 2 t a s : # 2 : > r > + h.h.h.h.h.h.h.h.h.h.h.h.h.h.h.h.",
"h.h.h.h.h.h.h.h.h.h.h.h.h.h.h.h.h.t a.f.g.g.g.g.g.g.t.# # : : > > > 2 1 s a a y 2 1 2 # 1 t > X h.h.h.h.h.h.h.h.h.h.h.h.h.h.h.h.",
"h.h.h.h.h.h.h.h.h.h.h.h.h.h.h.h.  y.d.g.g.g.g.g.g.g.f.1   # > > > 1 1 1 d d t y 1 > > # > t 1 + + h.h.h.h.h.h.h.h.h.h.h.h.h.h.h.",
"h.h.h.h.h.h.h.h.h.h.h.h.h.h.h.h.h.a.f.g.g.g.g.g.g.g.g.d.+ + > > > > 1 1 y d y r 2 > : 1 : 1 1 + + h.h.h.h.h.h.h.h.h.h.h.h.h.h.h.",
"h.h.h.h.h.h.h.h.h.h.h.h.h.h.h.h.q.f.f.g.g.g.g.g.g.g.g.g.2 + > > > > > 1 r f a y 2 : 1 : : : 2 + # h.h.h.h.h.h.h.h.h.h.h.h.h.h.h.",
"h.h.h.h.h.h.h.h.h.h.h.h.h.h.h.h.p.f.f.g.g.g.g.g.g.g.g.g.t # # > > > 1 1 2 f s y 1 : : > # : 2 + # h.h.h.h.h.h.h.h.h.h.h.h.h.h.h.",
"h.h.h.h.h.h.h.h.h.h.h.h.h.h.h.u a.g.f.g.g.g.g.g.g.g.g.g.a # : > > > 1 > 1 s 7.y 2 : > : # : r + + h.h.h.h.h.h.h.h.h.h.h.h.h.h.h.",
"h.h.h.h.h.h.h.h.h.h.h.h.h.h.  q.s.g.f.g.g.g.g.g.g.g.g.f.d : 1 # > > 1 1 1 s 9.u 1 > # > # 1 r + X h.h.h.h.h.h.h.h.h.h.h.h.h.h.h.",
"h.h.h.h.h.h.h.h.h.h.h.h.h.h.# t.s.f.f.g.g.g.g.g.g.g.g.f.7.+ 1 + > > 1 1 1 a w.y > 1 : : # 1 r + X h.h.h.h.h.h.h.h.h.h.h.h.h.h.h.",
"h.h.h.h.h.h.h.h.h.h.h.h.h.h.r y.s.f.f.g.g.g.g.g.g.g.f.f.a : > + > > 1 1 > t w.t : > > r # 2 t + X h.h.h.h.h.h.h.h.h.h.h.h.h.h.h.",
"h.h.h.h.h.h.h.h.h.h.h.h.h.h.u y.s.d.f.g.g.g.g.g.g.g.f.s.a : : o 1 > 1 1 1 r 0.t : 1 r 1 : y r + X   h.h.h.h.h.h.h.h.h.h.h.h.h.h.",
"h.h.h.h.h.h.h.h.h.h.h.h.h.h.y y.a.d.f.f.g.g.g.g.g.g.f.i.a # X X > 1 1 1 1 t 9.r r 1 t > r y r X X   h.h.h.h.h.h.h.h.h.h.h.h.h.h.",
"h.h.h.h.h.h.h.h.h.h.h.h.h.h.t t.a.d.d.f.g.g.f.g.g.g.f.y.> +   X 1 1 1 1 1 1 d r a 2 1 u u y 2 X   h.h.h.h.h.h.h.h.h.h.h.h.h.h.h.",
"h.h.h.h.h.h.h.h.h.h.h.h.h.h.2 t.a.s.d.f.f.f.f.f.f.g.f.> :     # > 1 1 1 1 > t a y t y s y t 1 X   h.h.h.h.h.h.h.h.h.h.h.h.h.h.h.",
"h.h.h.h.h.h.h.h.h.h.h.h.h.h.# t.p.a.s.d.f.d.d.d.d.f.w.: X   X # 1 1 1 1 1 1 t s r y a a y t >     h.h.h.h.h.h.h.h.h.h.h.h.h.h.h.",
"h.h.h.h.h.h.h.h.h.h.h.h.h.h.# 0.p.a.s.d.s.s.s.d.d.i.> +     o > 1 1 1 1 1 1 1 2 r y a a t 2 #     h.h.h.h.h.h.h.h.h.h.h.h.h.h.h.",
"h.h.h.h.h.h.h.h.h.h.h.h.h.h.h.s i.p.p.a.s.s.s.s.t.1 > X     : 1 1 1 1 1 1 1 1 2 r u a u r 1 >     h.h.h.h.h.h.h.h.h.h.h.h.h.h.h.",
"h.h.h.h.h.h.h.h.h.h.h.h.h.h.h.> r.p.p.p.p.a.a.8.# u #     X u > 1 > 1 1 1 1 2 r t y u y r > :     h.h.h.h.h.h.h.h.h.h.h.h.h.h.h.",
"h.h.h.h.h.h.h.h.h.h.h.h.h.h.h.+ a i.i.i.i.p.p.t y > t     + u > 1 1 > 1 1 1 2 r t y y y r > #     h.h.h.h.h.h.h.h.h.h.h.h.h.h.h.",
"h.h.h.h.h.h.h.h.h.h.h.h.h.h.h.h.1 0.i.y.y.i.i.: > > #     X r > > 1 1 1 1 2 r r t y t t 1 +       h.h.h.h.h.h.h.h.h.h.h.h.h.h.h.",
"h.h.h.h.h.h.h.h.h.h.h.h.h.h.h.h.h.t w.y.y.y.8.1 + : X     # > > > 1 1 1 2 2 r t t t t t : +     h.h.h.h.h.h.h.h.h.h.h.h.h.h.h.h.",
"h.h.h.h.h.h.h.h.h.h.h.h.h.h.h.h.h.h.h.y.i.t.r : +   X + X 2 : > > > > 1 2 2 2 r r r t 2 + o     h.h.h.h.h.h.h.h.h.h.h.h.h.h.h.h.",
"h.h.h.h.h.h.h.h.h.h.h.h.h.h.h.h.h.h.f f r.r.> + X > # X # : # > > > 1 1 1 2 1 1 r t r : # # X h.h.h.h.h.h.h.h.h.h.h.h.h.h.h.h.h.",
"h.h.h.h.h.h.h.h.h.h.h.h.h.h.h.h.h.h.h.t s w.: X + r # X # # # > 1 1 1 1 1 > > 2 r r 1 # : > # + h.h.h.h.h.h.h.h.h.h.h.h.h.h.h.h.",
"h.h.h.h.h.h.h.h.h.h.h.h.h.h.h.h.h.h.h.t > r +   1 0.8.2 2 # : > > 1 > > > 1 2 r r 1 > 2 r r > + h.h.h.h.h.h.h.h.h.h.h.h.h.h.h.h.",
"h.h.h.h.h.h.h.h.h.h.h.h.h.h.h.h.h.h.h.h.h.> o X 9.r.0.9.d 1 : : : : > 1 2 2 2 1 > 1 2 t y u t 1 # h.h.h.h.h.h.h.h.h.h.h.h.h.h.h.",
"h.h.h.h.h.h.h.h.h.h.h.h.h.h.h.h.h.h.h.h.h.s.> 2 t.r.q.r.0.2 > > > 1 1 2 2 1 > > > 2 r t u u y t : : h.h.h.h.h.h.h.h.h.h.h.h.h.h.",
"h.h.h.h.h.h.h.h.h.h.h.h.h.h.h.h.5. . ...4.6.o.e.u.r.q.8.a > > 1 1 1 < > : : : # : 1 2 r t y t t t > > h.h.h.h.h.h.h.h.h.h.h.h.h.",
"h.h.h.h.h.h.h.h.h.h.h.h.h.h.h.3. .] ] ` R U Y Y _ | W H 6 * 4 ; ; 4 4 @ - o + + : > 1 1 1 2 r r t r : h.h.h.h.h.h.h.h.h.h.h.h.h.",
"h.h.h.h.h.h.h.h.h.h.h.h.h.h.h.} / E I K K N K F G G P F S C B B Z M n n 7 O O . X X X + # # > > > 1 > # h.h.h.h.h.h.h.h.h.h.h.h.",
"h.h.h.h.h.h.h.h.h.h.h.h.h.h.h.L K V C C S K S S C C C B N B B B Z Z D A h.h.h.h.h.h.h.h.  X X # # # # + h.h.h.h.h.h.h.h.h.h.h.h.",
"h.h.h.h.h.h.h.h.h.h.h.h.h.h.h.h.h.h.h.h.h.h.h.h.h.h.h.h.h.h.h.h.h.h.h.h.h.h.h.h.h.h.h.h.h.h.h.h.h.h.h.h.h.h.h.h.h.h.h.h.h.h.h.h."
};
