/* XPM */
static char *nouveauinverse5[] = {
/* columns rows colors chars-per-pixel */
"64 80 190 2 ",
"   c #030303",
".  c #0B0B0B",
"X  c #131313",
"o  c #1B1B1B",
"O  c #261F08",
"+  c #281F0B",
"@  c #352716",
"#  c #3C2C1C",
"$  c #232323",
"%  c #2C2C2C",
"&  c #332A21",
"*  c #322D28",
"=  c #33312C",
"-  c #3C3929",
";  c #333333",
":  c #393734",
">  c #3B3935",
",  c #3B3B3B",
"<  c #4C341D",
"1  c #453F2C",
"2  c #563B22",
"3  c #413F39",
"4  c #63591E",
"5  c #7F7706",
"6  c #4F4820",
"7  c #4E4033",
"8  c #43413F",
"9  c #664628",
"0  c #6E4C29",
"q  c #635922",
"w  c #6D553E",
"e  c #75692C",
"r  c #6C6135",
"t  c #7C6A3B",
"y  c #434343",
"u  c #4C4B4B",
"i  c #545454",
"p  c #5A5751",
"a  c #5E5954",
"s  c #5B5B5B",
"d  c #685847",
"f  c #795E44",
"g  c #676050",
"h  c #746752",
"j  c #636363",
"k  c #6E6C65",
"l  c #6B6B6B",
"z  c #747474",
"x  c #7B7B7B",
"c  c #87741D",
"v  c #8C7A1D",
"b  c #835E3A",
"n  c #887523",
"m  c #857128",
"M  c #8C7729",
"N  c #937E2C",
"B  c #8F6337",
"V  c #8F6338",
"C  c #836B38",
"Z  c #8E7732",
"A  c #937B31",
"S  c #987F33",
"D  c #886645",
"F  c #80704D",
"G  c #89774C",
"H  c #8B7A53",
"J  c #A37040",
"K  c #AB7643",
"L  c #AF7A46",
"P  c #B37B47",
"I  c #B37D4A",
"U  c #96821D",
"Y  c #99861A",
"T  c #B49B1B",
"R  c #9A8427",
"E  c #9F8A25",
"W  c #9C852C",
"Q  c #9A8230",
"!  c #A48D25",
"~  c #A48A2C",
"^  c #A79223",
"/  c #AB9523",
"(  c #AF9822",
")  c #AB912A",
"_  c #B09923",
"`  c #A28A30",
"'  c #B38C30",
"]  c #AB9031",
"[  c #B49931",
"{  c #BC9E33",
"}  c #C8AE24",
"|  c #C8A92F",
" . c #D5B921",
".. c #DCBF26",
"X. c #D8B72E",
"o. c #C3A333",
"O. c #C9AC31",
"+. c #C3A23E",
"@. c #D5A63E",
"#. c #D5B233",
"$. c #E1BC34",
"%. c #F0BE3F",
"&. c #E2C81E",
"*. c #F6E017",
"=. c #FCE11E",
"-. c #DCC03A",
";. c #E4C625",
":. c #EECD27",
">. c #E1C12D",
",. c #EECA2D",
"<. c #FDDC26",
"1. c #FCD72B",
"2. c #FDDA2A",
"3. c #EBC13A",
"4. c #F4CF32",
"5. c #F4CC3C",
"6. c #F5D237",
"7. c #FADB36",
"8. c #F6D43C",
"9. c #948252",
"0. c #9A8A51",
"q. c #93825B",
"w. c #BF8649",
"e. c #B9A958",
"r. c #978D6D",
"t. c #B39862",
"y. c #C2864B",
"u. c #CA8E4C",
"i. c #CB9049",
"p. c #CD8E50",
"a. c #D29252",
"s. c #E09C58",
"d. c #CFA643",
"f. c #C4AF44",
"g. c #D6A847",
"h. c #DCB047",
"j. c #D4BE42",
"k. c #D8B24B",
"l. c #D4BF4C",
"z. c #E1B142",
"x. c #E9BC45",
"c. c #E3B24A",
"v. c #E9B94C",
"b. c #F4BD46",
"n. c #F9BF47",
"m. c #F7BB4A",
"M. c #FABF4A",
"N. c #EBAC50",
"B. c #F5AA5F",
"V. c #FBAF5E",
"C. c #E1B45E",
"Z. c #FCB05B",
"A. c #C5A560",
"S. c #D9B667",
"D. c #DDB668",
"F. c #DCBA68",
"G. c #C8B274",
"H. c #C3B47F",
"J. c #FBAD61",
"K. c #EEC448",
"L. c #F6C342",
"P. c #FDC642",
"I. c #FDC049",
"U. c #F5C15D",
"Y. c #F3CD5A",
"T. c #D2C062",
"R. c #E6C260",
"E. c #F1CA6D",
"W. c #E8CF7D",
"Q. c #FCE367",
"!. c #848484",
"~. c #8D8D8D",
"^. c #949494",
"/. c #9D9D9D",
"(. c #B3B09F",
"). c #A4A4A4",
"_. c #ACACAC",
"`. c #B4B4B4",
"'. c #BCBCBC",
"]. c #FEEF9A",
"[. c #C4C4C4",
"{. c #CBCBCB",
"}. c #D4D4D4",
"|. c #DCDCDC",
" X c #E4E4E4",
".X c #EDEDED",
"XX c #FFFAE0",
"oX c #F4F4F4",
"OX c #FDFDFD",
"+X c None",
/* pixels */
"+X+X+X+X+X+X+X+X+X+X+X+X+X+X+X+X+X+X+X+X+X+X+X+X+X+X+X+X+X+X+X+X+X+X+X+X+X+X+X+X+X+X+X+X+X+X+X+X+X+X+X+X+X+X+X+X+X+X+X+X+X+X+X+X",
"+X+X+X+X+X+X+X+X+X+X+X+X+X+X+X+X+X+X+X+X+X+X+X+X+X+X+X+X+X+X+X+X+X+X+X+X+X+X+X+X+X+X+X+X+X+X+X+X+X+X+X+X+X+X+X+X+X+X+X+X+X+X+X+X",
"+X+X+X+X+X+X+X+X+X+X+X+X+X+X+X+X+X+X+X+X+X+X+X+X+X+X+X+X+X+X+X+X+X+X+X+X+X+X+X+X+X+X+X+X+X+X+X+X+X+X+X+X+X+X+X+X+X+X+X+X+X+X+X+X",
"+X+X+X+X+X+X+X+X+X+X+X+X+X+X+X+X+X+X+X+X+X+X+X+X+X+X+X+X+X+X+X+X+X+X+X+X+X+X+X+X+X+X+X+X+X+X+X+X+X+X+X+X+X+X+X+X+X+X+X+X+X+X+X+X",
"+X+X+X+X+X+X+X+X+X+X+X+X+X+X+X+X+X+X+X+X+X+X+X+X+X+X+X+X+X+X+X+X+X+X+X+X+X+X+X+X+X+X+X+X+X+X+X+X+X+X+X+X+X+X+X+X+X+X+X+X+X+X+X+X",
"+X+X+X+X+X+X+X+X+X+X+X+X+X+X+X+X+X+X+X+X+X+X+X+X+X+X+X+X+X+X+X+X+X+X+X+X+X+X+X+X+X+X+X+X+X+X+X+X+X+X+X+X+X+X+X+X+X+X+X+X+X+X+X+X",
"+X+X+X+X+X+X+X+X+X+X+X+X+X+X+X+X+X+X+X+X+X+X+X+X+X+X+X+X+X+X+X+X+X+X+X+X+X+X+X+X+X+X+X+X+X+X+X+X+X+X+X+X+X+X+X+X+X+X+X+X+X+X+X+X",
"+X+X+X+X+X+X+X+X+X+X+X+X+X+X+X+X+X+X+X+X+X+X+X+X+X+X+X+X+X+X+X+X+X+X+X+X+X+X+X+X+X+X+X+X+X+X+X+X+X+X+X+X+X+X+X+X+X+X+X+X+X+X+X+X",
"+X+X+X+X+X+X+X+X+X+X+X+X+X+X+X+X+X+X+X+X+X+X+X+X+X+X+X+X+X+X+X+X+X+X+X+X+X+X+X+X+X+X+X+X+X+X+X+X+X+X+X+X+X+X+X+X+X+X+X+X+X+X+X+X",
"+X+X+X+X+X+X+X+X+X+X+X+X+X+X+X+X+X+X+X+X+X+X+X+X+X+X+X+X+X+X+X+X+X+X+X+X+X+X+X+X+X+X+X+X+X+X+X+X+X+X+X+X+X+X+X+X+X+X+X+X+X+X+X+X",
"+X+X+X+X+X+X+X+X+X+X+X+X+X+X+X+X+X+X+X+X+X+X+X+X+X+X+X+X+X+X+X+X+X+X+X+X+X+X+X+X+X+X+X+X+X+X+X+X+X+X+X+X+X+X+X+X+X+X+X+X+X+X+X+X",
"+X+X+X+X+X+X+X+X+X+X+X+X+X+X+X+X+X+X+X+X+X+X+X+X+X+X+X+X+X+X+X+X+X+X+X+X+X+X+X+X+X+X+X+X+X+X+X+X+X+X+X+X+X+X+X+X+X+X+X+X+X+X+X+X",
"+X+X+X+X+X+X+X+X+X+X+X+X+X+X+X+X+X+X+X+X+X+X+X+X+X+X+X+X+X+X+X+X+X+X+X+X+X+X+X+X+X+X+X+X+X+X+X+X+X+X+X+X+X+X+X+X+X+X+X+X+X+X+X+X",
"+X+X+X+X+X+X+X+X+X+X+X+X+X+X+X+X+X+X+X+X+X+X+X+X+X+X+X      . . +X+X+X+X+X+X+X+X+X+X+X+X+X+X+X+X+X+X+X+X+X+X+X+X+X+X+X+X+X+X+X+X",
"+X+X+X+X+X+X+X+X+X+X+X+X+X+X+X+X+X+X+X+X+X+X+X+X  . X o $ $ $ o o o . +X+X+X+X+X+X+X+X+X+X+X+X+X+X+X+X+X+X+X+X+X+X+X+X+X+X+X+X+X",
"+X+X+X+X+X+X+X+X+X+X+X+X+X+X+X+X+X+X+X+X+X+X+X  o % y y u i i u y , % o   +X+X+X+X+X+X+X+X+X+X+X+X+X+X+X+X+X+X+X+X+X+X+X+X+X+X+X",
"+X+X+X+X+X+X+X+X+X+X+X+X+X+X+X+X+X+X+X+X+X+XX % , , , , , y u u i i y ; o . +X+X+X+X+X+X+X+X+X+X+X+X+X+X+X+X+X+X+X+X+X+X+X+X+X+X",
"+X+X+X+X+X+X+X+X+X+X+X+X+X+X+X+X+X+X+X+X+X. % , ; ; ; ; % , y i s s s y $ X   +X+X+X+X+X+X+X+X+X+X+X+X+X+X+X+X+X+X+X+X+X+X+X+X+X",
"+X+X+X+X+X+X+X+X+X+X+X+X+X+X+X+X+X+X+X+X. o ; ; ; ; , , , ; , y i i s s ; % X   +X+X+X+X+X+X+X+X+X+X+X+X+X+X+X+X+X+X+X+X+X+X+X+X",
"+X+X+X+X+X+X+X+X+X+X+X+X+X+X+X+X+X+X+X+X. $ ; i !.z , , , ; , u u i s s u $ ; . +X+X+X+X+X+X+X+X+X+X+X+X+X+X+X+X+X+X+X+X+X+X+X+X",
"+X+X+X+X+X+X+X+X+X+X+X+X+X+X+X+X+X+X+X+XX % l |.}.{.^., , , , u i s i i s ; ; X   +X+X+X+X+X+X+X+X+X+X+X+X+X+X+X+X+X+X+X+X+X+X+X",
"+X+X+X+X+X+X+X+X+X+X+X+X+X+X+X+X+X+X+X. o ; ^.'.}. X{.s % ; y y i i s u u , % %   +X+X+X+X+X+X+X+X+X+X+X+X+X+X+X+X+X+X+X+X+X+X+X",
"+X+X+X+X+X+X+X+X+X+X+X+X+X+X+X+X+X+X+X. o : u ; j oX.Xz $ , y u i i i i u u $ ; X +X+X+X+X+X+X+X+X+X+X+X+X+X+X+X+X+X+X+X+X+X+X+X",
"+X+X+X+X+X+X+X+X+X+X+X+X+X+X+X+X+X+X+X  $ , % o ; |.oXx % ; y u i i s s u u $ ; X +X+X+X+X+X+X+X+X+X+X+X+X+X+X+X+X+X+X+X+X+X+X+X",
"+X+X+X+X+X+X+X+X+X+X+X+X+X+X+X+X+X+X+ O @ 1 * $ ; [.oX).8 , 8 u u i s s i u % ; X +X+X+X+X+X+X+X+X+X+X+X+X+X+X+X+X+X+X+X+X+X+X+X",
"+X+X+X+X+X+X+X+X+X+X+X+X+X+X+X+X5 T  .;.:.@.b & i `.'.^.y , , y u i s j i y ; % X +X+X+X+X+X+X+X+X+X+X+X+X+X+X+X+X+X+X+X+X+X+X+X",
"+X+X+X+X+X+X+X+X+X+X+X@ 0 ' &.*.=.<.2.2.2.1.x.L d i s i , ; , 8 u i s s i u y % .   +X+X+X+X+X+X+X+X+X+X+X+X+X+X+X+X+X+X+X+X+X+X",
"+X+X+X+X+X+X+X+X+X+X+XK B.I.P.I.Z.J.J.J.M.m.N.s.D * , , , , ; , y u i s i u u $ .   +X+X+X+X+X+X+X+X+X+X+X+X+X+X+X+X+X+X+X+X+X+X",
"+X+X+X+X+X+X+X+X+X+X+X2 B K y.p.a.a.p.u.i.y.L w.f $ , , , : , , , u i s u u y $ .   +X+X+X+X+X+X+X+X+X+X+X+X+X+X+X+X+X+X+X+X+X+X",
"+X+X+X+X+X+X+X+X+X+X+X+X+X+X+X< 9 V J P L K I w $ $ , , , , ; ; , y u u y u y o   +X+X+X+X+X+X+X+X+X+X+X+X+X+X+X+X+X+X+X+X+X+X+X",
"+X+X+X+X+X+X+X+X+X+X+X+X+X+X+X+X+X+X+X# # & $ o % : , , , , ; , , y y 8 , 8 ; o . +X+X+X+X+X+X+X+X+X+X+X+X+X+X+X+X+X+X+X+X+X+X+X",
"+X+X+X+X+X+X+X+X+X+X+X+X+X+X+X+X+X+X+X+X$ o X $ % ; ; % % ; ; , , , ; ; : ; % o X +X+X+X+X+X+X+X+X+X+X+X+X+X+X+X+X+X+X+X+X+X+X+X",
"+X+X+X+X+X+X+X+X+X+X+X+X+X+X+X+X+X+X+X+X+X; % $ $ $ $ $ % % % ; % % % ; ; % % $ X   +X+X+X+X+X+X+X+X+X+X+X+X+X+X+X+X+X+X+X+X+X+X",
"+X+X+X+X+X+X+X+X+X+X+X+X+X+X+X+X+X+X+X+X+X% % o o o $ $ $ $ % % % % % % % % % $ $   +X+X+X+X+X+X+X+X+X+X+X+X+X+X+X+X+X+X+X+X+X+X",
"+X+X+X+X+X+X+X+X+X+X+X+X+X+X+X+X+X+X+X+X+X+X; % o $ $ $ $ $ $ % % ; , , y y y $ $ X +X+X+X+X+X+X+X+X+X+X+X+X+X+X+X+X+X+X+X+X+X+X",
"+X+X+X+X+X+X+X+X+X+X+X+X+X+X+X+X+X+X+X+X+X+X% : $ % % % ; : : y y u y y i s i , $ $ . +X+X+X+X+X+X+X+X+X+X+X+X+X+X+X+X+X+X+X+X+X",
"+X+X+X+X+X+X+X+X+X+X+X+X+X+X+X+X+X+X+X+X+X  % ; $ % $ $ % ; , y u u i s j l j s , $ o +X+X+X+X+X+X+X+X+X+X+X+X+X+X+X+X+X+X+X+X+X",
"+X+X+X+X+X+X+X+X+X+X+X+X+X+X+X+X+X+X+X+X+X  % ; $ % $ $ % ; y u i s j l z z x z s : X o +X+X+X+X+X+X+X+X+X+X+X+X+X+X+X+X+X+X+X+X",
"+X+X+X+X+X+X+X+X+X+X+X+X+X+X+X+X+X+X+X+X+X  ; ; o $ o $ % ; u i i s s j z z x z j u $ X +X+X+X+X+X+X+X+X+X+X+X+X+X+X+X+X+X+X+X+X",
"+X+X+X+X+X+X+X+X+X+X+X+X+X+X+X+X+X+X+X+X+X$ y $ o $ o $ % ; , u u u i s j l z x l i ; o o +X+X+X+X+X+X+X+X+X+X+X+X+X+X+X+X+X+X+X",
"+X+X+X+X+X+X+X+X+X+X+X+X+X+X+X+X+X+X+X+X; !.s % o $ $ $ $ ; , , y y u u s j z l j s , $ o . +X+X+X+X+X+X+X+X+X+X+X+X+X+X+X+X+X+X",
"+X+X+X+X+X+X+X+X+X+X+X+X+X+X+X+X+X+X+X+Xi _.`., $ $ $ o $ % % ; , y y y u s i u y y y % $ o +X+X+X+X+X+X+X+X+X+X+X+X+X+X+X+X+X+X",
"+X+X+X+X+X+X+X+X+X+X+X+X+X+X+X+X+X+X+X$ ~. XoX!.y $ $ $ o $ % ; ; , y y u u s y , y u , % $ . +X+X+X+X+X+X+X+X+X+X+X+X+X+X+X+X+X",
"+X+X+X+X+X+X+X+X+X+X+X+X+X+X+X+X+X+X$ l {.OXoX.X`.$ % $ $ % $ % ; , , , y y y y y , y y , % o +X+X+X+X+X+X+X+X+X+X+X+X+X+X+X+X+X",
"+X+X+X+X+X+X+X+X+X+X+X+X+X+X+X+X+X+Xs {.OXOXOXOXOXx o $ $ $ $ % % , , , y y , % y ; , u y y $ . +X+X+X+X+X+X+X+X+X+X+X+X+X+X+X+X",
"+X+X+X+X+X+X+X+X+X+X+X+X+X+X+X+X+X  '..XOXOXOXOXOXOXX o X o $ $ % ; ; , , , , ; % % ; u u y $ X +X+X+X+X+X+X+X+X+X+X+X+X+X+X+X+X",
"+X+X+X+X+X+X+X+X+X+X+X+X+X+X+X+X+Xu |.oXOXOXOXOXOXOX~.. X o $ % % ; , ; ; , , ; % $ % i i u ; X +X+X+X+X+X+X+X+X+X+X+X+X+X+X+X+X",
"+X+X+X+X+X+X+X+X+X+X+X+X+X+X+X+X  [..XOXOXOXOXOXOXOX Xy . X % % % y , ; ; , , $ % $ $ u s i , . X +X+X+X+X+X+X+X+X+X+X+X+X+X+X+X",
"+X+X+X+X+X+X+X+X+X+X+X+X+X+X+X+X+X|.oXOXOXOXOXOXOXOXOX~.o . % % % % u , ; u , % % o o u s s : X X +X+X+X+X+X+X+X+X+X+X+X+X+X+X+X",
"+X+X+X+X+X+X+X+X+X+X+X+X+X+X+X+X/.oXOXOXOXOXOXOXOXOXOX'., . $ % % % ; i ; u ; , $ o . , s s , X X +X+X+X+X+X+X+X+X+X+X+X+X+X+X+X",
"+X+X+X+X+X+X+X+X+X+X+X+X+X+X+X+X}.OXoXOXOXOXOXOXOXOXOXOX; X o % % $ ; , i y u , $ o . ; s s , o . +X+X+X+X+X+X+X+X+X+X+X+X+X+X+X",
"+X+X+X+X+X+X+X+X+X+X+X+X+X+X+Xs |.OXoXOXOXOXOXOXOXOXOXOXs o X % % % % ; i s j u , . . $ s s u X . +X+X+X+X+X+X+X+X+X+X+X+X+X+X+X",
"+X+X+X+X+X+X+X+X+X+X+X+X+X+X  ). XOXoXOXOXOXOXOXOXOXOXoXz X o $ % % ; ; u l l i y . . o i s u X . +X+X+X+X+X+X+X+X+X+X+X+X+X+X+X",
"+X+X+X+X+X+X+X+X+X+X+X+X+X+Xo '. XoXOXOXOXOXOXOXOXOXOXoXx X X $ % % ; ; : !.j u 8 X   $ i s u X . +X+X+X+X+X+X+X+X+X+X+X+X+X+X+X",
"+X+X+X+X+X+X+X+X+X+X+X+X+X+Xy '. XoXoXOXOXOXOXOXOXOXOXoXz . X $ % % ; ; % s ^.i y X   $ s i u X . +X+X+X+X+X+X+X+X+X+X+X+X+X+X+X",
"+X+X+X+X+X+X+X+X+X+X+X+X+X+Xs [. X.XoXOXOXOXOXOXOXOXoXoXx   X $ % % ; ; ; u !.u u X   % i i y X .   +X+X+X+X+X+X+X+X+X+X+X+X+X+X",
"+X+X+X+X+X+X+X+X+X+X+X+X+X+Xs [.|..X.XoXOXOXOXOXOXOXOX.Xy   $ $ ; % ; ; ; y !.l u . . ; s i y . .   +X+X+X+X+X+X+X+X+X+X+X+X+X+X",
"+X+X+X+X+X+X+X+X+X+X+X+X+X+Xu '.|..XoXoXOXOXoXOXOXOXoX.XX   o $ ; ; ; ; ; ; ~.x y . . u i i , . X +X+X+X+X+X+X+X+X+X+X+X+X+X+X+X",
"+X+X+X+X+X+X+X+X+X+X+X+X+X+X; '.|. X.XoXoXoXoXoXoXOXoX.Xo   % % % ; ; ; ; ; j j u . o i i u ; . . +X+X+X+X+X+X+X+X+X+X+X+X+X+X+X",
"+X+X+X+X+X+X+X+X+X+X+X+X+X+Xo '.}.|..X.X.X.X.XoX.XoX.X^.X . y % ; ; ; ; ; ; s z s % % j i u %   . +X+X+X+X+X+X+X+X+X+X+X+X+X+X+X",
"+X+X+X+X+X+X+X+X+X+X+X+X+X+Xo /.}.|. X X X X X.X.X.X X; o X ; % % ; ; ; ; ; y ^.z , u j i , $ .   +X+X+X+X+X+X+X+X+X+X+X+X+X+X+X",
"+X+X+X+X+X+X+X+X+X+X+X+X+X+X+Xl }.}.}.|. X X X X X X|.; y X o $ ; ; ; ; ; ; , j l y j s y ; $ .   +X+X+X+X+X+X+X+X+X+X+X+X+X+X+X",
"+X+X+X+X+X+X+X+X+X+X+X+X+X+X+X% `.}.}.}.}.|.|.|.|.}.{.$ ;   . o ; % , % ; , , y y i j i y % $ X   +X+X+X+X+X+X+X+X+X+X+X+X+X+X+X",
"+X+X+X+X+X+X+X+X+X+X+X+X+X+X+XX j {.{.{.{.{.}.}.{.{.[..   . X $ ; ; % ; ; % y y u i i u y % $ .   +X+X+X+X+X+X+X+X+X+X+X+X+X+X+X",
"+X+X+X+X+X+X+X+X+X+X+X+X+X+X+X+X; ).[.{.[.{.{.{.[.[.^.,   . . $ ; % ; ; ; ; y y u i u u , o o     +X+X+X+X+X+X+X+X+X+X+X+X+X+X+X",
"+X+X+X+X+X+X+X+X+X+X+X+X+X+X+X+X+Xu _.[.[.[.{.[.[.'.^.$ . X . o % ; ; ; ; , , u u u u u o X X   +X+X+X+X+X+X+X+X+X+X+X+X+X+X+X+X",
"+X+X+X+X+X+X+X+X+X+X+X+X+X+X+X+X+X+X/.[.{.{.{.[.[.[.~.. $ X X X % % ; ; , 8 8 y y y u , X X X   +X+X+X+X+X+X+X+X+X+X+X+X+X+X+X+X",
"+X+X+X+X+X+X+X+X+X+X+X+X+X+X+X+X+X+Xs z _.[.[.'.[.[.x . = u $ X , , ; ; , ; ; ; , u u $ o o o +X+X+X+X+X+X+X+X+X+X+X+X+X+X+X+X+X",
"+X+X+X+X+X+X+X+X+X+X+X+X+X+X+X+X+X+X+X% l `.'.`.'.'.y X !.).!.j 8 j u ; ; % % , y u ; o $ % X o +X+X+X+X+X+X+X+X+X+X+X+X+X+X+X+X",
"+X+X+X+X+X+X+X+X+X+X+X+X+X+X+X+X+X+X+X+X% y z x /._.; , [. X[.!.x z u , % ; , 3 , ; % , y y % o +X+X+X+X+X+X+X+X+X+X+X+X+X+X+X+X",
"+X+X+X+X+X+X+X+X+X+X+X+X+X+X+X+X+X+X+X+X+X6 4 e g h p ~. X X).!.!.s u y , , , ; ; ; , u i s u ; $ +X+X+X+X+X+X+X+X+X+X+X+X+X+X+X",
"+X+X+X+X+X+X+X+X+X+X+X+X+X+X+X+X+X+X+X+X+X7.4.3.K.Z.C.S.E.R.F.G.H.r.r t t r 7 % % , y u s s u u $ $ +X+X+X+X+X+X+X+X+X+X+X+X+X+X",
"+X+X+X+X+X+X+X+X+X+X+X+X+X+X+X+X+X+X+X+X7.5.5.L.L.n.b.M.L.%.z.g.d.+.{ { X.o.#.) - = , y u i i u u $ ; +X+X+X+X+X+X+X+X+X+X+X+X+X",
"+X+X+X+X+X+X+X+X+X+X+X+X+X+X+X+X+X+X+X+X$.O.| o.[ ] ` ` ] ` W W A A A A S A ~ ,.q % ; ; ; , y y u y % +X+X+X+X+X+X+X+X+X+X+X+X+X",
"+X+X+X+X+X+X+X+X+X+X+X+X+X+X+X+X+X+X+X+X+X+XC A A A A Z R R N M m c c c v U Y e $ $ o X o $ $ % % ; $ o +X+X+X+X+X+X+X+X+X+X+X+X",
"+X+X+X+X+X+X+X+X+X+X+X+X+X+X+X+X+X+X+X+X+X+X+X+X+X+X+XXX(.k p , = = : ; : > : : 8 y , u z y % $ o o o X +X+X+X+X+X+X+X+X+X+X+X+X",
"+X+X+X+X+X+X+X+X+X+X+X+X+X+X+X+X+X+X+X+X+X+X+X+X].8.6.Y.D.A.t.9.H H q.q.H F G 9.0.l.j.T.+X+X+X+X+Xo o +X+X+X+X+X+X+X+X+X+X+X+X+X",
"+X+X+X+X+X+X+X+X+X+X+X+X+X+X+X+X+X+X+X+X+X+X+XQ.6.5.K.v.c.c.c.c.h.v.x.3.3.$.>...;.} E e.+X+X+X+X+X+X+X+X+X+X+X+X+X+X+X+X+X+X+X+X",
"+X+X+X+X+X+X+X+X+X+X+X+X+X+X+X+X+X+X+X+X+X+X+XW.k.+.) ~ ! ) ) ) ^ / ( ( ( / ^ ^ ! ^ E f.+X+X+X+X+X+X+X+X+X+X+X+X+X+X+X+X+X+X+X+X",
"+X+X+X+X+X+X+X+X+X+X+X+X+X+X+X+X+X+X+X+X+X+X+X+X+X+X+X+X+X+X+X+X+X+X+X+X+X+X+X+X+X+X+X+X+X+X+X+X+X+X+X+X+X+X+X+X+X+X+X+X+X+X+X+X"
};
