/* XPM */
static char *nouveauinverse4[] = {
/* columns rows colors chars-per-pixel */
"64 80 171 2 ",
"   c #030303",
".  c #0B0B0B",
"X  c #16130F",
"o  c #1E170F",
"O  c #141414",
"+  c #1F1911",
"@  c #1C1C1C",
"#  c #261F08",
"$  c #281F0B",
"%  c #221C14",
"&  c #24210F",
"*  c #2B2717",
"=  c #352716",
"-  c #3B2C1B",
";  c #3C3418",
":  c #242424",
">  c #2B2B2B",
",  c #322920",
"<  c #322D28",
"1  c #3A3128",
"2  c #3D3B2C",
"3  c #333333",
"4  c #3B3B3B",
"5  c #473D17",
"6  c #4C341D",
"7  c #563B22",
"8  c #64551C",
"9  c #7F7706",
"0  c #7C6E1A",
"q  c #564D24",
"w  c #454232",
"e  c #4E4033",
"r  c #5E5435",
"t  c #56513E",
"y  c #664628",
"u  c #6E4C29",
"i  c #6F5E22",
"p  c #685236",
"a  c #6D553E",
"s  c #434343",
"d  c #4B4B4B",
"f  c #514E47",
"g  c #545454",
"h  c #5E5C57",
"j  c #5B5B5B",
"k  c #685847",
"l  c #795E44",
"z  c #6C6749",
"x  c #756E48",
"c  c #636363",
"v  c #6C6C6C",
"b  c #737373",
"n  c #7B7B7B",
"m  c #835E3A",
"M  c #816F22",
"N  c #8F7926",
"B  c #8F6337",
"V  c #8F6338",
"C  c #886645",
"Z  c #8B7242",
"A  c #A37040",
"S  c #AB7643",
"D  c #AF7A46",
"F  c #B37B47",
"G  c #B37D4A",
"H  c #96841D",
"J  c #B49B1B",
"K  c #968524",
"L  c #97822D",
"P  c #9D852E",
"I  c #9D8530",
"U  c #9F8A36",
"Y  c #A2872E",
"T  c #A2882D",
"R  c #A98F2E",
"E  c #AE942D",
"W  c #B1962D",
"Q  c #B69A2D",
"!  c #B99E2B",
"~  c #A28A32",
"^  c #AA8E3A",
"/  c #B38C30",
"(  c #AD9332",
")  c #B09532",
"_  c #B49931",
"`  c #B99E32",
"'  c #B5A028",
"]  c #BDA12C",
"[  c #C2A62D",
"{  c #C1AB2B",
"}  c #CBAE2A",
"|  c #CDB02A",
" . c #D5BA22",
".. c #DCBF2B",
"X. c #C4A932",
"o. c #D5A63E",
"O. c #E2C81E",
"+. c #F6E017",
"@. c #FCE11E",
"#. c #DEC12B",
"$. c #E4C625",
"%. c #E6C826",
"&. c #EBCC27",
"*. c #E5C728",
"=. c #E7C82A",
"-. c #EDCF2E",
";. c #EFD027",
":. c #F3D426",
">. c #F7D826",
",. c #FBDB26",
"<. c #F3D429",
"1. c #FCD72B",
"2. c #FDDB2A",
"3. c #E6CA33",
"4. c #E8CC37",
"5. c #F5D831",
"6. c #FCDE34",
"7. c #FBDE3D",
"8. c #FDE036",
"9. c #FDE038",
"0. c #BF8649",
"q. c #BFA95A",
"w. c #BAB07B",
"e. c #C2864B",
"r. c #CA8E4C",
"t. c #CB9049",
"y. c #CD8E50",
"u. c #D29252",
"i. c #E09C58",
"p. c #D2B948",
"a. c #CDB553",
"s. c #F0BA45",
"d. c #F9BF47",
"f. c #F6B84B",
"g. c #FBBF49",
"h. c #EBAC50",
"j. c #F5AA5F",
"k. c #FBAF5E",
"l. c #FCB05B",
"z. c #FBAD61",
"x. c #FDC642",
"c. c #FDC049",
"v. c #EBD042",
"b. c #FDE142",
"n. c #FDE34B",
"m. c #DDCD6F",
"M. c #EAD664",
"N. c #EFDA68",
"B. c #F7DF60",
"V. c #858585",
"C. c #8B8B8B",
"Z. c #949494",
"A. c #999890",
"S. c #9C9C9C",
"D. c #A2A2A2",
"F. c #ACACAC",
"G. c #B4B4B4",
"H. c #BDBCB7",
"J. c #BCBCBC",
"K. c #D2C48F",
"L. c #DED18D",
"P. c #FEEC88",
"I. c #C4C4C4",
"U. c #CBCBCB",
"Y. c #D4D4D4",
"T. c #DCDCDC",
"R. c #E4E4E4",
"E. c #ECECEC",
"W. c #F4F4F4",
"Q. c #FDFDFD",
"!. c None",
/* pixels */
"!.!.!.!.!.!.!.!.!.!.!.!.!.!.!.!.!.!.!.!.!.!.!.!.!.!.!.!.!.!.!.!.!.!.!.!.!.!.!.!.!.!.!.!.!.!.!.!.!.!.!.!.!.!.!.!.!.!.!.!.!.!.!.!.",
"!.!.!.!.!.!.!.!.!.!.!.!.!.!.!.!.!.!.!.!.!.!.!.!.!.!.!.!.!.!.!.!.!.!.!.!.!.!.!.!.!.!.!.!.!.!.!.!.!.!.!.!.!.!.!.!.!.!.!.!.!.!.!.!.",
"!.!.!.!.!.!.!.!.!.!.!.!.!.!.!.!.!.!.!.!.!.!.!.!.!.!.!.!.!.!.!.!.!.!.!.!.!.!.!.!.!.!.!.!.!.!.!.!.!.!.!.!.!.!.!.!.!.!.!.!.!.!.!.!.",
"!.!.!.!.!.!.!.!.!.!.!.!.!.!.!.!.!.!.!.!.!.!.!.!.!.!.!.!.!.!.!.!.!.!.!.!.!.!.!.!.!.!.!.!.!.!.!.!.!.!.!.!.!.!.!.!.!.!.!.!.!.!.!.!.",
"!.!.!.!.!.!.!.!.!.!.!.!.!.!.!.!.!.!.!.!.!.!.!.!.!.!.!.!.!.!.!.!.!.!.!.!.!.!.!.!.!.!.!.!.!.!.!.!.!.!.!.!.!.!.!.!.!.!.!.!.!.!.!.!.",
"!.!.!.!.!.!.!.!.!.!.!.!.!.!.!.!.!.!.!.!.!.!.!.!.!.!.!.!.!.!.!.!.!.!.!.!.!.!.!.!.!.!.!.!.!.!.!.!.!.!.!.!.!.!.!.!.!.!.!.!.!.!.!.!.",
"!.!.!.!.!.!.!.!.!.!.!.!.!.!.!.!.!.!.!.!.!.!.!.!.!.!.!.!.!.!.!.!.!.!.!.!.!.!.!.!.!.!.!.!.!.!.!.!.!.!.!.!.!.!.!.!.!.!.!.!.!.!.!.!.",
"!.!.!.!.!.!.!.!.!.!.!.!.!.!.!.!.!.!.!.!.!.!.!.!.!.!.!.!.!.!.!.!.!.!.!.!.!.!.!.!.!.!.!.!.!.!.!.!.!.!.!.!.!.!.!.!.!.!.!.!.!.!.!.!.",
"!.!.!.!.!.!.!.!.!.!.!.!.!.!.!.!.!.!.!.!.!.!.!.!.!.!.!.!.!.!.!.!.!.!.!.!.!.!.!.!.!.!.!.!.!.!.!.!.!.!.!.!.!.!.!.!.!.!.!.!.!.!.!.!.",
"!.!.!.!.!.!.!.!.!.!.!.!.!.!.!.!.!.!.!.!.!.!.!.!.!.!.!.!.!.!.!.!.!.!.!.!.!.!.!.!.!.!.!.!.!.!.!.!.!.!.!.!.!.!.!.!.!.!.!.!.!.!.!.!.",
"!.!.!.!.!.!.!.!.!.!.!.!.!.!.!.!.!.!.!.!.!.!.!.!.!.!.!.!.!.!.!.!.!.!.!.!.!.!.!.!.!.!.!.!.!.!.!.!.!.!.!.!.!.!.!.!.!.!.!.!.!.!.!.!.",
"!.!.!.!.!.!.!.!.!.!.!.!.!.!.!.!.!.!.!.!.!.!.!.!.!.!.!.!.!.!.!.!.!.!.!.!.!.!.!.!.!.!.!.!.!.!.!.!.!.!.!.!.!.!.!.!.!.!.!.!.!.!.!.!.",
"!.!.!.!.!.!.!.!.!.!.!.!.!.!.!.!.!.!.!.!.!.!.!.!.!.!.!.!.!.!.!.!.!.!.!.!.!.!.!.!.!.!.!.!.!.!.!.!.!.!.!.!.!.!.!.!.!.!.!.!.!.!.!.!.",
"!.!.!.!.!.!.!.!.!.!.!.!.!.!.!.!.!.!.!.!.!.!.!.!.!.!.!.!.!.!.!.!.!.!.!.!.!.!.!.!.!.!.!.!.!.!.!.!.!.!.!.!.!.!.!.!.!.!.!.!.!.!.!.!.",
"!.!.!.!.!.!.!.!.!.!.!.!.!.!.!.!.!.!.!.!.!.!.!.!.!.!.!.!.!.!.!.!.!.!.!.!.!.!.!.!.!.!.!.!.!.!.!.!.!.!.!.!.!.!.!.!.!.!.!.!.!.!.!.!.",
"!.!.!.!.!.!.!.!.!.!.!.!.!.!.!.!.!.!.!.!.!.!.!.!.!.!.!.!.!.!.!.!.!.!.!.!.!.!.!.!.!.!.!.!.!.!.!.!.!.!.!.!.!.!.!.!.!.!.!.!.!.!.!.!.",
"!.!.!.!.!.!.!.!.!.!.!.!.!.!.!.!.!.!.!.!.!.!.!.!.!.!.!.      . . !.!.!.!.!.!.!.!.!.!.!.!.!.!.!.!.!.!.!.!.!.!.!.!.!.!.!.!.!.!.!.!.",
"!.!.!.!.!.!.!.!.!.!.!.!.!.!.!.!.!.!.!.!.!.!.!.!.    O @ : : : @ @ @ . !.!.!.!.!.!.!.!.!.!.!.!.!.!.!.!.!.!.!.!.!.!.!.!.!.!.!.!.!.",
"!.!.!.!.!.!.!.!.!.!.!.!.!.!.!.!.!.!.!.!.!.!.!.. O 3 4 s d g g d s 4 > @   !.!.!.!.!.!.!.!.!.!.!.!.!.!.!.!.!.!.!.!.!.!.!.!.!.!.!.",
"!.!.!.!.!.!.!.!.!.!.!.!.!.!.!.!.!.!.!.!.!.!.O > 4 s 4 4 4 s s d g g s 3 @ . !.!.!.!.!.!.!.!.!.!.!.!.!.!.!.!.!.!.!.!.!.!.!.!.!.!.",
"!.!.!.!.!.!.!.!.!.!.!.!.!.!.!.!.!.!.!.!.!.. > 4 4 3 3 3 > 4 s g j j g s > O   !.!.!.!.!.!.!.!.!.!.!.!.!.!.!.!.!.!.!.!.!.!.!.!.!.",
"!.!.!.!.!.!.!.!.!.!.!.!.!.!.!.!.!.!.!.!.. @ 3 3 3 3 3 4 4 3 4 s g g j j 3 > O   !.!.!.!.!.!.!.!.!.!.!.!.!.!.!.!.!.!.!.!.!.!.!.!.",
"!.!.!.!.!.!.!.!.!.!.!.!.!.!.!.!.!.!.!.!.O : 3 g V.b 4 4 4 3 s s d g j j d : 3 . !.!.!.!.!.!.!.!.!.!.!.!.!.!.!.!.!.!.!.!.!.!.!.!.",
"!.!.!.!.!.!.!.!.!.!.!.!.!.!.!.!.!.!.!.!.O > v T.T.U.Z.4 3 4 4 d g g g g g 3 3 O   !.!.!.!.!.!.!.!.!.!.!.!.!.!.!.!.!.!.!.!.!.!.!.",
"!.!.!.!.!.!.!.!.!.!.!.!.!.!.!.!.!.!.!.. @ 3 Z.G.Y.R.U.j > 4 s s g g j d d s > > . !.!.!.!.!.!.!.!.!.!.!.!.!.!.!.!.!.!.!.!.!.!.!.",
"!.!.!.!.!.!.!.!.!.!.!.!.!.!.!.!.!.!.!.. @ 4 d 3 c W.E.b : 4 s d g j j g d d : 3 . !.!.!.!.!.!.!.!.!.!.!.!.!.!.!.!.!.!.!.!.!.!.!.",
"!.!.!.!.!.!.!.!.!.!.!.!.!.!.!.!.!.!.!.. @ 4 : @ 3 T.W.n > 3 s d g g j g g s : 3 @ !.!.!.!.!.!.!.!.!.!.!.!.!.!.!.!.!.!.!.!.!.!.!.",
"!.!.!.!.!.!.!.!.!.!.!.!.!.!.!.!.!.!.# # = e < : 3 I.W.D.4 3 s d d g j j g d > 3 : !.!.!.!.!.!.!.!.!.!.!.!.!.!.!.!.!.!.!.!.!.!.!.",
"!.!.!.!.!.!.!.!.!.!.!.!.!.!.!.!.9 J  .$.&.o.m , g G.G.S.d 3 4 s d g j j g d 3 > > !.!.!.!.!.!.!.!.!.!.!.!.!.!.!.!.!.!.!.!.!.!.!.",
"!.!.!.!.!.!.!.!.!.!.!.= u / O.+.@.,.2.2.,.1.s.G k g j g 4 4 4 s d g j c g s s > O   !.!.!.!.!.!.!.!.!.!.!.!.!.!.!.!.!.!.!.!.!.!.",
"!.!.!.!.!.!.!.!.!.!.!.S j.g.x.c.l.z.z.k.g.f.h.i.C < 4 4 4 4 3 4 s d g j g d d : .   !.!.!.!.!.!.!.!.!.!.!.!.!.!.!.!.!.!.!.!.!.!.",
"!.!.!.!.!.!.!.!.!.!.!.7 B S e.y.u.u.y.r.t.e.F F l > 4 4 4 3 4 3 s s g j d d s : .   !.!.!.!.!.!.!.!.!.!.!.!.!.!.!.!.!.!.!.!.!.!.",
"!.!.!.!.!.!.!.!.!.!.!.!.!.!.!.6 y V A F D S G a : : 4 4 4 3 4 3 4 s d d s d s @   !.!.!.!.!.!.!.!.!.!.!.!.!.!.!.!.!.!.!.!.!.!.!.",
"!.!.!.!.!.!.!.!.!.!.!.!.!.!.!.!.!.!.!.- - 1 > : > 3 4 4 4 4 3 4 4 s s s 4 s 3 O . !.!.!.!.!.!.!.!.!.!.!.!.!.!.!.!.!.!.!.!.!.!.!.",
"!.!.!.!.!.!.!.!.!.!.!.!.!.!.!.!.!.!.!.!.: @ O : > 3 3 > 3 3 3 3 4 3 3 3 3 3 > @ O !.!.!.!.!.!.!.!.!.!.!.!.!.!.!.!.!.!.!.!.!.!.!.",
"!.!.!.!.!.!.!.!.!.!.!.!.!.!.!.!.!.!.!.!.!.3 > @ : : : : : > 3 3 3 > > 3 3 > > : O   !.!.!.!.!.!.!.!.!.!.!.!.!.!.!.!.!.!.!.!.!.!.",
"!.!.!.!.!.!.!.!.!.!.!.!.!.!.!.!.!.!.!.!.!.4 > @ @ @ : : : > > > > : > > > 3 > : @   !.!.!.!.!.!.!.!.!.!.!.!.!.!.!.!.!.!.!.!.!.!.",
"!.!.!.!.!.!.!.!.!.!.!.!.!.!.!.!.!.!.!.!.!.v 3 3 @ : : : : : : > > 3 4 4 s s s : : O !.!.!.!.!.!.!.!.!.!.!.!.!.!.!.!.!.!.!.!.!.!.",
"!.!.!.!.!.!.!.!.!.!.!.!.!.!.!.!.!.!.!.!.!.C.> 3 : > > > 3 3 4 s s d s s g j g 4 : : . !.!.!.!.!.!.!.!.!.!.!.!.!.!.!.!.!.!.!.!.!.",
"!.!.!.!.!.!.!.!.!.!.!.!.!.!.!.!.!.!.!.!.!.d > 3 : > : : : 3 4 s d d g c c c v j 4 : @ !.!.!.!.!.!.!.!.!.!.!.!.!.!.!.!.!.!.!.!.!.",
"!.!.!.!.!.!.!.!.!.!.!.!.!.!.!.!.!.!.!.!.!.@ > 3 : > @ : > 3 s d g j c c b b n b j 3 @ @ !.!.!.!.!.!.!.!.!.!.!.!.!.!.!.!.!.!.!.!.",
"!.!.!.!.!.!.!.!.!.!.!.!.!.!.!.!.!.!.!.!.!.O 4 3 @ : @ : > 4 d g g j j c v b n b c d : O !.!.!.!.!.!.!.!.!.!.!.!.!.!.!.!.!.!.!.!.",
"!.!.!.!.!.!.!.!.!.!.!.!.!.!.!.!.!.!.!.!.!.> s : @ : @ : : 4 4 s d d g j c v b n v g 3 O @ !.!.!.!.!.!.!.!.!.!.!.!.!.!.!.!.!.!.!.",
"!.!.!.!.!.!.!.!.!.!.!.!.!.!.!.!.!.!.!.!.3 n j 3 O : : : : 3 4 4 s s d g j c b b v j 4 : @ . !.!.!.!.!.!.!.!.!.!.!.!.!.!.!.!.!.!.",
"!.!.!.!.!.!.!.!.!.!.!.!.!.!.!.!.!.!.!.!.g G.G.4 : : : @ : > > 3 4 s s d d c v b v c s d : @ !.!.!.!.!.!.!.!.!.!.!.!.!.!.!.!.!.!.",
"!.!.!.!.!.!.!.!.!.!.!.!.!.!.!.!.!.!.!.> C.R.W.C.s : : : @ : > 3 3 4 4 s d g c v v v n j 3 @ . !.!.!.!.!.!.!.!.!.!.!.!.!.!.!.!.!.",
"!.!.!.!.!.!.!.!.!.!.!.!.!.!.!.!.!.!.: v U.Q.Q.E.G.: > : : > : > 3 4 4 4 s g j v b c b j 4 > O !.!.!.!.!.!.!.!.!.!.!.!.!.!.!.!.!.",
"!.!.!.!.!.!.!.!.!.!.!.!.!.!.!.!.!.!.j U.W.Q.Q.Q.Q.n @ : : @ : > 3 3 4 s s d j v v 4 s g d 4 : . !.!.!.!.!.!.!.!.!.!.!.!.!.!.!.!.",
"!.!.!.!.!.!.!.!.!.!.!.!.!.!.!.!.!.  J.E.Q.Q.Q.Q.Q.Q.> @ @ : : > > 3 s 4 4 c j c d @ s d d s : O !.!.!.!.!.!.!.!.!.!.!.!.!.!.!.!.",
"!.!.!.!.!.!.!.!.!.!.!.!.!.!.!.!.!.d T.Q.Q.Q.Q.Q.Q.Q.J.: @ : : : > 3 g 4 d j d j d > 4 s s d 3 O !.!.!.!.!.!.!.!.!.!.!.!.!.!.!.!.",
"!.!.!.!.!.!.!.!.!.!.!.!.!.!.!.!.  I.R.Q.Q.Q.Q.Q.Q.Q.Q.S.@ @ > > > 4 v c c s 4 g > > 3 d d g 4 . O !.!.!.!.!.!.!.!.!.!.!.!.!.!.!.",
"!.!.!.!.!.!.!.!.!.!.!.!.!.!.!.!.!.T.W.Q.Q.Q.Q.Q.Q.Q.Q.R.v @ > > > j b n g 4 3 3 @ > s d g g 3 O O !.!.!.!.!.!.!.!.!.!.!.!.!.!.!.",
"!.!.!.!.!.!.!.!.!.!.!.!.!.!.!.!.S.W.Q.Q.Q.Q.Q.Q.Q.Q.Q.Q.U.: : 3 > b C.v d 4 : @ @ 4 s d g j 4 O O !.!.!.!.!.!.!.!.!.!.!.!.!.!.!.",
"!.!.!.!.!.!.!.!.!.!.!.!.!.!.!.!.Y.W.W.Q.Q.Q.Q.Q.Q.Q.Q.Q.R.b @ > 4 C.n j d > @ @ > s d j j j s O O !.!.!.!.!.!.!.!.!.!.!.!.!.!.!.",
"!.!.!.!.!.!.!.!.!.!.!.!.!.!.!.j T.Q.Q.Q.Q.Q.Q.Q.Q.Q.Q.Q.W.J.: > c Z.c b c > : : 3 s s c j j d O   !.!.!.!.!.!.!.!.!.!.!.!.!.!.!.",
"!.!.!.!.!.!.!.!.!.!.!.!.!.!.  D.R.Q.W.Q.Q.Q.Q.Q.Q.Q.Q.Q.Q.T.4 > V.C.c s > 4 : > > s g j g j d O   !.!.!.!.!.!.!.!.!.!.!.!.!.!.!.",
"!.!.!.!.!.!.!.!.!.!.!.!.!.!.@ J.R.W.Q.Q.Q.Q.Q.Q.Q.Q.Q.W.W.E.c 4 D.v 4 3 : : : : > d j c g g d O   !.!.!.!.!.!.!.!.!.!.!.!.!.!.!.",
"!.!.!.!.!.!.!.!.!.!.!.!.!.!.s I.R.W.W.Q.Q.Q.Q.Q.Q.Q.W.W.W.E.b c V.3 3 > > > : : 4 g j c g g s O   !.!.!.!.!.!.!.!.!.!.!.!.!.!.!.",
"!.!.!.!.!.!.!.!.!.!.!.!.!.!.j I.R.E.E.Q.Q.Q.Q.Q.Q.Q.Q.E.E.T.c j 4 > 3 > > : : > s d g c g g d O     !.!.!.!.!.!.!.!.!.!.!.!.!.!.",
"!.!.!.!.!.!.!.!.!.!.!.!.!.!.g I.T.E.W.Q.Q.Q.Q.Q.Q.Q.W.E.E.D.s g > : > : : : 3 3 s d j c j g s .     !.!.!.!.!.!.!.!.!.!.!.!.!.!.",
"!.!.!.!.!.!.!.!.!.!.!.!.!.!.d J.T.E.E.W.Q.Q.W.Q.Q.Q.W.W.F.b j > 3 : : : > 4 > 3 s d j c g g 4 .   !.!.!.!.!.!.!.!.!.!.!.!.!.!.!.",
"!.!.!.!.!.!.!.!.!.!.!.!.!.!.4 J.T.R.E.W.W.W.W.W.Q.W.W.E.Z.j 3 > @ : 3 4 s 3 > 3 s d j v g g 3     !.!.!.!.!.!.!.!.!.!.!.!.!.!.!.",
"!.!.!.!.!.!.!.!.!.!.!.!.!.!.@ J.T.T.E.E.E.E.E.W.E.W.E.E.R.c s @ > 4 s 3 3 3 > 4 s g c c g d >     !.!.!.!.!.!.!.!.!.!.!.!.!.!.!.",
"!.!.!.!.!.!.!.!.!.!.!.!.!.!.@ S.Y.T.T.R.R.E.R.E.E.E.R.R.T.D.Z.> 3 4 3 3 3 3 3 4 s g c c d 4 @     !.!.!.!.!.!.!.!.!.!.!.!.!.!.!.",
"!.!.!.!.!.!.!.!.!.!.!.!.!.!.!.c Y.Y.Y.T.R.R.R.R.R.T.T.T.Y.J.U.3 3 3 3 3 3 3 3 s s g c j s 3 >     !.!.!.!.!.!.!.!.!.!.!.!.!.!.!.",
"!.!.!.!.!.!.!.!.!.!.!.!.!.!.!.> G.Y.Y.Y.Y.T.T.T.T.Y.U.U.I.I.J.3 3 > 3 3 3 3 4 s d j j g s > : O : !.!.!.!.!.!.!.!.!.!.!.!.!.!.!.",
"!.!.!.!.!.!.!.!.!.!.!.!.!.!.!.O v U.U.U.U.Y.Y.Y.U.I.I.I.G.J.S.> 3 3 > 3 3 > 4 s d g g g s > : O w P.!.!.!.!.!.!.!.!.!.!.!.!.!.!.",
"!.!.!.!.!.!.!.!.!.!.!.!.!.!.!.!.4 S.U.I.I.U.U.U.I.I.J.J.F.F.c > > 3 3 3 3 d d s d g d d 4 > 2 H <.9.b.!.!.!.!.!.!.!.!.!.!.!.!.!.",
"!.!.!.!.!.!.!.!.!.!.!.!.!.!.!.!.!.b G.I.I.U.U.I.I.J.J.J.G.D.s > > > 3 > j n v j c d d c d z  .:.2.v.#.!.!.!.!.!.!.!.!.!.!.!.!.!.",
"!.!.!.!.!.!.!.!.!.!.!.!.!.!.!.!.!.!.n J.I.U.U.I.I.I.J.I.G.Z.: : > 3 3 3 b Z.V.Z.n g V.Z.x O.>.,.#.E p.!.!.!.!.!.!.!.!.!.!.!.!.!.",
"!.!.!.!.!.!.!.!.!.!.!.!.!.!.!.!.!.!.@ g F.I.I.J.I.I.U.J.J.j : > > > 3 3 4 b D.V.n Z.S.w.<.>.%.[ W a.!.!.!.!.!.!.!.!.!.!.!.!.!.!.",
"!.!.!.!.!.!.!.!.!.!.!.!.!.!.!.!.!.!.!.O d J.J.G.G.J.I.G.C.: @ > > 3 3 4 4 j F.I.F.A.M.,.:.#.Q T q.!.!.!.!.!.!.!.!.!.!.!.!.!.!.!.",
"!.!.!.!.!.!.!.!.!.!.!.!.!.!.!.!.!.!.!.!.. 3 b n S.F.S.b 3 @ : > > 3 > > 4 D.I.J.L.B.,.&.} W P q F.!.!.!.!.!.!.!.!.!.!.!.!.!.!.!.",
"!.!.!.!.!.!.!.!.!.!.!.!.!.!.!.!.!.!.!.!.!.. . : g g 4 > @ @ : 2 q K E ] { m.N.9.,.>.&.] E ~ f > @ !.!.!.!.!.!.!.!.!.!.!.!.!.!.!.",
"!.!.!.!.!.!.!.!.!.!.!.!.!.!.!.!.!.!.!.!.!.!.. . 3 > @ @ : : > ' >.;.;.;.&.&.%.| ! E Y P U h g d : : !.!.!.!.!.!.!.!.!.!.!.!.!.!.",
"!.!.!.!.!.!.!.!.!.!.!.!.!.!.!.!.!.!.!.!.!.!.!.3 > > @ @ > > > P ] Q W W T P L P P L r t d g g d d > s !.!.!.!.!.!.!.!.!.!.!.!.!.",
"!.!.!.!.!.!.!.!.!.!.!.!.!.!.!.!.!.7.b.n.b.6.6.6.3.K 0 & X . O * ; M N i 8 5 % % @ > 3 3 3 4 s s s s > !.!.!.!.!.!.!.!.!.!.!.!.!.",
"!.!.!.!.!.!.!.!.!.!.!.!.!.!.!.!.8.2.5.4.3.-.-.=.:.:.<.;.;.%.] ^ Z p - o % % % X . O O O @ : > > 3 3 > 3 !.!.!.!.!.!.!.!.!.!.!.!.",
"!.!.!.!.!.!.!.!.!.!.!.!.!.!.!.!.X.) ) ) _ ( R W Q ` ` Q W ) R W ) ` a.K.!.!.!.!.!.!.!.!.@ s > @ @ @ @ 3 !.!.!.!.!.!.!.!.!.!.!.!.",
"!.!.!.!.!.!.!.!.!.!.!.!.!.!.!.!.!.!.!.!.!.!.!.!.!.!.!.!.!.!.!.!.!.!.!.!.!.!.!.!.!.!.!.!.!.!.!.!.!.!.!.!.!.!.!.!.!.!.!.!.!.!.!.!."
};
