/* XPM */
static char *nouveau4[] = {
/* columns rows colors chars-per-pixel */
"64 80 171 2 ",
"   c #030303",
".  c #0B0B0B",
"X  c #16130F",
"o  c #1E170F",
"O  c #141414",
"+  c #1F1911",
"@  c #1C1C1C",
"#  c #261F08",
"$  c #281F0B",
"%  c #221C14",
"&  c #24210F",
"*  c #2B2717",
"=  c #352716",
"-  c #3B2C1B",
";  c #3C3418",
":  c #242424",
">  c #2B2B2B",
",  c #322920",
"<  c #322D28",
"1  c #3A3128",
"2  c #3D3B2C",
"3  c #333333",
"4  c #3B3B3B",
"5  c #473D17",
"6  c #4C341D",
"7  c #563B22",
"8  c #64551C",
"9  c #7F7706",
"0  c #7C6E1A",
"q  c #564D24",
"w  c #454232",
"e  c #4E4033",
"r  c #5E5435",
"t  c #56513E",
"y  c #664628",
"u  c #6E4C29",
"i  c #6F5E22",
"p  c #685236",
"a  c #6D553E",
"s  c #434343",
"d  c #4B4B4B",
"f  c #514E47",
"g  c #545454",
"h  c #5E5C57",
"j  c #5B5B5B",
"k  c #685847",
"l  c #795E44",
"z  c #6C6749",
"x  c #756E48",
"c  c #636363",
"v  c #6C6C6C",
"b  c #737373",
"n  c #7B7B7B",
"m  c #835E3A",
"M  c #816F22",
"N  c #8F7926",
"B  c #8F6337",
"V  c #8F6338",
"C  c #886645",
"Z  c #8B7242",
"A  c #A37040",
"S  c #AB7643",
"D  c #AF7A46",
"F  c #B37B47",
"G  c #B37D4A",
"H  c #96841D",
"J  c #B49B1B",
"K  c #968524",
"L  c #97822D",
"P  c #9D852E",
"I  c #9D8530",
"U  c #9F8A36",
"Y  c #A2872E",
"T  c #A2882D",
"R  c #A98F2E",
"E  c #AE942D",
"W  c #B1962D",
"Q  c #B69A2D",
"!  c #B99E2B",
"~  c #A28A32",
"^  c #AA8E3A",
"/  c #B38C30",
"(  c #AD9332",
")  c #B09532",
"_  c #B49931",
"`  c #B99E32",
"'  c #B5A028",
"]  c #BDA12C",
"[  c #C2A62D",
"{  c #C1AB2B",
"}  c #CBAE2A",
"|  c #CDB02A",
" . c #D5BA22",
".. c #DCBF2B",
"X. c #C4A932",
"o. c #D5A63E",
"O. c #E2C81E",
"+. c #F6E017",
"@. c #FCE11E",
"#. c #DEC12B",
"$. c #E4C625",
"%. c #E6C826",
"&. c #EBCC27",
"*. c #E5C728",
"=. c #E7C82A",
"-. c #EDCF2E",
";. c #EFD027",
":. c #F3D426",
">. c #F7D826",
",. c #FBDB26",
"<. c #F3D429",
"1. c #FCD72B",
"2. c #FDDB2A",
"3. c #E6CA33",
"4. c #E8CC37",
"5. c #F5D831",
"6. c #FCDE34",
"7. c #FBDE3D",
"8. c #FDE036",
"9. c #FDE038",
"0. c #BF8649",
"q. c #BFA95A",
"w. c #BAB07B",
"e. c #C2864B",
"r. c #CA8E4C",
"t. c #CB9049",
"y. c #CD8E50",
"u. c #D29252",
"i. c #E09C58",
"p. c #D2B948",
"a. c #CDB553",
"s. c #F0BA45",
"d. c #F9BF47",
"f. c #F6B84B",
"g. c #FBBF49",
"h. c #EBAC50",
"j. c #F5AA5F",
"k. c #FBAF5E",
"l. c #FCB05B",
"z. c #FBAD61",
"x. c #FDC642",
"c. c #FDC049",
"v. c #EBD042",
"b. c #FDE142",
"n. c #FDE34B",
"m. c #DDCD6F",
"M. c #EAD664",
"N. c #EFDA68",
"B. c #F7DF60",
"V. c #858585",
"C. c #8B8B8B",
"Z. c #949494",
"A. c #999890",
"S. c #9C9C9C",
"D. c #A2A2A2",
"F. c #ACACAC",
"G. c #B4B4B4",
"H. c #BDBCB7",
"J. c #BCBCBC",
"K. c #D2C48F",
"L. c #DED18D",
"P. c #FEEC88",
"I. c #C4C4C4",
"U. c #CBCBCB",
"Y. c #D4D4D4",
"T. c #DCDCDC",
"R. c #E4E4E4",
"E. c #ECECEC",
"W. c #F4F4F4",
"Q. c #FDFDFD",
"!. c None",
/* pixels */
"!.!.!.!.!.!.!.!.!.!.!.!.!.!.!.!.!.!.!.!.!.!.!.!.!.!.!.!.!.!.!.!.!.!.!.!.!.!.!.!.!.!.!.!.!.!.!.!.!.!.!.!.!.!.!.!.!.!.!.!.!.!.!.!.",
"!.!.!.!.!.!.!.!.!.!.!.!.!.!.!.!.!.!.!.!.!.!.!.!.!.!.!.!.!.!.!.!.!.!.!.!.!.!.!.!.!.!.!.!.!.!.!.!.!.!.!.!.!.!.!.!.!.!.!.!.!.!.!.!.",
"!.!.!.!.!.!.!.!.!.!.!.!.!.!.!.!.!.!.!.!.!.!.!.!.!.!.!.!.!.!.!.!.!.!.!.!.!.!.!.!.!.!.!.!.!.!.!.!.!.!.!.!.!.!.!.!.!.!.!.!.!.!.!.!.",
"!.!.!.!.!.!.!.!.!.!.!.!.!.!.!.!.!.!.!.!.!.!.!.!.!.!.!.!.!.!.!.!.!.!.!.!.!.!.!.!.!.!.!.!.!.!.!.!.!.!.!.!.!.!.!.!.!.!.!.!.!.!.!.!.",
"!.!.!.!.!.!.!.!.!.!.!.!.!.!.!.!.!.!.!.!.!.!.!.!.!.!.!.!.!.!.!.!.!.!.!.!.!.!.!.!.!.!.!.!.!.!.!.!.!.!.!.!.!.!.!.!.!.!.!.!.!.!.!.!.",
"!.!.!.!.!.!.!.!.!.!.!.!.!.!.!.!.!.!.!.!.!.!.!.!.!.!.!.!.!.!.!.!.!.!.!.!.!.!.!.!.!.!.!.!.!.!.!.!.!.!.!.!.!.!.!.!.!.!.!.!.!.!.!.!.",
"!.!.!.!.!.!.!.!.!.!.!.!.!.!.!.!.!.!.!.!.!.!.!.!.!.!.!.!.!.!.!.!.!.!.!.!.!.!.!.!.!.!.!.!.!.!.!.!.!.!.!.!.!.!.!.!.!.!.!.!.!.!.!.!.",
"!.!.!.!.!.!.!.!.!.!.!.!.!.!.!.!.!.!.!.!.!.!.!.!.!.!.!.!.!.!.!.!.!.!.!.!.!.!.!.!.!.!.!.!.!.!.!.!.!.!.!.!.!.!.!.!.!.!.!.!.!.!.!.!.",
"!.!.!.!.!.!.!.!.!.!.!.!.!.!.!.!.!.!.!.!.!.!.!.!.!.!.!.!.!.!.!.!.!.!.!.!.!.!.!.!.!.!.!.!.!.!.!.!.!.!.!.!.!.!.!.!.!.!.!.!.!.!.!.!.",
"!.!.!.!.!.!.!.!.!.!.!.!.!.!.!.!.!.!.!.!.!.!.!.!.!.!.!.!.!.!.!.!.!.!.!.!.!.!.!.!.!.!.!.!.!.!.!.!.!.!.!.!.!.!.!.!.!.!.!.!.!.!.!.!.",
"!.!.!.!.!.!.!.!.!.!.!.!.!.!.!.!.!.!.!.!.!.!.!.!.!.!.!.!.!.!.!.!.!.!.!.!.!.!.!.!.!.!.!.!.!.!.!.!.!.!.!.!.!.!.!.!.!.!.!.!.!.!.!.!.",
"!.!.!.!.!.!.!.!.!.!.!.!.!.!.!.!.!.!.!.!.!.!.!.!.!.!.!.!.!.!.!.!.!.!.!.!.!.!.!.!.!.!.!.!.!.!.!.!.!.!.!.!.!.!.!.!.!.!.!.!.!.!.!.!.",
"!.!.!.!.!.!.!.!.!.!.!.!.!.!.!.!.!.!.!.!.!.!.!.!.!.!.!.!.!.!.!.!.!.!.!.!.!.!.!.!.!.!.!.!.!.!.!.!.!.!.!.!.!.!.!.!.!.!.!.!.!.!.!.!.",
"!.!.!.!.!.!.!.!.!.!.!.!.!.!.!.!.!.!.!.!.!.!.!.!.!.!.!.!.!.!.!.!.!.!.!.!.!.!.!.!.!.!.!.!.!.!.!.!.!.!.!.!.!.!.!.!.!.!.!.!.!.!.!.!.",
"!.!.!.!.!.!.!.!.!.!.!.!.!.!.!.!.!.!.!.!.!.!.!.!.!.!.!.!.!.!.!.!.!.!.!.!.!.!.!.!.!.!.!.!.!.!.!.!.!.!.!.!.!.!.!.!.!.!.!.!.!.!.!.!.",
"!.!.!.!.!.!.!.!.!.!.!.!.!.!.!.!.!.!.!.!.!.!.!.!.!.!.!.!.!.!.!.!.!.!.!.!.!.!.!.!.!.!.!.!.!.!.!.!.!.!.!.!.!.!.!.!.!.!.!.!.!.!.!.!.",
"!.!.!.!.!.!.!.!.!.!.!.!.!.!.!.!.!.!.!.!.!.!.!.!.!.!.!.!.!.!.!.!.. .       !.!.!.!.!.!.!.!.!.!.!.!.!.!.!.!.!.!.!.!.!.!.!.!.!.!.!.",
"!.!.!.!.!.!.!.!.!.!.!.!.!.!.!.!.!.!.!.!.!.!.!.!.!.!.!.!.!.. O @ @ : > : @ O     !.!.!.!.!.!.!.!.!.!.!.!.!.!.!.!.!.!.!.!.!.!.!.!.",
"!.!.!.!.!.!.!.!.!.!.!.!.!.!.!.!.!.!.!.!.!.!.!.!.!.!.!.  @ > 4 s d d g d s 4 3 @ . !.!.!.!.!.!.!.!.!.!.!.!.!.!.!.!.!.!.!.!.!.!.!.",
"!.!.!.!.!.!.!.!.!.!.!.!.!.!.!.!.!.!.!.!.!.!.!.!.!.!.. @ 3 d g g d d s 4 4 4 4 4 > O !.!.!.!.!.!.!.!.!.!.!.!.!.!.!.!.!.!.!.!.!.!.",
"!.!.!.!.!.!.!.!.!.!.!.!.!.!.!.!.!.!.!.!.!.!.!.!.!.  O : s j j j g s 4 > 3 3 > 3 4 > X !.!.!.!.!.!.!.!.!.!.!.!.!.!.!.!.!.!.!.!.!.",
"!.!.!.!.!.!.!.!.!.!.!.!.!.!.!.!.!.!.!.!.!.!.!.!.  O > 3 g j j g s 4 3 4 4 4 4 3 > 3 @ . !.!.!.!.!.!.!.!.!.!.!.!.!.!.!.!.!.!.!.!.",
"!.!.!.!.!.!.!.!.!.!.!.!.!.!.!.!.!.!.!.!.!.!.!.!.. 3 > d j j g d d 4 4 4 4 4 v V.j 3 : . !.!.!.!.!.!.!.!.!.!.!.!.!.!.!.!.!.!.!.!.",
"!.!.!.!.!.!.!.!.!.!.!.!.!.!.!.!.!.!.!.!.!.!.!.  O 3 3 g g g g g d 4 4 3 4 Z.U.T.T.v > O !.!.!.!.!.!.!.!.!.!.!.!.!.!.!.!.!.!.!.!.",
"!.!.!.!.!.!.!.!.!.!.!.!.!.!.!.!.!.!.!.!.!.!.!.. > > s d g g g g d 4 4 > j U.R.Y.G.Z.3 O . !.!.!.!.!.!.!.!.!.!.!.!.!.!.!.!.!.!.!.",
"!.!.!.!.!.!.!.!.!.!.!.!.!.!.!.!.!.!.!.!.!.!.!.. 3 : s d g j g g d s 4 : b E.W.c 3 g 4 @ . !.!.!.!.!.!.!.!.!.!.!.!.!.!.!.!.!.!.!.",
"!.!.!.!.!.!.!.!.!.!.!.!.!.!.!.!.!.!.!.!.!.!.!.O 3 : d g j g g g d s 4 > n W.T.3 @ > 4 @ . !.!.!.!.!.!.!.!.!.!.!.!.!.!.!.!.!.!.!.",
"!.!.!.!.!.!.!.!.!.!.!.!.!.!.!.!.!.!.!.!.!.!.!.: 3 > d g j j g d d 4 3 4 S.W.I.3 @ < e = # $ !.!.!.!.!.!.!.!.!.!.!.!.!.!.!.!.!.!.",
"!.!.!.!.!.!.!.!.!.!.!.!.!.!.!.!.!.!.!.!.!.!.!.> > 3 s g c j g d s 4 3 d S.G.G.g , m o.;.%. .J 9 !.!.!.!.!.!.!.!.!.!.!.!.!.!.!.!.",
"!.!.!.!.!.!.!.!.!.!.!.!.!.!.!.!.!.!.!.!.!.!.  @ > s d g j j g d s 4 4 4 g j g k F s.1.,.,.1.,.@.+.O./ u = !.!.!.!.!.!.!.!.!.!.!.",
"!.!.!.!.!.!.!.!.!.!.!.!.!.!.!.!.!.!.!.!.!.!.  . : d d g j g d s 4 3 3 4 4 4 < C i.h.f.d.k.z.k.l.g.x.g.j.S !.!.!.!.!.!.!.!.!.!.!.",
"!.!.!.!.!.!.!.!.!.!.!.!.!.!.!.!.!.!.!.!.!.!.    : s d d j g d 4 4 3 4 4 4 4 > l G D e.t.r.y.u.u.u.e.S B 7 !.!.!.!.!.!.!.!.!.!.!.",
"!.!.!.!.!.!.!.!.!.!.!.!.!.!.!.!.!.!.!.!.!.!.!.. O s d s d d s 4 4 3 4 4 4 3 : : a G S D G A V y 6 !.!.!.!.!.!.!.!.!.!.!.!.!.!.!.",
"!.!.!.!.!.!.!.!.!.!.!.!.!.!.!.!.!.!.!.!.!.!.!.. O 3 s 4 s s s 4 4 3 3 4 4 4 3 > @ > 1 - - !.!.!.!.!.!.!.!.!.!.!.!.!.!.!.!.!.!.!.",
"!.!.!.!.!.!.!.!.!.!.!.!.!.!.!.!.!.!.!.!.!.!.!.O : > 3 3 3 3 4 4 4 4 3 3 3 3 3 > : O @ : !.!.!.!.!.!.!.!.!.!.!.!.!.!.!.!.!.!.!.!.",
"!.!.!.!.!.!.!.!.!.!.!.!.!.!.!.!.!.!.!.!.!.!.  O : > > 3 3 > > > 3 > > : : : : : : > 3 !.!.!.!.!.!.!.!.!.!.!.!.!.!.!.!.!.!.!.!.!.",
"!.!.!.!.!.!.!.!.!.!.!.!.!.!.!.!.!.!.!.!.!.!.. @ : > 3 > > > > > > > > : : @ @ @ @ > 4 !.!.!.!.!.!.!.!.!.!.!.!.!.!.!.!.!.!.!.!.!.",
"!.!.!.!.!.!.!.!.!.!.!.!.!.!.!.!.!.!.!.!.!.!.. : : s d 4 4 4 3 > : : : > : : : : > 3 v !.!.!.!.!.!.!.!.!.!.!.!.!.!.!.!.!.!.!.!.!.",
"!.!.!.!.!.!.!.!.!.!.!.!.!.!.!.!.!.!.!.!.!.. : : 4 g g g s s d s s 3 3 > > > > : 4 > C.!.!.!.!.!.!.!.!.!.!.!.!.!.!.!.!.!.!.!.!.!.",
"!.!.!.!.!.!.!.!.!.!.!.!.!.!.!.!.!.!.!.!.!.@ : 4 j c v v j g d d d 4 3 : : : > : 3 > d !.!.!.!.!.!.!.!.!.!.!.!.!.!.!.!.!.!.!.!.!.",
"!.!.!.!.!.!.!.!.!.!.!.!.!.!.!.!.!.!.!.!.@ @ 3 j b b b b c c j g d s 3 > : @ > : > > @ !.!.!.!.!.!.!.!.!.!.!.!.!.!.!.!.!.!.!.!.!.",
"!.!.!.!.!.!.!.!.!.!.!.!.!.!.!.!.!.!.!.!.O : d c n n n v c j j g g d 4 : : @ : @ 3 4 O !.!.!.!.!.!.!.!.!.!.!.!.!.!.!.!.!.!.!.!.!.",
"!.!.!.!.!.!.!.!.!.!.!.!.!.!.!.!.!.!.!.@ O 3 g v b b v c j g g d s s 3 > @ : : @ > s > !.!.!.!.!.!.!.!.!.!.!.!.!.!.!.!.!.!.!.!.!.",
"!.!.!.!.!.!.!.!.!.!.!.!.!.!.!.!.!.!.. @ : 4 j v b b c j d d s s 4 3 3 : : @ : @ 3 j n 3 !.!.!.!.!.!.!.!.!.!.!.!.!.!.!.!.!.!.!.!.",
"!.!.!.!.!.!.!.!.!.!.!.!.!.!.!.!.!.!.@ : d s c b b v j g d s 4 4 3 3 > : @ : : : 4 G.G.g !.!.!.!.!.!.!.!.!.!.!.!.!.!.!.!.!.!.!.!.",
"!.!.!.!.!.!.!.!.!.!.!.!.!.!.!.!.!.. : > j n c b v c g d s 4 4 4 3 > : @ : : : s C.W.R.C.> !.!.!.!.!.!.!.!.!.!.!.!.!.!.!.!.!.!.!.",
"!.!.!.!.!.!.!.!.!.!.!.!.!.!.!.!.!.@ > 4 j b c b v c g s 4 4 4 3 > : : : : > > F.E.Q.Q.U.v @ !.!.!.!.!.!.!.!.!.!.!.!.!.!.!.!.!.!.",
"!.!.!.!.!.!.!.!.!.!.!.!.!.!.!.!.. : 4 s g d 3 v c j d s s s 3 > > : : : : @ n Q.Q.Q.Q.W.U.j !.!.!.!.!.!.!.!.!.!.!.!.!.!.!.!.!.!.",
"!.!.!.!.!.!.!.!.!.!.!.!.!.!.!.!.O : s d s s O d c j c 4 4 s > > : : : @ @ > Q.Q.Q.Q.Q.Q.E.H.  !.!.!.!.!.!.!.!.!.!.!.!.!.!.!.!.!.",
"!.!.!.!.!.!.!.!.!.!.!.!.!.!.!.!.O > d d s 4 3 d j d j d 4 g 4 > > : : @ : H.Q.Q.Q.Q.Q.Q.Q.T.d !.!.!.!.!.!.!.!.!.!.!.!.!.!.!.!.!.",
"!.!.!.!.!.!.!.!.!.!.!.!.!.!.!.O O 3 g d d 4 > > g 4 s c c v 4 > > : : @ S.W.Q.Q.Q.Q.Q.Q.Q.R.I.  !.!.!.!.!.!.!.!.!.!.!.!.!.!.!.!.",
"!.!.!.!.!.!.!.!.!.!.!.!.!.!.!.O O 4 g d d s > @ 3 4 4 g n b j > > > O v E.Q.Q.Q.Q.Q.Q.Q.Q.W.R.!.!.!.!.!.!.!.!.!.!.!.!.!.!.!.!.!.",
"!.!.!.!.!.!.!.!.!.!.!.!.!.!.!.O O 4 j g d d 3 @ @ @ s d v C.b > 3 : > U.Q.Q.Q.Q.Q.Q.Q.Q.Q.Q.W.S.!.!.!.!.!.!.!.!.!.!.!.!.!.!.!.!.",
"!.!.!.!.!.!.!.!.!.!.!.!.!.!.!.. O s j j g s s > @ @ > d j n C.4 > : b T.Q.Q.Q.Q.Q.Q.Q.Q.Q.Q.W.Y.!.!.!.!.!.!.!.!.!.!.!.!.!.!.!.!.",
"!.!.!.!.!.!.!.!.!.!.!.!.!.!.!.. O d j j c s s 3 : : > c b c Z.c > : J.W.Q.Q.Q.Q.Q.Q.Q.Q.Q.W.Q.T.j !.!.!.!.!.!.!.!.!.!.!.!.!.!.!.",
"!.!.!.!.!.!.!.!.!.!.!.!.!.!.!.  O d j g c g s > > : 3 > s j Z.V.> 4 T.Q.Q.Q.Q.Q.Q.Q.Q.Q.Q.W.Q.R.D.  !.!.!.!.!.!.!.!.!.!.!.!.!.!.",
"!.!.!.!.!.!.!.!.!.!.!.!.!.!.!.  O d g g c j g > : > > : 3 4 v S.4 c E.W.W.W.Q.Q.Q.Q.Q.Q.Q.Q.W.R.J.@ !.!.!.!.!.!.!.!.!.!.!.!.!.!.",
"!.!.!.!.!.!.!.!.!.!.!.!.!.!.!.  O d g g c j g 4 : : : > > 3 3 C.c b E.W.W.Q.Q.Q.Q.Q.Q.Q.Q.W.W.R.I.s !.!.!.!.!.!.!.!.!.!.!.!.!.!.",
"!.!.!.!.!.!.!.!.!.!.!.!.!.!.    O d g g c g d s : : : > > > > 4 j c T.E.W.W.Q.Q.Q.Q.Q.Q.Q.W.E.R.I.j !.!.!.!.!.!.!.!.!.!.!.!.!.!.",
"!.!.!.!.!.!.!.!.!.!.!.!.!.!.    . s g g c g d s > 3 > : : > : > g s D.R.E.Q.Q.Q.Q.Q.Q.Q.W.W.R.R.I.j !.!.!.!.!.!.!.!.!.!.!.!.!.!.",
"!.!.!.!.!.!.!.!.!.!.!.!.!.!.!.  . 4 g j c j d s 3 3 4 > : : > 3 > j v G.E.Q.Q.Q.Q.Q.Q.Q.W.W.R.T.H.d !.!.!.!.!.!.!.!.!.!.!.!.!.!.",
"!.!.!.!.!.!.!.!.!.!.!.!.!.!.!.  . 3 d g c c d s 3 > 3 4 4 > : @ > 3 j Z.E.W.Q.W.W.W.W.W.W.E.R.T.J.4 !.!.!.!.!.!.!.!.!.!.!.!.!.!.",
"!.!.!.!.!.!.!.!.!.!.!.!.!.!.!.    : d g c c g s 4 > 3 3 4 s 4 > @ d c R.R.W.W.E.W.E.W.E.E.R.T.T.J.@ !.!.!.!.!.!.!.!.!.!.!.!.!.!.",
"!.!.!.!.!.!.!.!.!.!.!.!.!.!.!.    : 4 d c c g s 4 3 3 3 3 3 4 3 > Z.S.R.R.R.R.E.R.R.R.R.R.R.T.Y.D.O !.!.!.!.!.!.!.!.!.!.!.!.!.!.",
"!.!.!.!.!.!.!.!.!.!.!.!.!.!.!.    : 4 s j c g s w 3 3 3 3 3 3 3 3 U.I.Y.T.T.R.R.R.R.T.T.T.Y.Y.Y.c !.!.!.!.!.!.!.!.!.!.!.!.!.!.!.",
"!.!.!.!.!.!.!.!.!.!.!.!.!.!.!.: O : > s g c j d s 4 4 3 > 3 > 3 > J.I.I.U.U.Y.T.T.T.T.T.Y.Y.Y.G.> !.!.!.!.!.!.!.!.!.!.!.!.!.!.!.",
"!.!.!.!.!.!.!.!.!.!.!.!.!.!.P.w O : : s d g g d s 4 3 3 3 > 3 3 > S.J.G.I.I.I.U.Y.Y.Y.U.U.U.U.v O !.!.!.!.!.!.!.!.!.!.!.!.!.!.!.",
"!.!.!.!.!.!.!.!.!.!.!.!.!.b.9.<.K 2 > 4 d d g d s d d 3 3 3 3 > > c F.F.J.J.I.I.U.U.U.I.I.U.S.4 !.!.!.!.!.!.!.!.!.!.!.!.!.!.!.!.",
"!.!.!.!.!.!.!.!.!.!.!.!.!.#.v.2.:. .z d c d d c j c n j > 3 > > > 4 D.G.J.J.J.I.I.U.I.I.U.F.n !.!.!.!.!.!.!.!.!.!.!.!.!.!.!.!.!.",
"!.!.!.!.!.!.!.!.!.!.!.!.!.p.E #.,.,.$.x S.n g n Z.C.Z.b 3 3 > > > : S.G.I.J.I.I.I.I.U.U.I.n !.!.!.!.!.!.!.!.!.!.!.!.!.!.!.!.!.!.",
"!.!.!.!.!.!.!.!.!.!.!.!.!.!.a.Q [ %.>.:.w.S.Z.n C.S.b 4 3 3 > > > @ j J.J.U.I.I.J.I.I.F.d @ !.!.!.!.!.!.!.!.!.!.!.!.!.!.!.!.!.!.",
"!.!.!.!.!.!.!.!.!.!.!.!.!.!.!.q.T ! #.:.,.M.A.F.I.G.j 4 3 3 3 3 : : : V.J.I.J.G.G.J.J.d O !.!.!.!.!.!.!.!.!.!.!.!.!.!.!.!.!.!.!.",
"!.!.!.!.!.!.!.!.!.!.!.!.!.!.!.F.q I W | &.,.B.L.H.I.D.4 > > > > > : @ 3 b S.F.S.n b > . !.!.!.!.!.!.!.!.!.!.!.!.!.!.!.!.!.!.!.!.",
"!.!.!.!.!.!.!.!.!.!.!.!.!.!.!.@ > f ~ E ] %.,.,.7.N.m.{ { E K q 2 > @ @ > 4 g g : . . !.!.!.!.!.!.!.!.!.!.!.!.!.!.!.!.!.!.!.!.!.",
"!.!.!.!.!.!.!.!.!.!.!.!.!.!.: : d g h ~ I Y E ! X.%.%.&.;.;.;.>.' : > : @ @ > 3 . . !.!.!.!.!.!.!.!.!.!.!.!.!.!.!.!.!.!.!.!.!.!.",
"!.!.!.!.!.!.!.!.!.!.!.!.!.s > d g d g d t r L I I I I T W W ! ] P > > : @ @ > > 4 !.!.!.!.!.!.!.!.!.!.!.!.!.!.!.!.!.!.!.!.!.!.!.",
"!.!.!.!.!.!.!.!.!.!.!.!.!.> s d s s 4 3 3 3 > @ @ % 5 8 i N M ; * O X X & 0 K 3.6.6.6.b.n.b.7.!.!.!.!.!.!.!.!.!.!.!.!.!.!.!.!.!.",
"!.!.!.!.!.!.!.!.!.!.!.!.3 > 3 > > > @ @ @ O X . X % % + + - p Z ^ ] *.&.:.<.:.<.=.-.-.3.4.5.2.9.!.!.!.!.!.!.!.!.!.!.!.!.!.!.!.!.",
"!.!.!.!.!.!.!.!.!.!.!.!.3 @ @ @ @ > d O !.!.!.!.!.!.!.!.K.a.` E W R E _ W Q Q Q E ( ( _ ) ) _ X.!.!.!.!.!.!.!.!.!.!.!.!.!.!.!.!.",
"!.!.!.!.!.!.!.!.!.!.!.!.!.!.!.!.!.!.!.!.!.!.!.!.!.!.!.!.!.!.!.!.!.!.!.!.!.!.!.!.!.!.!.!.!.!.!.!.!.!.!.!.!.!.!.!.!.!.!.!.!.!.!.!."
};
