/* XPM */
static char *nouveau0[] = {
/* columns rows colors chars-per-pixel */
"64 80 202 2 ",
"   c #030303",
".  c #0C0C0B",
"X  c #16130F",
"o  c #141414",
"O  c #181612",
"+  c #1C1C1C",
"@  c #231B0A",
"#  c #201D12",
"$  c #211F1D",
"%  c #21201E",
"&  c #372615",
"*  c #3A2D1A",
"=  c #393214",
"-  c #3C341D",
";  c #232323",
":  c #292725",
">  c #2C2C2C",
",  c #332D26",
"<  c #312F2D",
"1  c #30302F",
"2  c #3A322A",
"3  c #333333",
"4  c #3A3836",
"5  c #3B3B3B",
"6  c #40350C",
"7  c #423518",
"8  c #4C341D",
"9  c #473C1F",
"0  c #483E19",
"q  c #413620",
"w  c #433A20",
"e  c #44392F",
"r  c #4B3A28",
"t  c #563B22",
"y  c #514315",
"u  c #574915",
"i  c #584A11",
"p  c #5C4E19",
"a  c #7C7406",
"s  c #4E492F",
"d  c #514521",
"f  c #4A4636",
"g  c #45433D",
"h  c #5A4734",
"j  c #5A4934",
"k  c #595437",
"l  c #684827",
"z  c #664628",
"x  c #6C4E2F",
"c  c #674C32",
"v  c #635431",
"b  c #6C543E",
"n  c #7C662D",
"m  c #434343",
"M  c #4C4C4C",
"N  c #534B43",
"B  c #5C564F",
"V  c #545454",
"C  c #5B5B5B",
"Z  c #6A5440",
"A  c #745D47",
"S  c #655A50",
"D  c #676243",
"F  c #7E6145",
"G  c #636363",
"H  c #6B6B6B",
"J  c #7B786B",
"K  c #737373",
"L  c #7A7A7A",
"P  c #8D7B1D",
"I  c #907D15",
"U  c #81692C",
"Y  c #967627",
"T  c #8F6337",
"R  c #866D31",
"E  c #8F6338",
"W  c #8C7F38",
"Q  c #937732",
"!  c #967C35",
"~  c #9A7E33",
"^  c #93733B",
"/  c #9B723C",
"(  c #937A38",
")  c #A17E3A",
"_  c #816041",
"`  c #967F44",
"'  c #826C51",
"]  c #A37040",
"[  c #AB7642",
"{  c #B27B46",
"}  c #B17D49",
"|  c #A4980D",
" . c #A39114",
".. c #BCAA12",
"X. c #9F8626",
"o. c #9D8428",
"O. c #9E8335",
"+. c #9B8B37",
"@. c #91833B",
"#. c #9D8A39",
"$. c #A58B27",
"%. c #A88F27",
"&. c #A58C2B",
"*. c #AB8F2B",
"=. c #A99226",
"-. c #AC952B",
";. c #B29B24",
":. c #B49A2B",
">. c #A28534",
",. c #A48934",
"<. c #AA8E33",
"1. c #AD8739",
"2. c #A78C3E",
"3. c #AB8F39",
"4. c #B48F37",
"5. c #B78F3B",
"6. c #B0963E",
"7. c #BA9238",
"8. c #BEA22D",
"9. c #C9AE1E",
"0. c #C4A72E",
"q. c #CCAE2C",
"w. c #DDBF23",
"e. c #D3B62B",
"r. c #C7A43C",
"t. c #C2A83F",
"y. c #DCAF3B",
"u. c #D8B43B",
"i. c #E2B53A",
"p. c #DEC12F",
"a. c #DBC13D",
"s. c #EBC926",
"d. c #F0CF27",
"f. c #F5D62B",
"g. c #FBD52D",
"h. c #FACD35",
"j. c #F6C738",
"k. c #FCCC39",
"l. c #EED036",
"z. c #FCD033",
"x. c #F3D13D",
"c. c #F9DA3B",
"v. c #FDE036",
"b. c #FDE03A",
"n. c #8F8756",
"m. c #A78E40",
"M. c #B78147",
"N. c #B38B40",
"B. c #AD9444",
"V. c #B49A4A",
"C. c #878267",
"Z. c #858273",
"A. c #8A8674",
"S. c #BEAF69",
"D. c #C2864C",
"F. c #C2884C",
"G. c #D2974A",
"H. c #CF8F50",
"J. c #D59453",
"K. c #DC9A53",
"L. c #E09B56",
"P. c #C4A442",
"I. c #C3AE43",
"U. c #DEAE43",
"Y. c #DCA148",
"T. c #DDAE4A",
"R. c #D6BC46",
"E. c #DFBA47",
"W. c #DDB75B",
"Q. c #EDB545",
"!. c #E2BB42",
"~. c #E6CE42",
"^. c #E8C14B",
"/. c #F7DD5E",
"(. c #FDE34C",
"). c #FEE65B",
"_. c #E6C875",
"`. c #F2D675",
"'. c #848484",
"]. c #8B8B8B",
"[. c #91908C",
"{. c #949494",
"}. c #9D9D9D",
"|. c #ACA99D",
" X c #BAB595",
".X c #A4A4A4",
"XX c #A8A8A8",
"oX c #B3B3B3",
"OX c #BCBCBC",
"+X c #FCEB86",
"@X c #FEED8A",
"#X c #C2C0B6",
"$X c #E1D3AB",
"%X c #C3C3C3",
"&X c #CBCBCB",
"*X c #D4D4D4",
"=X c #DCDCDC",
"-X c #E4E4E4",
";X c #ECECEC",
":X c #F4F4F4",
">X c #FDFDFD",
",X c None",
/* pixels */
",X,X,X,X,X,X,X,X,X,X,X,X,X,X,X,X,X,X,X,X,X,X,X,X,X,X,X,X,X,X,X,X,X,X,X,X,X,X,X,X,X,X,X,X,X,X,X,X,X,X,X,X,X,X,X,X,X,X,X,X,X,X,X,X",
",X,X,X,X,X,X,X,X,X,X,X,X,X,X,X,X,X,X,X,X,X,X,X,X,X,X,X,X,X,X,X,X,X,X,X,X,X,X,X,X,X,X,X,X,X,X,X,X,X,X,X,X,X,X,X,X,X,X,X,X,X,X,X,X",
",X,X,X,X,X,X,X,X,X,X,X,X,X,X,X,X,X,X,X,X,X,X,X,X,X,X,X,X,X,X,X,X,X,X,X,X,X,X,X,X,X,X,X,X,X,X,X,X,X,X,X,X,X,X,X,X,X,X,X,X,X,X,X,X",
",X,X,X,X,X,X,X,X,X,X,X,X,X,X,X,X,X,X,X,X,X,X,X,X,X,X,X,X,X,X,X,X,X,X,X,X,X,X,X,X,X,X,X,X,X,X,X,X,X,X,X,X,X,X,X,X,X,X,X,X,X,X,X,X",
",X,X,X,X,X,X,X,X,X,X,X,X,X,X,X,X,X,X,X,X,X,X,X,X,X,X,X,X,X,X,X,X,X,X,X,X,X,X,X,X,X,X,X,X,X,X,X,X,X,X,X,X,X,X,X,X,X,X,X,X,X,X,X,X",
",X,X,X,X,X,X,X,X,X,X,X,X,X,X,X,X,X,X,X,X,X,X,X,X,X,X,X,X,X,X,X,X,X,X,X,X,X,X,X,X,X,X,X,X,X,X,X,X,X,X,X,X,X,X,X,X,X,X,X,X,X,X,X,X",
",X,X,X,X,X,X,X,X,X,X,X,X,X,X,X,X,X,X,X,X,X,X,X,X,X,X,X,X,X,X,X,X,X,X,X,X,X,X,X,X,X,X,X,X,X,X,X,X,X,X,X,X,X,X,X,X,X,X,X,X,X,X,X,X",
",X,X,X,X,X,X,X,X,X,X,X,X,X,X,X,X,X,X,X,X,X,X,X,X,X,X,X,X,X,X,X,X,X,X,X,X,X,X,X,X,X,X,X,X,X,X,X,X,X,X,X,X,X,X,X,X,X,X,X,X,X,X,X,X",
",X,X,X,X,X,X,X,X,X,X,X,X,X,X,X,X,X,X,X,X,X,X,X,X,X,X,X,X,X,X,X,X,X,X,X,X,X,X,X,X,X,X,X,X,X,X,X,X,X,X,X,X,X,X,X,X,X,X,X,X,X,X,X,X",
",X,X,X,X,X,X,X,X,X,X,X,X,X,X,X,X,X,X,X,X,X,X,X,X,X,X,X,X,X,X,X,X,X,X,X,X,X,X,X,X,X,X,X,X,X,X,X,X,X,X,X,X,X,X,X,X,X,X,X,X,X,X,X,X",
",X,X,X,X,X,X,X,X,X,X,X,X,X,X,X,X,X,X,X,X,X,X,X,X,X,X,X,X,X,X,X,X,X,X,X,X,X,X,X,X,X,X,X,X,X,X,X,X,X,X,X,X,X,X,X,X,X,X,X,X,X,X,X,X",
",X,X,X,X,X,X,X,X,X,X,X,X,X,X,X,X,X,X,X,X,X,X,X,X,X,X,X,X,X,X,X,X,X,X,X,X,X,X,X,X,X,X,X,X,X,X,X,X,X,X,X,X,X,X,X,X,X,X,X,X,X,X,X,X",
",X,X,X,X,X,X,X,X,X,X,X,X,X,X,X,X,X,X,X,X,X,X,X,X,X,X,X,X,X,X,X,X,X,X,X,X,X,X,X,X,X,X,X,X,X,X,X,X,X,X,X,X,X,X,X,X,X,X,X,X,X,X,X,X",
",X,X,X,X,X,X,X,X,X,X,X,X,X,X,X,X,X,X,X,X,X,X,X,X,X,X,X,X,X,X,X,X,X,X,X,X,X,X,X,X,X,X,X,X,X,X,X,X,X,X,X,X,X,X,X,X,X,X,X,X,X,X,X,X",
",X,X,X,X,X,X,X,X,X,X,X,X,X,X,X,X,X,X,X,X,X,X,X,X,X,X,X,X,X,X,X,X,X,X,X,X,X,X,X,X,X,X,X,X,X,X,X,X,X,X,X,X,X,X,X,X,X,X,X,X,X,X,X,X",
",X,X,X,X,X,X,X,X,X,X,X,X,X,X,X,X,X,X,X,X,X,X,X,X,X,X,X,X,X,X,X,X. . .     ,X,X,X,X,X,X,X,X,X,X,X,X,X,X,X,X,X,X,X,X,X,X,X,X,X,X,X",
",X,X,X,X,X,X,X,X,X,X,X,X,X,X,X,X,X,X,X,X,X,X,X,X,X,X,X,X,X. o + o + + + o .     ,X,X,X,X,X,X,X,X,X,X,X,X,X,X,X,X,X,X,X,X,X,X,X,X",
",X,X,X,X,X,X,X,X,X,X,X,X,X,X,X,X,X,X,X,X,X,X,X,X,X,X,X. o % ; > 1 5 5 5 5 > ; o . ,X,X,X,X,X,X,X,X,X,X,X,X,X,X,X,X,X,X,X,X,X,X,X",
",X,X,X,X,X,X,X,X,X,X,X,X,X,X,X,X,X,X,X,X,X,X,X,X,X,X  o ; 3 m M M M M m m 5 5 > + o ,X,X,X,X,X,X,X,X,X,X,X,X,X,X,X,X,X,X,X,X,X,X",
",X,X,X,X,X,X,X,X,X,X,X,X,X,X,X,X,X,X,X,X,X,X,X,X,X  o % 5 M V C V m 5 3 3 3 5 3 1 ; . ,X,X,X,X,X,X,X,X,X,X,X,X,X,X,X,X,X,X,X,X,X",
",X,X,X,X,X,X,X,X,X,X,X,X,X,X,X,X,X,X,X,X,X,X,X,X  o % > M C C V M m 3 3 3 3 3 5 4 1 o . ,X,X,X,X,X,X,X,X,X,X,X,X,X,X,X,X,X,X,X,X",
",X,X,X,X,X,X,X,X,X,X,X,X,X,X,X,X,X,X,X,X,X,X,X,X  > ; m C C V V m 5 3 5 4 4 5 3 3 3 ; . ,X,X,X,X,X,X,X,X,X,X,X,X,X,X,X,X,X,X,X,X",
",X,X,X,X,X,X,X,X,X,X,X,X,X,X,X,X,X,X,X,X,X,X,X  o 3 > V C V V M M 5 5 5 5 m K .XXXM : o   ,X,X,X,X,X,X,X,X,X,X,X,X,X,X,X,X,X,X,X",
",X,X,X,X,X,X,X,X,X,X,X,X,X,X,X,X,X,X,X,X,X,X,X  ; 1 4 V V V V V M m 3 1 5 {.&X*X%X'.1 o . ,X,X,X,X,X,X,X,X,X,X,X,X,X,X,X,X,X,X,X",
",X,X,X,X,X,X,X,X,X,X,X,X,X,X,X,X,X,X,X,X,X,X,X. 1 > m M V V V V M 5 5 > C &X-X{.V H 3 + . ,X,X,X,X,X,X,X,X,X,X,X,X,X,X,X,X,X,X,X",
",X,X,X,X,X,X,X,X,X,X,X,X,X,X,X,X,X,X,X,X,X,X,Xo 3 ; M M C V C V M m 3 > K ;X:XM ; m 4 + . ,X,X,X,X,X,X,X,X,X,X,X,X,X,X,X,X,X,X,X",
",X,X,X,X,X,X,X,X,X,X,X,X,X,X,X,X,X,X,X,X,X,X,Xo 3 > M M C V V V M m 5 3 ].:X*X3 + > 4 ; . @ ,X,X,X,X,X,X,X,X,X,X,X,X,X,X,X,X,X,X",
",X,X,X,X,X,X,X,X,X,X,X,X,X,X,X,X,X,X,X,X,X,X,Xo 1 1 M V C C V M m 5 3 m }.*XOX5 ; 2 j 7 6 i I a ,X,X,X,X,X,X,X,X,X,X,X,X,X,X,X,X",
",X,X,X,X,X,X,X,X,X,X,X,X,X,X,X,X,X,X,X,X,X,X  . > 4 m V G C V M m 5 5 5 K '.K V r / y.d.s.w.9...|  .Y l & ,X,X,X,X,X,X,X,X,X,X,X",
",X,X,X,X,X,X,X,X,X,X,X,X,X,X,X,X,X,X,X,X,X,X  . ; m M V C V V m 5 5 3 5 m M 3 F F.Q.z.g.z.k.k.k.h.j.Q.L.[ ,X,X,X,X,X,X,X,X,X,X,X",
",X,X,X,X,X,X,X,X,X,X,X,X,X,X,X,X,X,X,X,X,X,X  . ; M M V C V M m 5 3 5 5 5 4 > F D.F.G.Y.K.J.J.J.H.D.[ T t ,X,X,X,X,X,X,X,X,X,X,X",
",X,X,X,X,X,X,X,X,X,X,X,X,X,X,X,X,X,X,X,X,X,X    + m M m V V m 5 3 5 4 5 5 4 : e _ } { M.{ ] T z 8 ,X,X,X,X,X,X,X,X,X,X,X,X,X,X,X",
",X,X,X,X,X,X,X,X,X,X,X,X,X,X,X,X,X,X,X,X,X,X  . + 5 m m m m m 5 5 3 5 5 5 5 > > , h c x * ,X,X,X,X,X,X,X,X,X,X,X,X,X,X,X,X,X,X,X",
",X,X,X,X,X,X,X,X,X,X,X,X,X,X,X,X,X,X,X,X,X,X  o + 1 3 5 5 5 5 5 5 4 3 3 3 3 1 > % + $ ; ,X,X,X,X,X,X,X,X,X,X,X,X,X,X,X,X,X,X,X,X",
",X,X,X,X,X,X,X,X,X,X,X,X,X,X,X,X,X,X,X,X,X,X  o + > > 3 3 > 1 3 3 3 1 > > ; ; ; ; % > ,X,X,X,X,X,X,X,X,X,X,X,X,X,X,X,X,X,X,X,X,X",
",X,X,X,X,X,X,X,X,X,X,X,X,X,X,X,X,X,X,X,X,X,X  + ; 1 > 1 1 > > > > > > ; ; % ; % + > 1 ,X,X,X,X,X,X,X,X,X,X,X,X,X,X,X,X,X,X,X,X,X",
",X,X,X,X,X,X,X,X,X,X,X,X,X,X,X,X,X,X,X,X,X,Xo % ; 3 5 3 3 3 > > > ; ; ; ; ; ; % ; 3 + ,X,X,X,X,X,X,X,X,X,X,X,X,X,X,X,X,X,X,X,X,X",
",X,X,X,X,X,X,X,X,X,X,X,X,X,X,X,X,X,X,X,X,X. + ; > m M m 5 5 5 5 3 1 1 > > ; > ; 3 1 . ,X,X,X,X,X,X,X,X,X,X,X,X,X,X,X,X,X,X,X,X,X",
",X,X,X,X,X,X,X,X,X,X,X,X,X,X,X,X,X,X,X,X,X+ ; > m C C C M M M m m 5 3 > ; ; > ; 3 1   ,X,X,X,X,X,X,X,X,X,X,X,X,X,X,X,X,X,X,X,X,X",
",X,X,X,X,X,X,X,X,X,X,X,X,X,X,X,X,X,X,X,Xo o > m G H H H G V V V m m 5 > ; ; ; % 3 >   ,X,X,X,X,X,X,X,X,X,X,X,X,X,X,X,X,X,X,X,X,X",
",X,X,X,X,X,X,X,X,X,X,X,X,X,X,X,X,X,X,X,Xo % 5 C K K K K G G C V M M 5 ; ; + ; + 1 >   ,X,X,X,X,X,X,X,X,X,X,X,X,X,X,X,X,X,X,X,X,X",
",X,X,X,X,X,X,X,X,X,X,X,X,X,X,X,X,X,X,Xo + > M H L L K H C C V M M m 3 > ; ; ; + > 3 . ,X,X,X,X,X,X,X,X,X,X,X,X,X,X,X,X,X,X,X,X,X",
",X,X,X,X,X,X,X,X,X,X,X,X,X,X,X,X,X,X. + + 5 V H L K H C V M M M m 5 3 ; ; + ; + ; m > ; ,X,X,X,X,X,X,X,X,X,X,X,X,X,X,X,X,X,X,X,X",
",X,X,X,X,X,X,X,X,X,X,X,X,X,X,X,X,X,X+ % > 5 V H K H G V M m m 5 5 3 > ; % ; ; ; 3 C L 3 ,X,X,X,X,X,X,X,X,X,X,X,X,X,X,X,X,X,X,X,X",
",X,X,X,X,X,X,X,X,X,X,X,X,X,X,X,X,X. ; ; 5 m m H K G C M m m 5 5 1 > > + ; ; ; ; m oXoXV ; ,X,X,X,X,X,X,X,X,X,X,X,X,X,X,X,X,X,X,X",
",X,X,X,X,X,X,X,X,X,X,X,X,X,X,X,X,X% ; 3 ; 5 m C H G V M 5 5 5 3 1 ; ; ; ; ; > m '.:X-X{.3 % ,X,X,X,X,X,X,X,X,X,X,X,X,X,X,X,X,X,X",
",X,X,X,X,X,X,X,X,X,X,X,X,X,X,X,X. % 3 1 1 ; 5 M G C M m 5 5 3 3 > ; ; ; ; > > oX:X:X>X&XK 3 ,X,X,X,X,X,X,X,X,X,X,X,X,X,X,X,X,X,X",
",X,X,X,X,X,X,X,X,X,X,X,X,X,X,X,Xo ; m ; 1 5 ; V V V M M V 3 3 1 ; ; ; % ; + L :X>X>X>X:X&XH . ,X,X,X,X,X,X,X,X,X,X,X,X,X,X,X,X,X",
",X,X,X,X,X,X,X,X,X,X,X,X,X,X,X,Xo > m ; > 3 > 5 G V m M V 3 1 > > ; ; o + > >X>X>X>X>X>X;XOXo ,X,X,X,X,X,X,X,X,X,X,X,X,X,X,X,X,X",
",X,X,X,X,X,X,X,X,X,X,X,X,X,X,Xo . 3 m ; ; 5 5 M V M G H m 5 > > > ; + + + OX>X>X>X>X>X>X:X-XL   ,X,X,X,X,X,X,X,X,X,X,X,X,X,X,X,X",
",X,X,X,X,X,X,X,X,X,X,X,X,X,X,Xo o 1 3 ; ; 5 5 M G V K G 3 3 > > > > +   3 :X>X>X>X>X>X>X>X-X%X. ,X,X,X,X,X,X,X,X,X,X,X,X,X,X,X,X",
",X,X,X,X,X,X,X,X,X,X,X,X,X,X,Xo o > > + > 3 m C H L G M 3 1 > > 1 ; o o -X>X>X>X>X>X>X>X>X:X=XG   ,X,X,X,X,X,X,X,X,X,X,X,X,X,X,X",
",X,X,X,X,X,X,X,X,X,X,X,X,X,X,Xo o 1 ; + ; m M C L H G m 3 1 > > 1 + . 5 >X>X>X>X>X>X>X>X>X:X:XoX  ,X,X,X,X,X,X,X,X,X,X,X,X,X,X,X",
",X,X,X,X,X,X,X,X,X,X,X,X,X,X,X. o 1 + + 3 M V H L M G 3 1 3 > > 1 + + V >X>X>X>X>X>X>X>X>X>X>X&X>   ,X,X,X,X,X,X,X,X,X,X,X,X,X,X",
",X,X,X,X,X,X,X,X,X,X,X,X,X,X,X  o 3 % ; m C G '.5 V V 3 3 3 > > o ; + G >X>X>X>X>X>X>X>X>X:X>X=XL   ,X,X,X,X,X,X,X,X,X,X,X,X,X,X",
",X,X,X,X,X,X,X,X,X,X,X,X,X,X,X  o 3 ; ; m C ].C 5 G V 3 1 1 > > . 1 ; K >X>X>X>X>X>X>X>X>X:X>X-X.X. ,X,X,X,X,X,X,X,X,X,X,X,X,X,X",
",X,X,X,X,X,X,X,X,X,X,X,X,X,X,X  o 1 ; ; 5 K }.m 5 K V 1 3 3 > > . 3 o '.:X>X>X>X>X>X>X>X>X>X:X-XOX1 ,X,X,X,X,X,X,X,X,X,X,X,X,X,X",
",X,X,X,X,X,X,X,X,X,X,X,X,X,X    o 5 1 > M L K m 3 G m 3 3 3 > 1 . > ; H :X:X>X>X>X>X>X>X>X:X:X-XOXV ,X,X,X,X,X,X,X,X,X,X,X,X,X,X",
",X,X,X,X,X,X,X,X,X,X,X,X,X,X    . m m 3 m K C 5 3 C 5 3 3 3 > : . ; + G -X>X>X>X>X>X>X>X>X:X;X-X%XC ,X,X,X,X,X,X,X,X,X,X,X,X,X,X",
",X,X,X,X,X,X,X,X,X,X,X,X,X,X,X  . m V M m G C m 3 m 5 3 3 3 1 1 . . + C %X:X>X>X>X>X>X>X:X:X;X=X%XM ,X,X,X,X,X,X,X,X,X,X,X,X,X,X",
",X,X,X,X,X,X,X,X,X,X,X,X,X,X,X  . 3 V G H M V M 3 3 3 3 3 3 3 1 o   . 1 OX:X>X>X>X:X>X>X:X:X;X=XOX5 ,X,X,X,X,X,X,X,X,X,X,X,X,X,X",
",X,X,X,X,X,X,X,X,X,X,X,X,X,X,X  . > M H L G M M m 3 3 3 3 3 3 1 o o   ; 1 :X:X:X:X:X:X:X:X;X-X=XOX; ,X,X,X,X,X,X,X,X,X,X,X,X,X,X",
",X,X,X,X,X,X,X,X,X,X,X,X,X,X,X    ; m V H G V m V 5 3 3 3 3 3 1 . ;   . ; XX;X;X;X;X;X;X;X-X=X*XXX5 ,X,X,X,X,X,X,X,X,X,X,X,X,X,X",
",X,X,X,X,X,X,X,X,X,X,X,X,X,X,X  . : 3 M C G V M 5 3 3 3 3 3 3 1 + +     o ; %X-X-X-X-X-X-X=X=X*XK H ,X@X(.q.f.,X,X,X,X,X,X,X,X,X",
",X,X,X,X,X,X,X,X,X,X,X,X,X,X,X    ; 1 m C C C M m 3 3 3 3 3 3 3 + %     . > > OX=X=X=X*X=X*X*XOXV oX,X).v.0.q.q.R.,X,X,X,X,X,X,X",
",X,X,X,X,X,X,X,X,X,X,X,X,X,X,X    ; ; m V C V M m 5 3 3 3 3 3 > ; > .     + V + '.*X*X&X&X&X&XL J +X).^.l.4.) ,X,X,X,X,X,X,X,X,X",
",X,X,X,X,X,X,X,X,X,X,X,X,X,X,X    % + 4 M M V M m 5 5 3 3 > 3 > > > +     m > V m *X*X&X%XL H n.~.b.c.E.7.^ V.,X,X,X,X,X,X,X,X,X",
",X,X,X,X,X,X,X,X,X,X,X,X,X,X,X,X  o o ; M M V M m m 5 3 3 3 3 > > 3 o     % 1 > ; &X&X%X'.H J @.I.x.T.1.^ 6.,X,X,X,X,X,X,X,X,X,X",
",X,X,X,X,X,X,X,X,X,X,X,X,X,X,X,X  . o + 5 M M m m m 5 3 3 1 > > > ; 1     . ; o 5 {.%X*X%X].C.@.!.T.7.^ 2.,X,X,X,X,X,X,X,X,X,X,X",
",X,X,X,X,X,X,X,X,X,X,X,X,X,X,X,X  . o o : M M 5 5 5 5 5 3 3 > > ; ; 5 > o . . + > M }.%X%XZ.+.r.U.4.^ 3.,X,X,X,X,X,X,X,X,X,X,X,X",
",X,X,X,X,X,X,X,X,X,X,X,X,X,X,X,Xo o % % % 3 m m 3 3 3 3 3 3 3 > > % ; o + % 3 4 m G ].XXL A.P.i.<.~ P.,X,X,X,X,X,X,X,X,X,X,X,X,X",
",X,X,X,X,X,X,X,X,X,X,X,X,X,X,X,Xo % 3 3 3 > 5 5 5 5 3 > 3 1 3 > > % + o o > m m 3 1 XXH D O.E.m.,.,X,X,X,X,X,X,X,X,X,X,X,X,X,X,X",
",X,X,X,X,X,X,X,X,X,X,X,X,X,X,X; % 5 M M M 5 3 1 3 5 5 3 1 > 1 > > ; + % ; 3 C 1 . o m f ` u.#.3.,X,X,X,X,X,X,X,X,X,X,X,X,X,X,X,X",
",X,X,X,X,X,X,X,X,X,X,X,X,X,X; ; 5 M C C M m 5 1 > 3 5 5 3 > > ; > ; ; ; ; : m K o + k _.W.O.O.,X,X,X,X,X,X,X,X,X,X,X,X,X,X,X,X,X",
",X,X,X,X,X,X,X,X,X,X,X,X,X3 ; 5 V M V M m 5 1 > ; ; ; ; 1 3 1 > > : 3 M C H '.}.f s $X`.B.! ,X,X,X,X,X,X,X,X,X,X,X,X,X,X,X,X,X,X",
",X,X,X,X,X,X,X,X,X,X,X,X,X> m M m M M m 5 5 1 : % % ; ; ; > 1 1 1 1 : C L {.|.#X XS./.*.,.,X,X,X,X,X,X,X,X,X,X,X,X,X,X,X,X,X,X,X",
",X,X,X,X,X,X,X,X,X,X,X,X; ; 5 5 > > ; % 3 1 < ; % O X = + 0 d - w w - d #.I.a.p.q.i.>.e.,X,X,X,X,X,X,X,X,X,X,X,X,X,X,X,X,X,X,X,X",
",X,X,X,X,X,X,X,X,X,X,X,X4 + + + + 1 N % : , - 0 p y u P -.-.-.:.*.$.&.-.:.0.:.:.N.^ ,.,X,X,X,X,X,X,X,X,X,X,X,X,X,X,X,X,X,X,X,X,X",
",X,X,X,X,X,X,X,X,X,X,X,X,X; 1 S Z Z A F v n n n U R ! ( -.;.-.-.%.*.X.o.&.*.*.*.,X,X,X,X,X,X,X,X,X,X,X,X,X,X,X,X,X,X,X,X,X,X,X,X",
",X,X,X,X,X,X,X,X,X,X,X,X,X,X,X,X,X,X,X,X,X,X,X,X,X,X,X,X,X,X,X,X,X,X,X,X,X,X,X,X,X,X,X,X,X,X,X,X,X,X,X,X,X,X,X,X,X,X,X,X,X,X,X,X"
};
