/* XPM */
static char *nouveau1[] = {
/* columns rows colors chars-per-pixel */
"64 80 136 2 ",
"   c #030303",
".  c #0E0A07",
"X  c #0C0C0C",
"o  c #100F0F",
"O  c #1A120A",
"+  c #141414",
"@  c #1E1C12",
"#  c #1C1C1C",
"$  c #261F08",
"%  c #281F0B",
"&  c #352716",
"*  c #362E19",
"=  c #3C2C1C",
"-  c #373114",
";  c #3C331C",
":  c #242424",
">  c #2C2C2C",
",  c #332A21",
"<  c #322D28",
"1  c #333333",
"2  c #3B3B3B",
"3  c #4C341D",
"4  c #443A1C",
"5  c #563B22",
"6  c #4A4019",
"7  c #574B14",
"8  c #7F7706",
"9  c #514620",
"0  c #4E4033",
"q  c #664628",
"w  c #6E4C29",
"e  c #6D553E",
"r  c #434343",
"t  c #4B4B4B",
"y  c #545454",
"u  c #5B5B5B",
"i  c #685847",
"p  c #795E44",
"a  c #636363",
"s  c #6C6C6C",
"d  c #747474",
"f  c #7A7A7A",
"g  c #835E3A",
"h  c #8F6337",
"j  c #8F6338",
"k  c #886645",
"l  c #A37040",
"z  c #AB7643",
"x  c #AF7A46",
"c  c #B37B47",
"v  c #B37D4A",
"b  c #97841D",
"n  c #98851E",
"m  c #B49B1B",
"M  c #9D8724",
"N  c #9E852A",
"B  c #A48B25",
"V  c #A68C2B",
"C  c #AA8E2C",
"Z  c #AB9225",
"A  c #AF9B25",
"S  c #AD922E",
"D  c #B19B20",
"F  c #B4992B",
"G  c #BA9E2C",
"H  c #A08D35",
"J  c #B38C30",
"K  c #AD9130",
"L  c #B59C3C",
"P  c #BDA12A",
"I  c #BBA030",
"U  c #C4A82C",
"Y  c #CEB12A",
"T  c #D5B921",
"R  c #D6B92A",
"E  c #C6AA31",
"W  c #C4AC3A",
"Q  c #D5A63E",
"!  c #E2C81E",
"~  c #F6E017",
"^  c #FCE11E",
"/  c #DEC12C",
"(  c #E7C625",
")  c #EECD27",
"_  c #E1C42E",
"`  c #EDCE28",
"'  c #FDDC26",
"]  c #F2D329",
"[  c #FCD72B",
"{  c #FDDA2A",
"}  c #E4C731",
"|  c #E0C63D",
" . c #FADD34",
".. c #FBDF3F",
"X. c #BF8649",
"o. c #BAB074",
"O. c #C2864B",
"+. c #CA8E4C",
"@. c #CB9049",
"#. c #CD8E50",
"$. c #D29252",
"%. c #E09C58",
"&. c #F0BA45",
"*. c #F9BF47",
"=. c #F6B84B",
"-. c #FBBF49",
";. c #EBAC50",
":. c #F5AA5F",
">. c #FBAF5E",
",. c #FCB05B",
"<. c #FBAD61",
"1. c #FDC642",
"2. c #FDC049",
"3. c #FCE147",
"4. c #FCE148",
"5. c #FDE352",
"6. c #FBE465",
"7. c #858585",
"8. c #8E8E8E",
"9. c #939393",
"0. c #9B9B9B",
"q. c #A4A4A4",
"w. c #ABABAB",
"e. c #B1B0A4",
"r. c #B4B4B4",
"t. c #BBBBBB",
"y. c #C4C4C4",
"u. c #CDCCC7",
"i. c #CBCBCB",
"p. c #D4D4D4",
"a. c #DCDCDC",
"s. c #E4E4E4",
"d. c #ECECEC",
"f. c #F4F4F4",
"g. c #FDFDFD",
"h. c None",
/* pixels */
"h.h.h.h.h.h.h.h.h.h.h.h.h.h.h.h.h.h.h.h.h.h.h.h.h.h.h.h.h.h.h.h.h.h.h.h.h.h.h.h.h.h.h.h.h.h.h.h.h.h.h.h.h.h.h.h.h.h.h.h.h.h.h.h.",
"h.h.h.h.h.h.h.h.h.h.h.h.h.h.h.h.h.h.h.h.h.h.h.h.h.h.h.h.h.h.h.h.h.h.h.h.h.h.h.h.h.h.h.h.h.h.h.h.h.h.h.h.h.h.h.h.h.h.h.h.h.h.h.h.",
"h.h.h.h.h.h.h.h.h.h.h.h.h.h.h.h.h.h.h.h.h.h.h.h.h.h.h.h.h.h.h.h.h.h.h.h.h.h.h.h.h.h.h.h.h.h.h.h.h.h.h.h.h.h.h.h.h.h.h.h.h.h.h.h.",
"h.h.h.h.h.h.h.h.h.h.h.h.h.h.h.h.h.h.h.h.h.h.h.h.h.h.h.h.h.h.h.h.h.h.h.h.h.h.h.h.h.h.h.h.h.h.h.h.h.h.h.h.h.h.h.h.h.h.h.h.h.h.h.h.",
"h.h.h.h.h.h.h.h.h.h.h.h.h.h.h.h.h.h.h.h.h.h.h.h.h.h.h.h.h.h.h.h.h.h.h.h.h.h.h.h.h.h.h.h.h.h.h.h.h.h.h.h.h.h.h.h.h.h.h.h.h.h.h.h.",
"h.h.h.h.h.h.h.h.h.h.h.h.h.h.h.h.h.h.h.h.h.h.h.h.h.h.h.h.h.h.h.h.h.h.h.h.h.h.h.h.h.h.h.h.h.h.h.h.h.h.h.h.h.h.h.h.h.h.h.h.h.h.h.h.",
"h.h.h.h.h.h.h.h.h.h.h.h.h.h.h.h.h.h.h.h.h.h.h.h.h.h.h.h.h.h.h.h.h.h.h.h.h.h.h.h.h.h.h.h.h.h.h.h.h.h.h.h.h.h.h.h.h.h.h.h.h.h.h.h.",
"h.h.h.h.h.h.h.h.h.h.h.h.h.h.h.h.h.h.h.h.h.h.h.h.h.h.h.h.h.h.h.h.h.h.h.h.h.h.h.h.h.h.h.h.h.h.h.h.h.h.h.h.h.h.h.h.h.h.h.h.h.h.h.h.",
"h.h.h.h.h.h.h.h.h.h.h.h.h.h.h.h.h.h.h.h.h.h.h.h.h.h.h.h.h.h.h.h.h.h.h.h.h.h.h.h.h.h.h.h.h.h.h.h.h.h.h.h.h.h.h.h.h.h.h.h.h.h.h.h.",
"h.h.h.h.h.h.h.h.h.h.h.h.h.h.h.h.h.h.h.h.h.h.h.h.h.h.h.h.h.h.h.h.h.h.h.h.h.h.h.h.h.h.h.h.h.h.h.h.h.h.h.h.h.h.h.h.h.h.h.h.h.h.h.h.",
"h.h.h.h.h.h.h.h.h.h.h.h.h.h.h.h.h.h.h.h.h.h.h.h.h.h.h.h.h.h.h.h.h.h.h.h.h.h.h.h.h.h.h.h.h.h.h.h.h.h.h.h.h.h.h.h.h.h.h.h.h.h.h.h.",
"h.h.h.h.h.h.h.h.h.h.h.h.h.h.h.h.h.h.h.h.h.h.h.h.h.h.h.h.h.h.h.h.h.h.h.h.h.h.h.h.h.h.h.h.h.h.h.h.h.h.h.h.h.h.h.h.h.h.h.h.h.h.h.h.",
"h.h.h.h.h.h.h.h.h.h.h.h.h.h.h.h.h.h.h.h.h.h.h.h.h.h.h.h.h.h.h.h.h.h.h.h.h.h.h.h.h.h.h.h.h.h.h.h.h.h.h.h.h.h.h.h.h.h.h.h.h.h.h.h.",
"h.h.h.h.h.h.h.h.h.h.h.h.h.h.h.h.h.h.h.h.h.h.h.h.h.h.h.h.h.h.h.h.h.h.h.h.h.h.h.h.h.h.h.h.h.h.h.h.h.h.h.h.h.h.h.h.h.h.h.h.h.h.h.h.",
"h.h.h.h.h.h.h.h.h.h.h.h.h.h.h.h.h.h.h.h.h.h.h.h.h.h.h.h.h.h.h.h.h.h.h.h.h.h.h.h.h.h.h.h.h.h.h.h.h.h.h.h.h.h.h.h.h.h.h.h.h.h.h.h.",
"h.h.h.h.h.h.h.h.h.h.h.h.h.h.h.h.h.h.h.h.h.h.h.h.h.h.h.h.h.h.h.h.h.h.h.h.h.h.h.h.h.h.h.h.h.h.h.h.h.h.h.h.h.h.h.h.h.h.h.h.h.h.h.h.",
"h.h.h.h.h.h.h.h.h.h.h.h.h.h.h.h.h.h.h.h.h.h.h.h.h.h.h.h.h.h.h.h.X X X     h.h.h.h.h.h.h.h.h.h.h.h.h.h.h.h.h.h.h.h.h.h.h.h.h.h.h.",
"h.h.h.h.h.h.h.h.h.h.h.h.h.h.h.h.h.h.h.h.h.h.h.h.h.h.h.h.h.+ # # # : : : # +     h.h.h.h.h.h.h.h.h.h.h.h.h.h.h.h.h.h.h.h.h.h.h.h.",
"h.h.h.h.h.h.h.h.h.h.h.h.h.h.h.h.h.h.h.h.h.h.h.h.h.h.h.X # > 2 r t t y t r 2 1 + X h.h.h.h.h.h.h.h.h.h.h.h.h.h.h.h.h.h.h.h.h.h.h.",
"h.h.h.h.h.h.h.h.h.h.h.h.h.h.h.h.h.h.h.h.h.h.h.h.h.h.  + 1 r y y t t r 2 2 2 2 2 > + h.h.h.h.h.h.h.h.h.h.h.h.h.h.h.h.h.h.h.h.h.h.",
"h.h.h.h.h.h.h.h.h.h.h.h.h.h.h.h.h.h.h.h.h.h.h.h.h.  # > r y u u y r 2 > 1 1 1 2 1 > X h.h.h.h.h.h.h.h.h.h.h.h.h.h.h.h.h.h.h.h.h.",
"h.h.h.h.h.h.h.h.h.h.h.h.h.h.h.h.h.h.h.h.h.h.h.h.  + : 1 u u u y r 2 1 2 2 1 1 1 1 1 # X h.h.h.h.h.h.h.h.h.h.h.h.h.h.h.h.h.h.h.h.",
"h.h.h.h.h.h.h.h.h.h.h.h.h.h.h.h.h.h.h.h.h.h.h.h.X 1 : t u y y t t 2 2 2 2 r s 7.u 1 : X h.h.h.h.h.h.h.h.h.h.h.h.h.h.h.h.h.h.h.h.",
"h.h.h.h.h.h.h.h.h.h.h.h.h.h.h.h.h.h.h.h.h.h.h.  + 1 1 u y y y y t 2 2 1 1 0.i.a.a.s > + h.h.h.h.h.h.h.h.h.h.h.h.h.h.h.h.h.h.h.h.",
"h.h.h.h.h.h.h.h.h.h.h.h.h.h.h.h.h.h.h.h.h.h.h.X > 1 r t y u y y t 2 2 > u i.s.p.r.9.1 # X h.h.h.h.h.h.h.h.h.h.h.h.h.h.h.h.h.h.h.",
"h.h.h.h.h.h.h.h.h.h.h.h.h.h.h.h.h.h.h.h.h.h.h.X > : r t y y y y t r 2 : s d.f.a 1 t 2 # X h.h.h.h.h.h.h.h.h.h.h.h.h.h.h.h.h.h.h.",
"h.h.h.h.h.h.h.h.h.h.h.h.h.h.h.h.h.h.h.h.h.h.h.+ 1 > t t u y y y t r 1 > f f.a.1 # > 2 # X h.h.h.h.h.h.h.h.h.h.h.h.h.h.h.h.h.h.h.",
"h.h.h.h.h.h.h.h.h.h.h.h.h.h.h.h.h.h.h.h.h.h.h.+ > > t y u u y y t 2 2 2 q.f.y.1 : < 0 & $ $ h.h.h.h.h.h.h.h.h.h.h.h.h.h.h.h.h.h.",
"h.h.h.h.h.h.h.h.h.h.h.h.h.h.h.h.h.h.h.h.h.h.h.+ > 1 r y a u y t r 2 1 t 0.r.r.y * g Q ) ( T m 8 h.h.h.h.h.h.h.h.h.h.h.h.h.h.h.h.",
"h.h.h.h.h.h.h.h.h.h.h.h.h.h.h.h.h.h.h.h.h.h.  X > r t y u u t t r 2 2 2 y u y i c &.[ { { [ ' ^ ~ ! J w & h.h.h.h.h.h.h.h.h.h.h.",
"h.h.h.h.h.h.h.h.h.h.h.h.h.h.h.h.h.h.h.h.h.h.  X : t t y u y t r 2 1 2 2 2 2 < k %.;.=.*.>.<.>.,.-.1.-.:.z h.h.h.h.h.h.h.h.h.h.h.",
"h.h.h.h.h.h.h.h.h.h.h.h.h.h.h.h.h.h.h.h.h.h.    : t t t u y t 2 2 1 1 2 2 2 > p v x X.+.+.#.$.$.$.O.z h 5 h.h.h.h.h.h.h.h.h.h.h.",
"h.h.h.h.h.h.h.h.h.h.h.h.h.h.h.h.h.h.h.h.h.h.h.X # r t r t t t 2 2 1 2 2 2 1 : > e c z x c l j q 3 h.h.h.h.h.h.h.h.h.h.h.h.h.h.h.",
"h.h.h.h.h.h.h.h.h.h.h.h.h.h.h.h.h.h.h.h.h.h.h.X + 1 r 2 r r r 2 2 1 1 2 2 2 1 > : : , = = h.h.h.h.h.h.h.h.h.h.h.h.h.h.h.h.h.h.h.",
"h.h.h.h.h.h.h.h.h.h.h.h.h.h.h.h.h.h.h.h.h.h.h.o # > 1 1 1 > 2 2 2 1 1 1 > 1 1 > : X # : h.h.h.h.h.h.h.h.h.h.h.h.h.h.h.h.h.h.h.h.",
"h.h.h.h.h.h.h.h.h.h.h.h.h.h.h.h.h.h.h.h.h.h.  + # 1 > 1 1 > > > 1 1 > : : : : : # > 1 h.h.h.h.h.h.h.h.h.h.h.h.h.h.h.h.h.h.h.h.h.",
"h.h.h.h.h.h.h.h.h.h.h.h.h.h.h.h.h.h.h.h.h.h.X # : > > > > > : > > > > > : : # # # > > h.h.h.h.h.h.h.h.h.h.h.h.h.h.h.h.h.h.h.h.h.",
"h.h.h.h.h.h.h.h.h.h.h.h.h.h.h.h.h.h.h.h.h.h.X : > r r r 2 2 1 > : : : : : : > # 1 1 h.h.h.h.h.h.h.h.h.h.h.h.h.h.h.h.h.h.h.h.h.h.",
"h.h.h.h.h.h.h.h.h.h.h.h.h.h.h.h.h.h.h.h.h.o : : 2 y u y r r t t r 1 1 > : > > : 2 > h.h.h.h.h.h.h.h.h.h.h.h.h.h.h.h.h.h.h.h.h.h.",
"h.h.h.h.h.h.h.h.h.h.h.h.h.h.h.h.h.h.h.h.h.# : 2 u a s a a t t t t 2 1 > : : > : 1 >   h.h.h.h.h.h.h.h.h.h.h.h.h.h.h.h.h.h.h.h.h.",
"h.h.h.h.h.h.h.h.h.h.h.h.h.h.h.h.h.h.h.h.# + 1 u s f d s s a u t t 2 1 > : # > : > >   h.h.h.h.h.h.h.h.h.h.h.h.h.h.h.h.h.h.h.h.h.",
"h.h.h.h.h.h.h.h.h.h.h.h.h.h.h.h.h.h.h.h.+ : t a f f f s a u u y y t 2 > : # : # 1 1   h.h.h.h.h.h.h.h.h.h.h.h.h.h.h.h.h.h.h.h.h.",
"h.h.h.h.h.h.h.h.h.h.h.h.h.h.h.h.h.h.h.# + 1 y s f d s a u y t t r r 1 > : : : # : r : h.h.h.h.h.h.h.h.h.h.h.h.h.h.h.h.h.h.h.h.h.",
"h.h.h.h.h.h.h.h.h.h.h.h.h.h.h.h.h.h.X # 1 t y s f s a u t t t r 2 1 1 : # : : + 1 u f 1 h.h.h.h.h.h.h.h.h.h.h.h.h.h.h.h.h.h.h.h.",
"h.h.h.h.h.h.h.h.h.h.h.h.h.h.h.h.h.h.: : y t t s s s a t t r r 2 1 1 > : # : > : 2 r.r.t h.h.h.h.h.h.h.h.h.h.h.h.h.h.h.h.h.h.h.h.",
"h.h.h.h.h.h.h.h.h.h.h.h.h.h.h.h.h.: : : : 2 r u s a y t r 2 2 1 1 > : # : : : r 7.f.s.9.> h.h.h.h.h.h.h.h.h.h.h.h.h.h.h.h.h.h.h.",
"h.h.h.h.h.h.h.h.h.h.h.h.h.h.h.h.h.# > > > # 1 r a a y r 2 2 2 1 > > : : : > > r.d.g.g.i.s # h.h.h.h.h.h.h.h.h.h.h.h.h.h.h.h.h.h.",
"h.h.h.h.h.h.h.h.h.h.h.h.h.h.h.h.X : 2 > > r + t y y t r 2 2 1 1 > # : : : # f f.g.g.g.f.i.u h.h.h.h.h.h.h.h.h.h.h.h.h.h.h.h.h.h.",
"h.h.h.h.h.h.h.h.h.h.h.h.h.h.h.h.+ : r 1 : 2 # : s a t 2 2 1 1 > : : : # # > g.g.g.g.g.g.d.t.  h.h.h.h.h.h.h.h.h.h.h.h.h.h.h.h.h.",
"h.h.h.h.h.h.h.h.h.h.h.h.h.h.h.h.o 1 t 1 # 2 1 2 u u s s 1 1 > > > : : : # t.g.g.g.g.g.g.f.a.t h.h.h.h.h.h.h.h.h.h.h.h.h.h.h.h.h.",
"h.h.h.h.h.h.h.h.h.h.h.h.h.h.h.+ X 1 t > # > > 1 t t d s 1 2 1 > > : #   1 f.g.g.g.g.g.g.g.d.y.  h.h.h.h.h.h.h.h.h.h.h.h.h.h.h.h.",
"h.h.h.h.h.h.h.h.h.h.h.h.h.h.h.+ + 1 1 : 1 : : r t y d y 1 1 > > > > X + d.g.g.g.g.g.g.g.g.d.s.h.h.h.h.h.h.h.h.h.h.h.h.h.h.h.h.h.",
"h.h.h.h.h.h.h.h.h.h.h.h.h.h.h.+ + 1 > : > > : 2 y a f r 1 1 > > 1 > X 2 g.g.g.g.g.g.g.g.g.f.f.0.h.h.h.h.h.h.h.h.h.h.h.h.h.h.h.h.",
"h.h.h.h.h.h.h.h.h.h.h.h.h.h.h.# + 2 : # > # : 1 y s f 2 > 1 > > > # # y g.g.g.g.g.g.g.g.g.f.g.p.h.h.h.h.h.h.h.h.h.h.h.h.h.h.h.h.",
"h.h.h.h.h.h.h.h.h.h.h.h.h.h.h.+ + r : # : > : 2 y 7.s 1 1 > > > 1 : # a g.g.g.g.g.g.g.g.g.f.g.a.u h.h.h.h.h.h.h.h.h.h.h.h.h.h.h.",
"h.h.h.h.h.h.h.h.h.h.h.h.h.h.h.X + r 1 # : : > 1 u 9.s 1 1 1 > > # 1 : s f.g.g.g.g.g.g.g.g.f.f.s.q.  h.h.h.h.h.h.h.h.h.h.h.h.h.h.",
"h.h.h.h.h.h.h.h.h.h.h.h.h.h.h.X + r 1 # : : > 1 y w.u 1 1 1 > > + 1 + 7.f.g.g.g.g.g.g.g.g.f.f.d.t.# h.h.h.h.h.h.h.h.h.h.h.h.h.h.",
"h.h.h.h.h.h.h.h.h.h.h.h.h.h.h.X + t 2 # r > > : y w.t 1 1 1 > 1 + > : a f.f.g.g.g.g.g.g.g.f.d.s.y.r h.h.h.h.h.h.h.h.h.h.h.h.h.h.",
"h.h.h.h.h.h.h.h.h.h.h.h.h.h.  X X t y : 1 r > : t 9.r 1 1 1 > > X > # a d.f.g.g.g.g.g.g.g.f.d.s.y.u h.h.h.h.h.h.h.h.h.h.h.h.h.h.",
"h.h.h.h.h.h.h.h.h.h.h.h.h.h.  X X r y r > t 2 r r 0.r 1 1 1 1 > X X # a i.f.g.g.g.g.g.g.f.f.d.s.t.u h.h.h.h.h.h.h.h.h.h.h.h.h.h.",
"h.h.h.h.h.h.h.h.h.h.h.h.h.h.h.  X 2 y u u 1 2 a 2 d 1 1 1 1 1 1     + > y.f.g.g.f.g.g.g.f.d.d.s.t.t h.h.h.h.h.h.h.h.h.h.h.h.h.h.",
"h.h.h.h.h.h.h.h.h.h.h.h.h.h.h.  X 1 t y a u t y a y > 1 1 1 1 > #     : > f.f.f.f.f.f.f.d.d.s.a.t.2 h.h.h.h.h.h.h.h.h.h.h.h.h.h.",
"h.h.h.h.h.h.h.h.h.h.h.h.h.h.h.    > r y s u y r s t 1 1 1 1 1 1 : X   X : w.f.f.d.d.d.d.d.d.a.p.t.# h.h.h.h.h.h.h.h.h.h.h.h.h.h.",
"h.h.h.h.h.h.h.h.h.h.h.h.h.h.h.    : 2 y a a y r 2 1 1 1 1 1 1 1 > X     + > i.d.d.s.d.s.s.s.a.p.0.# h.h.h.h.h.h.h.h.h.h.h.h.h.h.",
"h.h.h.h.h.h.h.h.h.h.h.h.h.h.h.    > 1 r u a u t 2 1 1 1 1 1 1 1 1 >     X > > y.s.s.s.a.a.p.p.p.a h.h.h.h.h.h.h.h.h.h.h.h.h.h.h.",
"h.h.h.h.h.h.h.h.h.h.h.h.h.h.h.    # > r y u y t r 2 1 1 1 1 1 > : u X     # u # 8.a.a.p.p.p.p.r.> h.h.h.h.h.h.h.h.h.h.h.h.h.h.h.",
"h.h.h.h.h.h.h.h.h.h.h.h.h.h.h.    # > r y y u t r 2 1 1 1 1 1 > > u #     t > y t p.p.i.i.i.y.s + h.h.h.h.h.h.h.h.h.h.h.h.h.h.h.",
"h.h.h.h.h.h.h.h.h.h.h.h.h.h.h.      # 1 t r y t r r 2 1 1 > 1 1 > r X     # > > : i.i.y.y.i.0.2 h.h.h.h.h.h.h.h.h.h.h.h.h.h.h.h.",
"h.h.h.h.h.h.h.h.h.h.h.h.h.h.h.h.    + # t t t t t 2 2 1 1 1 > > > > #     X : + 1 9.i.y.y.w.t h.h.h.h.h.h.h.h.h.h.h.h.h.h.h.h.h.",
"h.h.h.h.h.h.h.h.h.h.h.h.h.h.h.h.    + + 2 t r r r r 2 2 1 > > > > : 1 X + X   + : r t.y.y.h.h.h.h.h.h.h.h.h.h.h.h.h.h.h.h.h.h.h.",
"h.h.h.h.h.h.h.h.h.h.h.h.h.h.h.h.h.X # # : r t r 1 1 2 2 1 1 1 > > # : # X # > X + > t.r.d f h.h.h.h.h.h.h.h.h.h.h.h.h.h.h.h.h.h.",
"h.h.h.h.h.h.h.h.h.h.h.h.h.h.h.h.+ # > : # 1 r r 2 1 > 1 1 1 1 > > # # # X # r +   : w.s r h.h.h.h.h.h.h.h.h.h.h.h.h.h.h.h.h.h.h.",
"h.h.h.h.h.h.h.h.h.h.h.h.h.h.h.h.+ : r r 2 > 1 2 2 2 1 > > > 1 > > : + 2 r 8.0.1   + r > t h.h.h.h.h.h.h.h.h.h.h.h.h.h.h.h.h.h.h.",
"h.h.h.h.h.h.h.h.h.h.h.h.h.h.h.# 1 t u y y 2 1 1 1 2 2 1 1 > > : > : 1 d 9.0.r.9.+ X > h.h.h.h.h.h.h.h.h.h.h.h.h.h.h.h.h.h.h.h.h.",
"h.h.h.h.h.h.h.h.h.h.h.h.h.h.: : t y u u t r 2 > > > 1 2 2 1 1 > > : 2 0.r.q.r.t.1 > s.h.h.h.h.h.h.h.h.h.h.h.h.h.h.h.h.h.h.h.h.h.",
"h.h.h.h.h.h.h.h.h.h.h.h.h.> > t t t y t r 2 > > : : : : : > 1 1 1 > > a 8.q.r.u.e.o.6.4... . .5.h.h.h.h.h.h.h.h.h.h.h.h.h.h.h.h.",
"h.h.h.h.h.h.h.h.h.h.h.h.h.> r t r r 2 1 1 1 > : + o o - @ 6 4 ; ; 4 * 9 H W | _ Y Y U R ) ] ]  .3.h.h.h.h.h.h.h.h.h.h.h.h.h.h.h.",
"h.h.h.h.h.h.h.h.h.h.h.h.# : 1 > > > : # + + X   . O O 7 n n M Z B N C Z F P G I F K N C K I E / } h.h.h.h.h.h.h.h.h.h.h.h.h.h.h.",
"h.h.h.h.h.h.h.h.h.h.h.h.+ # # # + +     h.h.h.h.h.h.h.h.A D Z Z B B B N B Z C C K K K K C C C K L h.h.h.h.h.h.h.h.h.h.h.h.h.h.h.",
"h.h.h.h.h.h.h.h.h.h.h.h.h.h.h.h.h.h.h.h.h.h.h.h.h.h.h.h.h.h.h.h.h.h.h.h.h.h.h.h.h.h.h.h.h.h.h.h.h.h.h.h.h.h.h.h.h.h.h.h.h.h.h.h."
};
