/* XPM */
static char *nouveauinverse2[] = {
/* columns rows colors chars-per-pixel */
"64 80 173 2 ",
"   c #030303",
".  c #0C0C0C",
"X  c #110F0E",
"o  c #1F180F",
"O  c #141313",
"+  c #1C1C1B",
"@  c #261F08",
"#  c #281F0B",
"$  c #221C12",
"%  c #25221A",
"&  c #352716",
"*  c #32281D",
"=  c #3D2D1D",
"-  c #242424",
";  c #2B2B2B",
":  c #332A21",
">  c #322D28",
",  c #3E342A",
"<  c #333333",
"1  c #3B3B3B",
"2  c #4C341D",
"3  c #563B22",
"4  c #4D3F31",
"5  c #7F7706",
"6  c #4E4033",
"7  c #4A4339",
"8  c #5D543A",
"9  c #664628",
"0  c #6E4C29",
"q  c #6D553E",
"w  c #7C6C39",
"e  c #434343",
"r  c #4B4B4B",
"t  c #545454",
"y  c #5B5B5B",
"u  c #685847",
"i  c #795E44",
"p  c #69624F",
"a  c #646464",
"s  c #6B6B6B",
"d  c #7C786A",
"f  c #737373",
"g  c #7C7C7C",
"h  c #835E3A",
"j  c #8F6337",
"k  c #8F6338",
"l  c #886645",
"z  c #897E52",
"x  c #A37040",
"c  c #AB7643",
"v  c #AF7A46",
"b  c #B37B47",
"n  c #B37D4A",
"m  c #B49B1B",
"M  c #9E822D",
"N  c #9D8235",
"B  c #A68A2D",
"V  c #AB8E2C",
"C  c #AF912D",
"Z  c #B3942E",
"A  c #BB9C2F",
"S  c #A78C33",
"D  c #A98D33",
"F  c #A68C3D",
"G  c #A88E38",
"H  c #B38C30",
"J  c #AE9132",
"K  c #B19534",
"L  c #BA9C33",
"P  c #B0963A",
"I  c #B79E3F",
"U  c #B89B3E",
"Y  c #BEA22B",
"T  c #C6A92D",
"R  c #CCAF2B",
"E  c #D5B921",
"W  c #DABD2A",
"Q  c #C7A431",
"!  c #C8A533",
"~  c #CEAC3C",
"^  c #D4AE34",
"/  c #D5A63E",
"(  c #D9B336",
")  c #D9BD33",
"_  c #DABF3B",
"`  c #E8BE32",
"'  c #E4BE38",
"]  c #E2C81E",
"[  c #F6E017",
"{  c #FCE11E",
"}  c #DEC02B",
"|  c #DDC23B",
" . c #E7C625",
".. c #EBCB27",
"X. c #E1C329",
"o. c #EDCE28",
"O. c #FDDC26",
"+. c #F3D52F",
"@. c #FCD72B",
"#. c #FBD92A",
"$. c #EEC536",
"%. c #E6CA39",
"&. c #F8CC36",
"*. c #F8CE3C",
"=. c #BF8649",
"-. c #AA934B",
";. c #B09B41",
":. c #AE9752",
">. c #A59B5E",
",. c #AF9A5B",
"<. c #B09B5C",
"1. c #BEA44D",
"2. c #BFA654",
"3. c #BCAA51",
"4. c #8F806F",
"5. c #958C61",
"6. c #988E6C",
"7. c #A1997E",
"8. c #C2864B",
"9. c #CA8E4C",
"0. c #CB9049",
"q. c #CD8E50",
"w. c #D29252",
"e. c #E09C58",
"r. c #D8B64A",
"t. c #C2A851",
"y. c #C7B554",
"u. c #C9B056",
"i. c #F0BA45",
"p. c #F9BF47",
"a. c #F6B84B",
"s. c #FBBF49",
"d. c #EBAC50",
"f. c #F5AA5F",
"g. c #FBAF5E",
"h. c #FCB05B",
"j. c #FBAD61",
"k. c #D6C048",
"l. c #DFC15B",
"z. c #E4CB47",
"x. c #FDC642",
"c. c #F8CF40",
"v. c #FDC049",
"b. c #EFCB51",
"n. c #F9D351",
"m. c #DDC87F",
"M. c #F2D77B",
"N. c #838383",
"B. c #8B8B8B",
"V. c #939393",
"C. c #9D9D9D",
"Z. c #A79684",
"A. c #B1AC99",
"S. c #A3A3A3",
"D. c #A8A7A7",
"F. c #ABABAB",
"G. c #B6B0A3",
"H. c #B4B4B4",
"J. c #BCBCBC",
"K. c #C0B6A5",
"L. c #C7BCAA",
"P. c #E8D698",
"I. c #EEDB9B",
"U. c #FBE084",
"Y. c #C4C4C4",
"T. c #CBCBCB",
"R. c #D4D4D4",
"E. c #DCDCDC",
"W. c #E4E4E4",
"Q. c #ECECEC",
"!. c #F4F4F4",
"~. c #FDFDFD",
"^. c None",
/* pixels */
"^.^.^.^.^.^.^.^.^.^.^.^.^.^.^.^.^.^.^.^.^.^.^.^.^.^.^.^.^.^.^.^.^.^.^.^.^.^.^.^.^.^.^.^.^.^.^.^.^.^.^.^.^.^.^.^.^.^.^.^.^.^.^.^.",
"^.^.^.^.^.^.^.^.^.^.^.^.^.^.^.^.^.^.^.^.^.^.^.^.^.^.^.^.^.^.^.^.^.^.^.^.^.^.^.^.^.^.^.^.^.^.^.^.^.^.^.^.^.^.^.^.^.^.^.^.^.^.^.^.",
"^.^.^.^.^.^.^.^.^.^.^.^.^.^.^.^.^.^.^.^.^.^.^.^.^.^.^.^.^.^.^.^.^.^.^.^.^.^.^.^.^.^.^.^.^.^.^.^.^.^.^.^.^.^.^.^.^.^.^.^.^.^.^.^.",
"^.^.^.^.^.^.^.^.^.^.^.^.^.^.^.^.^.^.^.^.^.^.^.^.^.^.^.^.^.^.^.^.^.^.^.^.^.^.^.^.^.^.^.^.^.^.^.^.^.^.^.^.^.^.^.^.^.^.^.^.^.^.^.^.",
"^.^.^.^.^.^.^.^.^.^.^.^.^.^.^.^.^.^.^.^.^.^.^.^.^.^.^.^.^.^.^.^.^.^.^.^.^.^.^.^.^.^.^.^.^.^.^.^.^.^.^.^.^.^.^.^.^.^.^.^.^.^.^.^.",
"^.^.^.^.^.^.^.^.^.^.^.^.^.^.^.^.^.^.^.^.^.^.^.^.^.^.^.^.^.^.^.^.^.^.^.^.^.^.^.^.^.^.^.^.^.^.^.^.^.^.^.^.^.^.^.^.^.^.^.^.^.^.^.^.",
"^.^.^.^.^.^.^.^.^.^.^.^.^.^.^.^.^.^.^.^.^.^.^.^.^.^.^.^.^.^.^.^.^.^.^.^.^.^.^.^.^.^.^.^.^.^.^.^.^.^.^.^.^.^.^.^.^.^.^.^.^.^.^.^.",
"^.^.^.^.^.^.^.^.^.^.^.^.^.^.^.^.^.^.^.^.^.^.^.^.^.^.^.^.^.^.^.^.^.^.^.^.^.^.^.^.^.^.^.^.^.^.^.^.^.^.^.^.^.^.^.^.^.^.^.^.^.^.^.^.",
"^.^.^.^.^.^.^.^.^.^.^.^.^.^.^.^.^.^.^.^.^.^.^.^.^.^.^.^.^.^.^.^.^.^.^.^.^.^.^.^.^.^.^.^.^.^.^.^.^.^.^.^.^.^.^.^.^.^.^.^.^.^.^.^.",
"^.^.^.^.^.^.^.^.^.^.^.^.^.^.^.^.^.^.^.^.^.^.^.^.^.^.^.^.^.^.^.^.^.^.^.^.^.^.^.^.^.^.^.^.^.^.^.^.^.^.^.^.^.^.^.^.^.^.^.^.^.^.^.^.",
"^.^.^.^.^.^.^.^.^.^.^.^.^.^.^.^.^.^.^.^.^.^.^.^.^.^.^.^.^.^.^.^.^.^.^.^.^.^.^.^.^.^.^.^.^.^.^.^.^.^.^.^.^.^.^.^.^.^.^.^.^.^.^.^.",
"^.^.^.^.^.^.^.^.^.^.^.^.^.^.^.^.^.^.^.^.^.^.^.^.^.^.^.^.^.^.^.^.^.^.^.^.^.^.^.^.^.^.^.^.^.^.^.^.^.^.^.^.^.^.^.^.^.^.^.^.^.^.^.^.",
"^.^.^.^.^.^.^.^.^.^.^.^.^.^.^.^.^.^.^.^.^.^.^.^.^.^.^.^.^.^.^.^.^.^.^.^.^.^.^.^.^.^.^.^.^.^.^.^.^.^.^.^.^.^.^.^.^.^.^.^.^.^.^.^.",
"^.^.^.^.^.^.^.^.^.^.^.^.^.^.^.^.^.^.^.^.^.^.^.^.^.^.^.      . . ^.^.^.^.^.^.^.^.^.^.^.^.^.^.^.^.^.^.^.^.^.^.^.^.^.^.^.^.^.^.^.^.",
"^.^.^.^.^.^.^.^.^.^.^.^.^.^.^.^.^.^.^.^.^.^.^.^.    O + - ; - - + + . ^.^.^.^.^.^.^.^.^.^.^.^.^.^.^.^.^.^.^.^.^.^.^.^.^.^.^.^.^.",
"^.^.^.^.^.^.^.^.^.^.^.^.^.^.^.^.^.^.^.^.^.^.^.. + < 1 e r t r r e 1 ; +   ^.^.^.^.^.^.^.^.^.^.^.^.^.^.^.^.^.^.^.^.^.^.^.^.^.^.^.",
"^.^.^.^.^.^.^.^.^.^.^.^.^.^.^.^.^.^.^.^.^.^.O ; 1 1 1 1 1 e e r t t r < +   ^.^.^.^.^.^.^.^.^.^.^.^.^.^.^.^.^.^.^.^.^.^.^.^.^.^.",
"^.^.^.^.^.^.^.^.^.^.^.^.^.^.^.^.^.^.^.^.^.X ; 1 < < < < ; 1 r t y y t e - +   ^.^.^.^.^.^.^.^.^.^.^.^.^.^.^.^.^.^.^.^.^.^.^.^.^.",
"^.^.^.^.^.^.^.^.^.^.^.^.^.^.^.^.^.^.^.^.. + < < < < < 1 < < 1 e t t a t < ; O   ^.^.^.^.^.^.^.^.^.^.^.^.^.^.^.^.^.^.^.^.^.^.^.^.",
"^.^.^.^.^.^.^.^.^.^.^.^.^.^.^.^.^.^.^.^.. - < t N.f e 1 1 1 1 e r t t y r ; <   ^.^.^.^.^.^.^.^.^.^.^.^.^.^.^.^.^.^.^.^.^.^.^.^.",
"^.^.^.^.^.^.^.^.^.^.^.^.^.^.^.^.^.^.^.^.O ; s W.R.T.C.< 1 1 1 r t y t t t < < O   ^.^.^.^.^.^.^.^.^.^.^.^.^.^.^.^.^.^.^.^.^.^.^.",
"^.^.^.^.^.^.^.^.^.^.^.^.^.^.^.^.^.^.^.. O < V.H.R.W.T.y ; < e e t t t t r e < ; . ^.^.^.^.^.^.^.^.^.^.^.^.^.^.^.^.^.^.^.^.^.^.^.",
"^.^.^.^.^.^.^.^.^.^.^.^.^.^.^.^.^.^.^.. + 1 r < a !.Q.f - 1 e r t t y t r e - < . ^.^.^.^.^.^.^.^.^.^.^.^.^.^.^.^.^.^.^.^.^.^.^.",
"^.^.^.^.^.^.^.^.^.^.^.^.^.^.^.^.^.^.^.  - 1 ; + < E.!.g ; < e r t t y t t r - < O ^.^.^.^.^.^.^.^.^.^.^.^.^.^.^.^.^.^.^.^.^.^.^.",
"^.^.^.^.^.^.^.^.^.^.^.^.^.^.^.^.^.^.# @ & 6 > - < Y.!.C.1 1 e r r y y y t r ; < O ^.^.^.^.^.^.^.^.^.^.^.^.^.^.^.^.^.^.^.^.^.^.^.",
"^.^.^.^.^.^.^.^.^.^.^.^.^.^.^.^.5 m E  .../ h : t H.H.C.r < 1 e r t y a t e < ; O ^.^.^.^.^.^.^.^.^.^.^.^.^.^.^.^.^.^.^.^.^.^.^.",
"^.^.^.^.^.^.^.^.^.^.^.& 0 H ] [ { O.#.#.#.@.i.v u t y t 1 1 1 1 r r y y t r e ; .   ^.^.^.^.^.^.^.^.^.^.^.^.^.^.^.^.^.^.^.^.^.^.",
"^.^.^.^.^.^.^.^.^.^.^.c f.v.x.v.h.j.j.g.p.a.d.e.l > 1 1 1 < 1 1 e r y y t r r - .   ^.^.^.^.^.^.^.^.^.^.^.^.^.^.^.^.^.^.^.^.^.^.",
"^.^.^.^.^.^.^.^.^.^.^.3 j c 8.q.w.w.q.9.0.8.b =.i ; 1 1 1 < 1 1 e e r y r r e - .   ^.^.^.^.^.^.^.^.^.^.^.^.^.^.^.^.^.^.^.^.^.^.",
"^.^.^.^.^.^.^.^.^.^.^.^.^.^.^.2 9 k x b v c n q - - 1 1 1 1 < < 1 r r r e r e +   ^.^.^.^.^.^.^.^.^.^.^.^.^.^.^.^.^.^.^.^.^.^.^.",
"^.^.^.^.^.^.^.^.^.^.^.^.^.^.^.^.^.^.^.= = : - + ; < 1 1 1 1 < 1 1 e e e 1 e < + . ^.^.^.^.^.^.^.^.^.^.^.^.^.^.^.^.^.^.^.^.^.^.^.",
"^.^.^.^.^.^.^.^.^.^.^.^.^.^.^.^.^.^.^.^.- + X - ; < ; < ; < < 1 < 1 < < < < ; + O ^.^.^.^.^.^.^.^.^.^.^.^.^.^.^.^.^.^.^.^.^.^.^.",
"^.^.^.^.^.^.^.^.^.^.^.^.^.^.^.^.^.^.^.^.^.< ; - - - - - ; ; ; < < ; ; < < ; ; - O   ^.^.^.^.^.^.^.^.^.^.^.^.^.^.^.^.^.^.^.^.^.^.",
"^.^.^.^.^.^.^.^.^.^.^.^.^.^.^.^.^.^.^.^.^.; ; + + + - - - - ; ; ; ; ; ; ; ; ; - +   ^.^.^.^.^.^.^.^.^.^.^.^.^.^.^.^.^.^.^.^.^.^.",
"^.^.^.^.^.^.^.^.^.^.^.^.^.^.^.^.^.^.^.^.^.^.< ; + - - - - - - ; ; < 1 1 1 e e - - O ^.^.^.^.^.^.^.^.^.^.^.^.^.^.^.^.^.^.^.^.^.^.",
"^.^.^.^.^.^.^.^.^.^.^.^.^.^.^.^.^.^.^.^.^.^.; 1 - ; ; ; < < < e e r e e y y t 1 - - . ^.^.^.^.^.^.^.^.^.^.^.^.^.^.^.^.^.^.^.^.^.",
"^.^.^.^.^.^.^.^.^.^.^.^.^.^.^.^.^.^.^.^.^.  < < - ; - - - < 1 r r r t y a s a y 1 - + ^.^.^.^.^.^.^.^.^.^.^.^.^.^.^.^.^.^.^.^.^.",
"^.^.^.^.^.^.^.^.^.^.^.^.^.^.^.^.^.^.^.^.^.  - < - ; + - ; < e r r y a s f f g f y < O + ^.^.^.^.^.^.^.^.^.^.^.^.^.^.^.^.^.^.^.^.",
"^.^.^.^.^.^.^.^.^.^.^.^.^.^.^.^.^.^.^.^.^.  < < + - - - ; 1 r t t y y a f f g f a r - O ^.^.^.^.^.^.^.^.^.^.^.^.^.^.^.^.^.^.^.^.",
"^.^.^.^.^.^.^.^.^.^.^.^.^.^.^.^.^.^.^.^.^.- e + + - - + ; < 1 e r r t y a s f g s t 1 O + ^.^.^.^.^.^.^.^.^.^.^.^.^.^.^.^.^.^.^.",
"^.^.^.^.^.^.^.^.^.^.^.^.^.^.^.^.^.^.^.^.< g y < + - + + - < 1 1 e r r r y a f f s y 1 - + . ^.^.^.^.^.^.^.^.^.^.^.^.^.^.^.^.^.^.",
"^.^.^.^.^.^.^.^.^.^.^.^.^.^.^.^.^.^.^.^.r H.H.1 + - - - - ; < < 1 e e e r a s f s a e ; + - ^.^.^.^.^.^.^.^.^.^.^.^.^.^.^.^.^.^.",
"^.^.^.^.^.^.^.^.^.^.^.^.^.^.^.^.^.^.^.; B.W.!.g O - - - + - ; ; 1 1 1 e r t a f f s r 1 < + X ^.^.^.^.^.^.^.^.^.^.^.^.^.^.^.^.^.",
"^.^.^.^.^.^.^.^.^.^.^.^.^.^.^.^.^.^.+ s T.~.~.^.^.+ - - - ; ; ; < < 1 1 e t y s s s y r 1 ; + ^.^.^.^.^.^.^.^.^.^.^.^.^.^.^.^.^.",
"^.^.^.^.^.^.^.^.^.^.^.^.^.^.^.^.^.^.y Y.~.~.~.~.^.O + - - - - ; ; ; ; 1 e r y s f s a r 1 1 -   ^.^.^.^.^.^.^.^.^.^.^.^.^.^.^.^.",
"^.^.^.^.^.^.^.^.^.^.^.^.^.^.^.^.^.; J.Q.~.~.~.~.~.^.O + + + - - ; - ; 1 1 r t a s s y e 1 e ; O ^.^.^.^.^.^.^.^.^.^.^.^.^.^.^.^.",
"^.^.^.^.^.^.^.^.^.^.^.^.^.^.^.^.^.r E.~.~.~.~.~.~.~.H.+ + - - ; ; - < < < 1 r y a y y r 1 < ; X ^.^.^.^.^.^.^.^.^.^.^.^.^.^.^.^.",
"^.^.^.^.^.^.^.^.^.^.^.^.^.^.^.^.  Y.Q.~.~.~.~.~.~.~.!.V.+ - - ; ; - < < < 1 1 r r y y t 1 1 < X O ^.^.^.^.^.^.^.^.^.^.^.^.^.^.^.",
"^.^.^.^.^.^.^.^.^.^.^.^.^.^.^.^.^.E.!.~.~.~.~.~.~.~.~.Q.r + ; < - O < < < 1 e 1 r r t t < < < O O ^.^.^.^.^.^.^.^.^.^.^.^.^.^.^.",
"^.^.^.^.^.^.^.^.^.^.^.^.^.^.^.^.C.!.~.~.~.~.~.~.~.~.~.~.Y.+ - ; - - < t s r O 1 r r t e < ; < + O ^.^.^.^.^.^.^.^.^.^.^.^.^.^.^.",
"^.^.^.^.^.^.^.^.^.^.^.^.^.^.^.^.R.~.!.~.~.~.~.~.~.~.~.~.W.t + ; ; - < g g e ; ; e r r 1 - ; 1 O O ^.^.^.^.^.^.^.^.^.^.^.^.^.^.^.",
"^.^.^.^.^.^.^.^.^.^.^.^.^.^.^.y E.~.!.~.~.~.~.~.~.~.~.~.!.H.- ; ; ; < J.D.t ; - < e e ; - e r O   ^.^.^.^.^.^.^.^.^.^.^.^.^.^.^.",
"^.^.^.^.^.^.^.^.^.^.^.^.^.^.. S.W.~.!.~.~.~.~.~.~.~.~.!.~.E.- - ; ; < J.V.a 1 ; < 1 < - - 1 r O   ^.^.^.^.^.^.^.^.^.^.^.^.^.^.^.",
"^.^.^.^.^.^.^.^.^.^.^.^.^.^.+ J.W.!.~.~.~.~.~.~.~.~.~.!.!.Q.t - ; ; 1 S.N.y < ; ; < - O + 1 r O   ^.^.^.^.^.^.^.^.^.^.^.^.^.^.^.",
"^.^.^.^.^.^.^.^.^.^.^.^.^.^.e J.W.!.!.~.~.~.~.~.~.~.~.!.!.W.g - ; ; y C.g t < - - ; + O - r r O   ^.^.^.^.^.^.^.^.^.^.^.^.^.^.^.",
"^.^.^.^.^.^.^.^.^.^.^.^.^.^.y Y.W.Q.!.~.~.~.~.~.~.~.!.!.Q.E.N.- < < N.B.f y 1 + - O X - t t r O     ^.^.^.^.^.^.^.^.^.^.^.^.^.^.",
"^.^.^.^.^.^.^.^.^.^.^.^.^.^.y Y.W.Q.Q.!.~.~.~.~.~.~.!.!.Q.W.N.- ; e H.B.f s r ; O . O 1 y t e .     ^.^.^.^.^.^.^.^.^.^.^.^.^.^.",
"^.^.^.^.^.^.^.^.^.^.^.^.^.^.r J.E.Q.!.!.~.~.~.~.~.~.!.Q.W.R.B.- ; N.S.N.a y 1 - . O + a t t 1 .   ^.^.^.^.^.^.^.^.^.^.^.^.^.^.^.",
"^.^.^.^.^.^.^.^.^.^.^.^.^.^.< J.E.W.Q.!.!.!.!.!.!.~.!.Q.Q.R.V.; r V.N.s t r < O . O ; s t r <     ^.^.^.^.^.^.^.^.^.^.^.^.^.^.^.",
"^.^.^.^.^.^.^.^.^.^.^.^.^.^.+ J.R.E.Q.Q.Q.!.Q.Q.!.!.!.W.W.Y.V.; f f a y r < + . O - y a t r ; .   ^.^.^.^.^.^.^.^.^.^.^.^.^.^.^.",
"^.^.^.^.^.^.^.^.^.^.^.^.^.^.+ C.R.E.E.W.W.W.W.Q.Q.W.W.W.W.Y.g < y a y r 1 ; . O < t a a t 1 - .   ^.^.^.^.^.^.^.^.^.^.^.^.^.^.^.",
"^.^.^.^.^.^.^.^.^.^.^.^.^.^.^.s R.R.R.E.E.W.W.W.W.W.E.R.R.J.^.< s a r 1 < O O < r t y y e < - .   ^.^.^.^.^.^.^.^.^.^.^.^.^.^.^.",
"^.^.^.^.^.^.^.^.^.^.^.^.^.^.^.; H.R.R.R.R.E.E.E.E.R.R.T.Y.Y.^.< r y r < ; ; 1 e r y a t e ; - .   ^.^.^.^.^.^.^.^.^.^.^.^.^.^.^.",
"^.^.^.^.^.^.^.^.^.^.^.^.^.^.^.O a T.T.T.T.R.R.R.T.Y.Y.Y.H.J.t ; ; < < < < < 1 e r t t r e ; - .   ^.^.^.^.^.^.^.^.^.^.^.^.^.^.^.",
"^.^.^.^.^.^.^.^.^.^.^.^.^.^.^.^.1 C.T.Y.T.T.T.T.Y.Y.J.J.F.D.a ; ; < < < < < 1 r r t r r < O - .   ^.^.^.^.^.^.^.^.^.^.^.^.^.^.^.",
"^.^.^.^.^.^.^.^.^.^.^.^.^.^.^.^.+ r F.Y.Y.Y.T.Y.Y.J.J.J.H.S.1 ; ; < < < 1 1 e e r r e e - O O . ^.^.^.^.^.^.^.^.^.^.^.^.^.^.^.^.",
"^.^.^.^.^.^.^.^.^.^.^.^.^.^.^.^.^.^.^.J.T.T.Y.Y.Y.Y.J.Y.H.B.- ; ; ; < < 1 1 1 e e e 1 < O O O r ^.^.^.^.^.^.^.^.^.^.^.^.^.^.^.^.",
"^.^.^.^.^.^.^.^.^.^.^.^.^.*.n.U.^.^.e y F.Y.Y.J.Y.Y.T.J.J.y - - ; ; < < < 1 1 < 1 1 ; O O + + ^.^.^.^.^.^.^.^.^.^.^.^.^.^.^.^.^.",
"^.^.^.^.^.^.^.^.^.^.^.^.r.&.&.&.&.U.^.y a H.J.H.H.J.J.J.g - - ; < < < < < ; < < ; - . . ; - O e ^.^.^.^.^.^.^.^.^.^.^.^.^.^.^.^.",
"^.^.^.^.^.^.^.^.^.^.^.^.~ Q ` *.&.*.M.6.; e f g C.H.C.f < + - t r ; ; ; ; < 1 e ; .   + r e ; + ^.^.^.^.^.^.^.^.^.^.^.^.^.^.^.^.",
"^.^.^.^.^.^.^.^.^.^.^.^.^.V B Z ( $.*.U.^.< + < t t 1 ; + - - a s s < < 1 1 1 ; X O . + t y r < + ^.^.^.^.^.^.^.^.^.^.^.^.^.^.^.",
"^.^.^.^.^.^.^.^.^.^.^.^.^.^.Z B M A ^ ' b.I.a ; 1 ; + + - - y F.C.B.1 1 1 < - O O O O + t y r r - ; ^.^.^.^.^.^.^.^.^.^.^.^.^.^.",
"^.^.^.^.^.^.^.^.^.^.^.^.^.^.^.^.L V C Z ! l.P.d r ; + + - > r B.N.V.s ; % - + O + + O O 1 t t r r - t ^.^.^.^.^.^.^.^.^.^.^.^.^.",
"^.^.^.^.^.^.^.^.^.^.^.^.^.^.^.^.^.^.t.Z V V L t.p % O O X - s C.T.T.D.+ O X . X O + O . - 1 e e r e ; ^.^.^.^.^.^.^.^.^.^.^.^.^.",
"^.^.^.^.^.^.^.^.^.^.^.^.^.^.^.^.^.^.^.m.u.K C Z S w 8 , * 6 4.Z.L.G.G.7 $ o $ + O O . . O - ; ; ; < ; e ^.^.^.^.^.^.^.^.^.^.^.^.",
"^.^.^.^.^.^.^.^.^.^.^.^.^.^.^.^.^.^.^.^.^.^.^.U 2.;.;.y.k.z.%.W } | _ ) W _ 3.z 5.7.A.>.y e ; + + + + 1 ^.^.^.^.^.^.^.^.^.^.^.^.",
"^.^.^.^.^.^.^.^.^.^.^.^.^.^.^.^.^.^.^.^.^.^.^.^.+.o. .X.} W }  .X.X.X.X.W R L K P S 1.^.^.^.^.^.t 1 e ^.^.^.^.^.^.^.^.^.^.^.^.^.",
"^.^.^.^.^.^.^.^.^.^.^.^.^.^.^.^.^.^.^.^.^.^.^.^.#.} T Y Y A A L K D J J S K G N M B V P ^.^.^.^.^.^.^.^.^.^.^.^.^.^.^.^.^.^.^.^.",
"^.^.^.^.^.^.^.^.^.^.^.^.^.^.^.^.^.^.^.^.^.^.^.^.%.T Z S S F -.:.,.<.<.<.<.<.,.:.G V V C ^.^.^.^.^.^.^.^.^.^.^.^.^.^.^.^.^.^.^.^.",
"^.^.^.^.^.^.^.^.^.^.^.^.^.^.^.^.^.^.^.^.^.^.^.^.^.^.^.^.^.^.^.^.^.^.^.^.^.^.^.^.^.^.^.^.^.^.^.^.^.^.^.^.^.^.^.^.^.^.^.^.^.^.^.^."
};
